<svg width="166" height="147" viewBox="0 0 166 147" fill="none" xmlns="http://www.w3.org/2000/svg">
<path fill-rule="evenodd" clip-rule="evenodd" d="M148.411 67.7531C157.268 75.3554 162.742 86.1647 163.629 97.8031C164.516 109.442 160.744 120.956 153.142 129.813C147.472 136.418 139.972 141.193 131.588 143.535C123.205 145.877 114.315 145.681 106.044 142.971C97.772 140.26 90.4898 135.158 85.1178 128.309C79.7458 121.46 76.5254 113.172 75.8638 104.493C75.2023 95.8139 77.1292 87.1335 81.401 79.5494C85.6728 71.9654 92.0976 65.8185 99.863 61.8859C107.628 57.9533 116.385 56.4117 125.027 57.456C133.668 58.5004 141.806 62.0838 148.411 67.7531Z" fill="white"/>
<path fill-rule="evenodd" clip-rule="evenodd" d="M155.594 85.5659C149.837 72.6808 133.571 63.4804 124.086 62.5858C110.838 61.3362 101.248 66.0232 93.0071 73.8272C83.0963 83.2122 78.9507 97.8723 81.7995 109.979C90.6923 147.765 144.885 151.712 157.057 113.657L144.88 114.132C144.612 112.895 144.569 111.129 144.794 109.665C147.071 109.242 151.179 109.429 153.744 109.369C162.713 109.159 165.862 107.635 160.715 119.403C159.377 122.463 157.768 125.248 155.927 127.803C146.79 140.49 130.396 148.166 113.583 145.72C90.1263 142.307 73.1523 121.125 75.3525 97.604C77.9539 69.7993 105.791 51.5168 131.122 58.1138C138.637 60.1639 141.61 63.2499 146.933 63.93C160.65 65.6829 171.242 90.7297 162.907 110.355C162.265 109.606 156.778 100.988 155.116 98.897C153.91 97.3782 150.765 94.6222 148.896 93.4776C145.285 91.1404 145.256 92.3339 139.816 91.7617C127.983 88.3023 130.08 75.4713 133.488 72.2359C135.886 72.503 138.271 72.3685 140.91 73.364C145.523 75.1037 150.334 79.1118 155.594 85.5659Z" fill="#13A04A"/>
<path fill-rule="evenodd" clip-rule="evenodd" d="M133.962 104.036C133.241 104.679 133.85 111.86 133.921 113.265C134 114.834 133.722 122.568 136.907 119.955C138.069 119.003 137.208 112.394 137.08 110.692C136.969 109.206 137.433 100.938 133.962 104.036ZM125.424 111.29C125.664 114.157 125.559 117.733 125.995 120.256C127.207 120.855 127.774 120.669 128.72 120.358C129.429 118.882 128.6 106.513 128.334 104.646C123.833 102.508 125.23 108.967 125.424 111.29ZM115.316 111.683C112.793 114.924 117.881 118.139 119.972 115.409C122.53 112.07 117.615 108.73 115.316 111.683ZM110.526 98.2795C112.04 96.5521 114.977 97.3518 117.282 97.5414C119.791 97.748 122.235 97.9565 124.796 98.1594C142.486 99.562 141.198 98.4374 141.504 106.097C141.603 108.573 141.754 110.77 141.845 113.217C142.375 127.51 145.401 122.136 117.524 128.157C109.403 129.912 110.796 126.608 110.244 112.596C110.133 109.763 108.934 100.096 110.526 98.2795Z" fill="#13A04A"/>
<path fill-rule="evenodd" clip-rule="evenodd" d="M108.242 104.179L108.307 107.35C106.67 107.697 101.99 107.788 100.047 107.841C97.6073 107.909 93.6717 108.835 91.6675 107.304C91.7243 104.363 92.7237 104.746 98.9112 104.518C101.571 104.419 105.749 103.911 108.242 104.179Z" fill="#13A04A"/>
<path fill-rule="evenodd" clip-rule="evenodd" d="M108.821 119.143L109.036 122.448C103.749 122.179 92.4082 124.522 92.4212 121.489C92.4305 119.399 94.2654 119.74 95.7009 119.639L108.821 119.143Z" fill="#13A04A"/>
<path fill-rule="evenodd" clip-rule="evenodd" d="M44.7432 59.5212C50.2467 59.5212 55.6963 60.6052 60.7809 62.7113C65.8655 64.8174 70.4854 67.9044 74.377 71.796C78.2686 75.6875 81.3556 80.3075 83.4617 85.3921C85.5678 90.4767 86.6518 95.9263 86.6518 101.43C86.6518 109.718 84.1939 117.821 79.5889 124.713C74.9839 131.605 68.4387 136.976 60.7809 140.148C53.1231 143.32 44.6967 144.15 36.5673 142.533C28.4378 140.916 20.9704 136.925 15.1094 131.064C9.24838 125.203 5.25698 117.735 3.63993 109.606C2.02288 101.476 2.85282 93.0499 6.02478 85.3921C9.19674 77.7343 14.5683 71.1891 21.4601 66.5841C28.3519 61.9792 36.4545 59.5212 44.7432 59.5212Z" fill="white"/>
<path fill-rule="evenodd" clip-rule="evenodd" d="M44.7432 56.6865C57.0981 56.6865 68.2844 61.6948 76.3812 69.7917C84.4781 77.8887 89.4864 89.0749 89.4864 101.43C89.4864 113.785 84.4781 124.971 76.3812 133.068C68.2844 141.165 57.0981 146.173 44.7432 146.173C32.3879 146.173 21.202 141.165 13.1051 133.068C5.00828 124.971 0 113.785 0 101.43C0 89.0749 5.00828 77.8887 13.1051 69.7917C21.202 61.6948 32.3879 56.6865 44.7432 56.6865ZM72.3727 73.8003C65.3023 66.7299 55.5329 62.3559 44.7432 62.3559C33.9531 62.3559 24.184 66.7299 17.1137 73.8003C10.0433 80.8707 5.66935 90.64 5.66935 101.43C5.66935 112.22 10.0433 121.989 17.1137 129.059C24.184 136.13 33.9531 140.504 44.7432 140.504C55.5329 140.504 65.3023 136.13 72.3727 129.059C79.4431 121.989 83.8171 112.22 83.8171 101.43C83.8171 90.64 79.4431 80.8707 72.3727 73.8003Z" fill="#0072B7"/>
<path d="M71.1591 101.43C71.1591 108.723 65.2444 114.638 57.9511 114.638C50.6579 114.638 47.1005 107.841 44.7432 101.43C42.2264 94.5848 38.8286 88.2219 31.5352 88.2219C24.242 88.2219 18.3274 94.1366 18.3274 101.43" stroke="black" stroke-width="5.66933"/>
<path d="M37.0922 124.791V132.549H36.1528V125.776H36.1073L34.2134 127.034V126.079L36.1528 124.791H37.0922ZM41.793 124.685C42.1111 124.688 42.4293 124.748 42.7475 124.867C43.0657 124.986 43.3561 125.183 43.6187 125.458C43.8813 125.731 44.0922 126.103 44.2513 126.575C44.4104 127.048 44.4899 127.64 44.4899 128.352C44.4899 129.041 44.4243 129.654 44.293 130.189C44.1642 130.722 43.9773 131.171 43.7323 131.537C43.4899 131.904 43.1945 132.181 42.846 132.371C42.5 132.56 42.1086 132.655 41.6717 132.655C41.2374 132.655 40.8498 132.569 40.5089 132.397C40.1705 132.223 39.8927 131.982 39.6755 131.674C39.4609 131.363 39.3233 131.003 39.2626 130.594H40.1869C40.2702 130.95 40.4356 131.245 40.6831 131.477C40.9331 131.707 41.2626 131.822 41.6717 131.822C42.2702 131.822 42.7424 131.56 43.0884 131.037C43.4369 130.515 43.6111 129.776 43.6111 128.822H43.5505C43.4091 129.034 43.2412 129.217 43.0467 129.371C42.8523 129.525 42.6364 129.644 42.399 129.727C42.1616 129.81 41.9091 129.852 41.6414 129.852C41.197 129.852 40.7892 129.742 40.418 129.522C40.0493 129.3 39.7538 128.996 39.5316 128.609C39.3119 128.221 39.202 127.776 39.202 127.276C39.202 126.801 39.3081 126.367 39.5202 125.973C39.7349 125.577 40.0354 125.261 40.4217 125.026C40.8106 124.791 41.2677 124.678 41.793 124.685ZM41.793 125.519C41.4748 125.519 41.1882 125.598 40.9331 125.757C40.6806 125.914 40.4798 126.126 40.3308 126.394C40.1844 126.659 40.1111 126.953 40.1111 127.276C40.1111 127.599 40.1818 127.894 40.3233 128.159C40.4672 128.421 40.6629 128.631 40.9104 128.787C41.1604 128.942 41.4445 129.019 41.7626 129.019C42.0025 129.019 42.226 128.972 42.4331 128.878C42.6402 128.782 42.8207 128.652 42.9748 128.488C43.1313 128.322 43.2538 128.133 43.3422 127.924C43.4306 127.712 43.4748 127.491 43.4748 127.261C43.4748 126.958 43.4015 126.674 43.2551 126.409C43.1111 126.144 42.9116 125.929 42.6566 125.765C42.4041 125.601 42.1162 125.519 41.793 125.519ZM48.6007 132.655C48.1007 132.655 47.655 132.569 47.2636 132.397C46.8747 132.226 46.5654 131.987 46.3356 131.681C46.1083 131.373 45.9846 131.016 45.9644 130.609H46.9189C46.9391 130.859 47.025 131.075 47.1765 131.257C47.328 131.436 47.5262 131.575 47.7712 131.674C48.0161 131.772 48.2876 131.822 48.5856 131.822C48.9189 131.822 49.2144 131.763 49.4719 131.647C49.7295 131.531 49.9315 131.37 50.078 131.162C50.2245 130.955 50.2977 130.715 50.2977 130.443C50.2977 130.157 50.227 129.906 50.0856 129.689C49.9442 129.469 49.7371 129.298 49.4644 129.174C49.1916 129.05 48.8583 128.988 48.4644 128.988H47.8431V128.155H48.4644C48.7724 128.155 49.0426 128.099 49.275 127.988C49.5098 127.877 49.6929 127.721 49.8242 127.519C49.958 127.317 50.025 127.079 50.025 126.806C50.025 126.544 49.9669 126.315 49.8507 126.121C49.7346 125.926 49.5704 125.775 49.3583 125.666C49.1487 125.558 48.9012 125.503 48.6159 125.503C48.3482 125.503 48.0957 125.553 47.8583 125.651C47.6234 125.747 47.4315 125.887 47.2825 126.072C47.1335 126.253 47.0527 126.473 47.0401 126.731H46.131C46.1462 126.324 46.2686 125.968 46.4984 125.662C46.7282 125.354 47.0287 125.114 47.4 124.943C47.7737 124.771 48.184 124.685 48.631 124.685C49.1108 124.685 49.5224 124.782 49.8659 124.977C50.2093 125.169 50.4732 125.423 50.6575 125.738C50.8419 126.054 50.934 126.395 50.934 126.761C50.934 127.198 50.8192 127.57 50.5894 127.878C50.3621 128.186 50.0527 128.4 49.6613 128.519V128.579C50.1512 128.66 50.5338 128.868 50.809 129.204C51.0843 129.537 51.2219 129.95 51.2219 130.443C51.2219 130.864 51.107 131.243 50.8772 131.579C50.65 131.912 50.3394 132.175 49.9454 132.367C49.5515 132.559 49.1032 132.655 48.6007 132.655ZM55.3015 132.655C54.7308 132.655 54.2447 132.5 53.8431 132.189C53.4416 131.876 53.1348 131.423 52.9227 130.829C52.7106 130.233 52.6045 129.513 52.6045 128.67C52.6045 127.832 52.7106 127.116 52.9227 126.522C53.1373 125.926 53.4454 125.472 53.8469 125.159C54.251 124.843 54.7358 124.685 55.3015 124.685C55.8671 124.685 56.3507 124.843 56.7522 125.159C57.1563 125.472 57.4644 125.926 57.6765 126.522C57.8911 127.116 57.9984 127.832 57.9984 128.67C57.9984 129.513 57.8924 130.233 57.6803 130.829C57.4681 131.423 57.1613 131.876 56.7598 132.189C56.3583 132.5 55.8722 132.655 55.3015 132.655ZM55.3015 131.822C55.8671 131.822 56.3065 131.549 56.6197 131.003C56.9328 130.458 57.0894 129.68 57.0894 128.67C57.0894 127.998 57.0174 127.426 56.8734 126.954C56.732 126.482 56.5275 126.122 56.2598 125.875C55.9947 125.627 55.6752 125.503 55.3015 125.503C54.7409 125.503 54.3027 125.78 53.9871 126.333C53.6714 126.883 53.5136 127.662 53.5136 128.67C53.5136 129.342 53.5843 129.912 53.7257 130.382C53.8671 130.852 54.0704 131.209 54.3356 131.454C54.6032 131.699 54.9252 131.822 55.3015 131.822Z" fill="black"/>
<path fill-rule="evenodd" clip-rule="evenodd" d="M98.3147 24.2288H96.8063V25.7372H113.701V26.0391H114.002V61.3358H52.7607V61.0342H52.4591V26.3407H52.7607V26.0391H53.0623V25.7372H69.9566V24.5307H68.1465V24.2288H67.8449V23.0221H68.1465V22.7205H69.9566V20.9104H70.56V20.6087H70.8616V20.3071H71.465V20.0054H72.0685V19.7036H72.3701V19.402H72.9734V19.1003H73.2751V18.7987H73.8784V18.497H74.4818V18.1952H74.7835V17.8936H75.3869V17.5919H75.9902V17.2903H76.2919V16.9886H76.8953V16.6868H77.4986V16.3851H77.8003V16.0835H78.4037V15.7819H79.007V15.4801H79.3089V15.1785H79.9121V14.8767H80.5154V14.5751H80.8173V14.2734H81.4206V13.9718H82.0238V13.67H82.3257V13.3683H82.929V13.0667H83.8341V13.3683H84.1357V13.67H84.739V13.9718H85.3425V14.2734H85.9458V14.5751H86.2474V14.8767H86.8509V15.1785H87.4542V15.4801H87.7558V15.7819H88.3592V16.0835H88.9626V16.3851H89.5659V16.6868H89.8677V16.9886H90.471V17.2903H91.0743V17.5919H91.376V17.8936H91.9794V18.1952H92.5827V18.497H93.1862V18.7987H93.4878V19.1003H94.0911V19.402H94.6946V19.7036H94.9962V20.0054H95.5995V20.3071H96.203V20.6087H96.5046V20.9104H96.8063V22.7205H98.6164V23.9272H98.3147V24.2288ZM79.6105 2.80949H76.8953V3.11108H75.3869V3.41284H73.8784V3.7146H72.3701V4.01619H71.465V4.31787H70.2583V4.61947H69.3533V4.92139H68.4482V5.22298H67.8449V5.52458H66.9398V5.82633H66.3365V6.12793H65.733V6.42977H64.8281V6.73136H64.2246V7.03296H63.6213V7.33472H63.0179V7.63631H62.7162V7.93815H62.1129V8.23975H61.5095V8.5415H60.9061V8.8431H60.6045V9.14469H60.0011V9.44653H59.6994V9.74821H59.0961V10.0499H58.7943V10.3515H58.191V10.6532H57.8893V10.955H57.5877V11.2566H56.9843V11.5583H56.6825V11.8599H56.3809V12.1616H56.0793V12.4634H55.4759V12.765H55.1741V13.0667H54.8725V13.3683H54.5709V13.67H54.2691V13.9718H53.9675V14.2734H53.6657V14.5751H53.3641V14.8767H53.0623V15.1785H52.7607V15.4801H52.4591V15.7819H52.1573V16.0835H51.8557V16.3851H51.5539V16.6868H51.2523V16.9886H50.9506V17.2903H50.6489V17.8936H50.3473V18.1952H50.0455V18.497H49.7439V18.7987H49.4422V19.402H49.1405V19.7036H48.8389V20.0054H48.5371V20.6087H48.2355V20.9104H47.9338V21.5138H47.6321V21.8155H47.3305V22.4189H47.0287V22.7205H46.7271V23.3239H46.4254V23.9272H46.1237V24.2288H45.8219V24.8323H45.5203V25.4356H45.2187V26.0391H44.917V26.6424H44.6153V27.2456H44.3135V28.1509H44.0119V28.7542H43.7103V29.3575H43.4086V30.2625H43.1069V31.1676H42.8051V32.0727H42.5035V32.9776H42.2018V34.1844H41.9002V35.0895H41.5985V36.8997H41.2967V39.0114H40.9951V41.4248H40.6934V48.0618H40.9951V51.0785H41.2967V52.8887H41.5985V54.3971H41.9002V55.3022H42.2018V56.509H42.5035V57.4139H42.8051V58.319H43.1069V59.224H43.4086V60.1291H43.7103V60.7324H44.0119V61.6375H44.3135V62.2408H44.6153V62.8442H44.917V63.4475H45.2187V64.0509H45.5203V64.6543H45.8219V65.2577H46.1237V65.8611H46.4254V66.1627H46.7271V66.766H47.0287V67.3695H47.3305V67.6711H47.6321V68.2744H47.9338V68.5762H48.2355V69.1795H48.5371V69.4812H48.8389V69.7829H49.1405V70.3863H49.4422V70.6879H49.7439V70.9897H50.0455V71.2913H50.3473V71.8947H50.6489V72.1963H50.9506V72.498H51.2523V72.7996H51.5539V73.1015H51.8557V73.4031H52.1573V73.7047H52.4591V74.0064H52.7607V74.308H53.0623V74.6099H53.3641V74.9115H53.6657V75.2132H53.9675V75.5148H54.2691V75.8164H54.5709V76.1183H54.8725V76.4199H55.1741V76.7217H55.4759V77.0233H55.7775V77.325H56.3809V77.6267H56.6825V77.9283H56.9843V78.2301H57.2859V78.5317H57.8893V78.8333H58.191V79.1351H58.7943V79.4367H59.0961V79.7384H59.3977V80.04H60.0011V80.3418H60.6045V80.6435H60.9061V80.9451H61.5095V81.2468H62.1129V81.5484H62.4145V81.8502H63.0179V82.1519H63.6213V82.4535H64.2246V82.7552H64.8281V83.0568H65.4314V83.3586H66.0347V83.6603H66.9398V83.9621H67.5431V84.2637H68.4482V84.5653H69.3533V84.8669H70.2583V85.1687H71.1633V85.4705H72.3701V85.7721H73.5769V86.0738H75.0853V86.3754H76.5937V86.6771H79.007V86.9788H86.8509V86.6771H89.2642V86.3754H90.7726V86.0738H92.2811V85.7721H93.4878V85.4705H94.6946V85.1687H95.5995V84.8669H96.5046V84.5653H97.4097V84.2637H98.3147V83.9621H98.9182V83.6603H99.8231V83.3586H100.427V83.0568H101.03V82.7552H101.633V82.4535H102.237V82.1519H102.84V81.8502H103.443V81.5484H104.047V81.2468H104.348V80.9451H104.952V80.6435H105.555V80.3418H105.857V80.04H106.46V79.7384H106.762V79.4367H107.365V79.1351H107.667V78.8333H107.969V78.5317H108.572V78.2301H108.874V77.9283H109.175V77.6267H109.779V77.325H110.08V77.0233H110.382V76.7217H110.684V76.4199H110.985V76.1183H111.287V75.8164H111.589V75.5148H112.192V75.2132H112.494V74.9115H112.796V74.6099H113.097V74.308H113.399V74.0064H113.701V73.4031H114.002V73.1015H114.304V72.7996H114.606V72.498H114.907V72.1963H115.209V71.8947H115.511V71.5929H115.812V70.9897H116.114V70.6879H116.416V70.3863H116.717V69.7829H117.019V69.4812H117.321V69.1795H117.622V68.5762H117.924V68.2744H118.226V67.6711H118.528V67.3695H118.829V66.766H119.131V66.4644H119.432V65.8611H119.734V65.2577H120.036V64.6543H120.338V64.0509H120.639V63.4475H120.941V62.8442H121.243V62.2408H121.544V61.6375H121.846V61.0342H122.148V60.1291H122.449V59.5258H122.751V58.6207H123.053V57.7155H123.354V56.509H123.656V55.6039H123.958V54.0954H124.259V53.1903H124.561V51.0785H124.863V48.6651H125.164V41.1231H124.863V38.7096H124.561V36.2961H124.259V35.3913H123.958V33.8827H123.656V32.9776H123.354V31.771H123.053V30.8659H122.751V30.2625H122.449V29.3575H122.148V28.7542H121.846V27.8491H121.544V27.2456H121.243V26.6424H120.941V26.0391H120.639V25.4356H120.338V24.8323H120.036V24.2288H119.734V23.6255H119.432V23.3239H119.131V22.7205H118.829V22.1171H118.528V21.8155H118.226V21.2121H117.924V20.9104H117.622V20.3071H117.321V20.0054H117.019V19.7036H116.717V19.1003H116.416V18.7987H116.114V18.497H115.812V18.1952H115.511V17.5919H115.209V17.2903H114.907V16.9886H114.606V16.6868H114.304V16.3851H114.002V16.0835H113.701V15.7819H113.399V15.4801H113.097V15.1785H112.796V14.8767H112.494V14.5751H112.192V14.2734H111.89V13.9718H111.589V13.67H111.287V13.3683H110.985V13.0667H110.684V12.765H110.382V12.4634H110.08V12.1616H109.477V11.8599H109.175V11.5583H108.874V11.2566H108.572V10.955H107.969V10.6532H107.667V10.3515H107.064V10.0499H106.762V9.74821H106.159V9.44653H105.857V9.14469H105.253V8.8431H104.952V8.5415H104.348V8.23975H103.745V7.93815H103.443V7.63631H102.84V7.33472H102.237V7.03296H101.633V6.73136H101.03V6.42977H100.427V6.12793H99.5214V5.82633H98.9182V5.52458H98.013V5.22298H97.4097V4.92139H96.5046V4.61947H95.5995V4.31787H94.6946V4.01619H93.1862V3.7146H91.9794V3.41284H90.471V3.11108H88.9626V2.80949H85.3425V2.50781H79.6105V2.80949Z" fill="#900002"/>
<path fill-rule="evenodd" clip-rule="evenodd" d="M70.5599 57.414H96.203V58.9224H70.5599V57.414ZM73.2751 55.0007H93.7895V56.509H73.2751V55.0007ZM81.7222 47.7603H82.0238V47.1568H82.3257V46.8551H84.1356V47.1568H84.4374V47.4585H84.739V47.7603H85.0407V53.4923H81.7222V47.7603ZM76.2919 47.7603H76.5936V47.1568H76.8952V46.8551H78.7054V47.1568H79.3089V47.7603H79.6105V53.4923H76.2919V47.7603ZM87.1524 47.7603H87.4542V47.4585H87.7558V47.1568H88.0575V46.8551H89.8677V47.1568H90.1694V47.7603H90.471V53.4923H87.4542V53.1903H87.1524V47.7603ZM93.4878 47.4585H96.8063V52.2855H93.4878V47.4585ZM69.9566 47.4585H73.2751V52.2855H69.9566V47.4585ZM101.935 52.2855H98.9182V47.4585H102.237V51.9837H101.935V52.2855ZM67.8448 52.2855H64.828V47.4585H68.1464V51.9837H67.8448V52.2855ZM87.1524 38.7097H87.4542V38.1064H87.7558V37.8047H88.3592V37.5031H89.5659V37.8047H89.8677V38.1064H90.1694V38.4081H90.471V44.1401H87.1524V38.7097ZM81.7222 38.4081H82.0238V38.1064H82.3257V37.8047H82.6273V37.5031H84.1356V37.8047H84.4374V38.1064H84.739V38.7097H85.0407V44.1401H81.7222V38.4081ZM76.2919 38.4081H76.5936V38.1064H76.8952V37.8047H77.197V37.5031H78.7054V37.8047H79.007V38.1064H79.3089V38.7097H79.6105V44.1401H76.2919V38.4081ZM98.9182 38.4081H101.935V38.7097H102.237V43.2349H98.9182V38.4081ZM93.4878 38.4081H96.8063V43.2349H93.4878V38.4081ZM69.9566 38.4081H73.2751V43.2349H69.9566V38.4081ZM64.828 38.4081H67.8448V38.7097H68.1464V43.2349H64.828V38.4081ZM81.7222 29.3576H82.0238V28.7542H82.3257V28.4526H84.1356V28.7542H84.4374V29.056H84.739V29.3576H85.0407V35.0896H81.7222V29.3576ZM76.2919 29.3576H76.5936V28.7542H76.8952V28.4526H78.7054V28.7542H79.007V29.056H79.3089V29.3576H79.6105V35.0896H76.2919V29.3576ZM87.1524 29.3576H87.4542V29.056H87.7558V28.7542H88.0575V28.4526H89.8677V28.7542H90.1694V29.3576H90.471V35.0896H87.4542V34.7878H87.1524V29.3576ZM98.9182 29.6593H101.935V29.9609H102.237V34.4861H98.9182V29.6593ZM93.4878 29.6593H96.8063V34.4861H93.4878V29.6593ZM69.9566 29.6593H73.2751V34.4861H69.9566V29.6593ZM64.828 29.6593H67.8448V29.9609H68.1464V34.4861H64.828V29.6593ZM85.3425 25.134H85.0407V25.4357H84.739V25.7373H84.4374V26.0392H82.3257V25.7373H81.7222V25.4357H81.4206V25.134H81.1188V22.7205H81.4206V22.1172H81.7222V21.8156H82.3257V21.5138H84.4374V21.8156H84.739V22.1172H85.0407V22.4189H85.3425V23.0222H85.6441V24.8324H85.3425V25.134ZM83.2306 18.7987H82.6273V19.1004H82.0238V19.4021H81.4206V19.7037H81.1188V20.0055H80.5154V20.3072H79.912V20.6088H79.6105V20.9105H79.007V21.2122H78.4037V21.5138H78.102V21.8156H77.4986V22.1172H76.8952V22.4189H76.2919V22.7205H75.9902V23.0222H75.3869V23.324H74.7835V23.6256H74.4818V23.9273H73.8784V24.2289H73.2751V24.5308H71.465V27.2457H62.7162V59.8275H104.047V27.2457H95.5995V26.9441H95.2979V24.2289H93.1862V23.9273H92.5827V23.6256H92.2811V23.324H91.6778V23.0222H91.0743V22.7205H90.471V22.4189H89.8677V22.1172H89.5659V21.8156H88.9626V21.5138H88.3592V21.2122H87.7558V20.9105H87.4542V20.6088H86.8509V20.3072H86.2474V20.0055H85.6441V19.7037H85.3425V19.4021H84.739V19.1004H84.1356V18.7987H83.5322V18.4971H83.2306V18.7987Z" fill="#900002"/>
<path fill-rule="evenodd" clip-rule="evenodd" d="M105.555 27.2455H112.494V59.8273H105.555V27.2455ZM62.7162 27.2455H71.465V24.5306H73.2751V24.2288H73.8784V23.9272H74.4818V23.6254H74.7835V23.3238H75.3869V23.0221H75.9902V22.7204H76.2919V22.4188H76.8953V22.117H77.4986V21.8154H78.102V21.5137H78.4037V21.212H79.007V20.9103H79.6105V20.6086H79.9121V20.307H80.5154V20.0053H81.1188V19.7035H81.4206V19.4019H82.0238V19.1003H82.6273V18.7986H83.2306V18.4969H83.5322V18.7986H84.1357V19.1003H84.739V19.4019H85.3425V19.7035H85.6441V20.0053H86.2474V20.307H86.8509V20.6086H87.4542V20.9103H87.7558V21.212H88.3592V21.5137H88.9626V21.8154H89.5659V22.117H89.8677V22.4188H90.471V22.7204H91.0743V23.0221H91.6778V23.3238H92.2811V23.6254H92.5827V23.9272H93.1862V24.2288H95.2979V26.9439H95.5995V27.2455H104.047V59.8273H62.7162V27.2455ZM53.9675 27.2455H61.2078V59.8273H53.9675V27.2455ZM82.6273 17.2902H82.0238V17.5918H81.7222V17.8934H81.1188V18.1951H80.5154V18.4969H79.9121V18.7986H79.6105V19.1003H79.007V19.4019H78.4037V19.7035H78.102V20.0053H77.4986V20.307H76.8953V20.6086H76.2919V20.9103H75.9902V21.212H75.3869V21.5137H74.7835V21.8154H74.4818V22.117H73.8784V22.4188H73.2751V22.7204H71.465V21.8154H72.0685V21.5137H72.3701V21.212H72.9734V20.9103H73.2751V20.6086H73.8784V20.307H74.4818V20.0053H74.7835V19.7035H75.3869V19.4019H75.9902V19.1003H76.2919V18.7986H76.8953V18.4969H77.4986V18.1951H77.8003V17.8934H78.4037V17.5918H79.007V17.2902H79.3089V16.9885H79.9121V16.6868H80.5154V16.385H80.8173V16.0834H81.4206V15.7818H82.0238V15.4801H82.3257V15.1784H82.929V14.8766H83.8341V15.1784H84.1357V15.4801H84.739V15.7818H85.3425V16.0834H85.9458V16.385H86.2474V16.6868H86.8509V16.9885H87.4542V17.2902H88.0575V17.5918H88.3592V17.8934H88.9626V18.1951H89.5659V18.4969H89.8677V18.7986H90.471V19.1003H91.0743V19.4019H91.6778V19.7035H91.9794V20.0053H92.5827V20.307H93.1862V20.6086H93.4878V20.9103H94.0911V21.212H94.6946V21.5137H95.2979V22.7204H93.4878V22.4188H93.1862V22.117H92.5827V21.8154H91.9794V21.5137H91.6778V21.212H91.0743V20.9103H90.471V20.6086H89.8677V20.307H89.5659V20.0053H88.9626V19.7035H88.3592V19.4019H87.7558V19.1003H87.1525V18.7986H86.8509V18.4969H86.2474V18.1951H85.6441V17.8934H85.0407V17.5918H84.739V17.2902H84.1357V16.9885H82.6273V17.2902ZM82.929 13.3682H82.3257V13.6699H82.0238V13.9717H81.4206V14.2733H80.8173V14.575H80.5154V14.8766H79.9121V15.1784H79.3089V15.4801H79.007V15.7818H78.4037V16.0834H77.8003V16.385H77.4986V16.6868H76.8953V16.9885H76.2919V17.2902H75.9902V17.5918H75.3869V17.8934H74.7835V18.1951H74.4818V18.4969H73.8784V18.7986H73.2751V19.1003H72.9734V19.4019H72.3701V19.7035H72.0685V20.0053H71.465V20.307H70.8616V20.6086H70.5599V20.9103H69.9566V22.7204H68.1465V23.0221H67.8449V24.2288H68.1465V24.5306H69.9566V25.7371H53.0623V26.0391H52.7607V26.3407H52.4591V61.0341H52.7607V61.3357H114.002V26.0391H113.701V25.7371H96.8063V24.2288H98.3147V23.9272H98.6164V22.7204H96.8063V20.9103H96.5046V20.6086H96.203V20.307H95.5995V20.0053H94.9962V19.7035H94.6946V19.4019H94.0911V19.1003H93.4878V18.7986H93.1862V18.4969H92.5827V18.1951H91.9794V17.8934H91.376V17.5918H91.0743V17.2902H90.471V16.9885H89.8677V16.6868H89.5659V16.385H88.9626V16.0834H88.3592V15.7818H87.7558V15.4801H87.4542V15.1784H86.8509V14.8766H86.2474V14.575H85.9458V14.2733H85.3425V13.9717H84.739V13.6699H84.1357V13.3682H83.8341V13.0667H82.929V13.3682Z" fill="#FCFEFE"/>
<path fill-rule="evenodd" clip-rule="evenodd" d="M56.0792 47.4584H59.3976V52.2854H56.0792V47.4584ZM56.0792 38.408H59.3976V43.2349H56.0792V38.408ZM56.0792 29.6593H59.3976V34.486H56.0792V29.6593ZM53.9675 59.8274H61.2078V27.2456H53.9675V59.8274Z" fill="#900002"/>
<path fill-rule="evenodd" clip-rule="evenodd" d="M107.365 47.4584H110.684V52.2854H107.365V47.4584ZM107.365 38.408H110.684V43.2349H107.365V38.408ZM107.365 29.6593H110.684V34.486H107.365V29.6593ZM105.555 59.8274H112.494V27.2456H105.555V59.8274Z" fill="#900002"/>
<path fill-rule="evenodd" clip-rule="evenodd" d="M82.929 15.1785H82.3257V15.4801H82.0238V15.7819H81.4206V16.0835H80.8173V16.3851H80.5154V16.6868H79.9121V16.9886H79.3089V17.2903H79.007V17.5919H78.4037V17.8935H77.8003V18.1952H77.4986V18.497H76.8953V18.7987H76.2919V19.1003H75.9902V19.402H75.3869V19.7036H74.7835V20.0054H74.4818V20.3071H73.8784V20.6087H73.2751V20.9104H72.9734V21.2121H72.3701V21.5138H72.0685V21.8155H71.465V22.7205H73.2751V22.4189H73.8784V22.1171H74.4818V21.8155H74.7835V21.5138H75.3869V21.2121H75.9902V20.9104H76.2919V20.6087H76.8953V20.3071H77.4986V20.0054H78.102V19.7036H78.4037V19.402H79.007V19.1003H79.6105V18.7987H79.9121V18.497H80.5154V18.1952H81.1188V17.8935H81.7222V17.5919H82.0238V17.2903H82.6273V16.9886H84.1357V17.2903H84.739V17.5919H85.0407V17.8935H85.6441V18.1952H86.2474V18.497H86.8509V18.7987H87.1525V19.1003H87.7558V19.402H88.3592V19.7036H88.9626V20.0054H89.5659V20.3071H89.8677V20.6087H90.471V20.9104H91.0743V21.2121H91.6778V21.5138H91.9794V21.8155H92.5827V22.1171H93.1862V22.4189H93.4878V22.7205H95.2979V21.5138H94.6946V21.2121H94.0911V20.9104H93.4878V20.6087H93.1862V20.3071H92.5827V20.0054H91.9794V19.7036H91.6778V19.402H91.0743V19.1003H90.471V18.7987H89.8677V18.497H89.5659V18.1952H88.9626V17.8935H88.3592V17.5919H88.0575V17.2903H87.4542V16.9886H86.8509V16.6868H86.2474V16.3851H85.9458V16.0835H85.3425V15.7819H84.739V15.4801H84.1357V15.1785H83.8341V14.8767H82.929V15.1785Z" fill="#900002"/>
<path fill-rule="evenodd" clip-rule="evenodd" d="M70.5599 58.9223H96.203V57.4139H70.5599V58.9223Z" fill="#FCFEFE"/>
<path fill-rule="evenodd" clip-rule="evenodd" d="M73.2751 56.5089H93.7895V55.0005H73.2751V56.5089Z" fill="#FCFEFE"/>
<path fill-rule="evenodd" clip-rule="evenodd" d="M76.8952 47.1567H76.5936V47.7602H76.2919V53.4922H79.6105V47.7602H79.3089V47.1567H78.7054V46.855H76.8952V47.1567Z" fill="#FCFEFE"/>
<path fill-rule="evenodd" clip-rule="evenodd" d="M82.3257 47.1567H82.0238V47.7602H81.7222V53.4922H85.0407V47.7602H84.739V47.4584H84.4374V47.1567H84.1357V46.855H82.3257V47.1567Z" fill="#FCFEFE"/>
<path fill-rule="evenodd" clip-rule="evenodd" d="M82.3257 28.7541H82.0238V29.3574H81.7222V35.0894H85.0407V29.3574H84.739V29.0558H84.4374V28.7541H84.1357V28.4524H82.3257V28.7541Z" fill="#FCFEFE"/>
<path fill-rule="evenodd" clip-rule="evenodd" d="M76.8952 28.7541H76.5936V29.3574H76.2919V35.0894H79.6105V29.3574H79.3089V29.0558H79.007V28.7541H78.7054V28.4524H76.8952V28.7541Z" fill="#FCFEFE"/>
<path fill-rule="evenodd" clip-rule="evenodd" d="M88.0575 47.1567H87.7558V47.4584H87.4542V47.7602H87.1524V53.1903H87.4542V53.4922H90.471V47.7602H90.1694V47.1567H89.8676V46.855H88.0575V47.1567Z" fill="#FCFEFE"/>
<path fill-rule="evenodd" clip-rule="evenodd" d="M88.0575 28.7541H87.7558V29.0558H87.4542V29.3574H87.1524V34.7877H87.4542V35.0894H90.471V29.3574H90.1694V28.7541H89.8676V28.4524H88.0575V28.7541Z" fill="#FCFEFE"/>
<path fill-rule="evenodd" clip-rule="evenodd" d="M82.6273 37.8045H82.3257V38.1062H82.0238V38.408H81.7222V44.14H85.0407V38.7096H84.739V38.1062H84.4374V37.8045H84.1357V37.5029H82.6273V37.8045Z" fill="#FCFEFE"/>
<path fill-rule="evenodd" clip-rule="evenodd" d="M77.197 37.8045H76.8952V38.1062H76.5936V38.408H76.2919V44.14H79.6105V38.7096H79.3089V38.1062H79.007V37.8045H78.7054V37.5029H77.197V37.8045Z" fill="#FCFEFE"/>
<path fill-rule="evenodd" clip-rule="evenodd" d="M88.3592 37.8045H87.7558V38.1062H87.4542V38.7096H87.1524V44.14H90.471V38.408H90.1694V38.1062H89.8676V37.8045H89.5659V37.5029H88.3592V37.8045Z" fill="#FCFEFE"/>
<path fill-rule="evenodd" clip-rule="evenodd" d="M82.3257 21.8154H81.7222V22.117H81.4206V22.7204H81.1188V25.1338H81.4206V25.4355H81.7222V25.7371H82.3257V26.0391H84.4374V25.7371H84.739V25.4355H85.0407V25.1338H85.3425V24.8322H85.6441V23.0221H85.3425V22.4188H85.0407V22.117H84.739V21.8154H84.4374V21.5137H82.3257V21.8154Z" fill="#FCFEFE"/>
<path fill-rule="evenodd" clip-rule="evenodd" d="M69.9566 52.2855H73.2751V47.4585H69.9566V52.2855Z" fill="#FCFEFE"/>
<path fill-rule="evenodd" clip-rule="evenodd" d="M107.365 34.4859H110.684V29.6592H107.365V34.4859Z" fill="#FCFEFE"/>
<path fill-rule="evenodd" clip-rule="evenodd" d="M69.9566 43.2348H73.2751V38.408H69.9566V43.2348Z" fill="#FCFEFE"/>
<path fill-rule="evenodd" clip-rule="evenodd" d="M107.365 43.2348H110.684V38.408H107.365V43.2348Z" fill="#FCFEFE"/>
<path fill-rule="evenodd" clip-rule="evenodd" d="M107.365 52.2855H110.684V47.4585H107.365V52.2855Z" fill="#FCFEFE"/>
<path fill-rule="evenodd" clip-rule="evenodd" d="M69.9566 34.4859H73.2751V29.6592H69.9566V34.4859Z" fill="#FCFEFE"/>
<path fill-rule="evenodd" clip-rule="evenodd" d="M93.4878 52.2855H96.8063V47.4585H93.4878V52.2855Z" fill="#FCFEFE"/>
<path fill-rule="evenodd" clip-rule="evenodd" d="M93.4878 34.4859H96.8063V29.6592H93.4878V34.4859Z" fill="#FCFEFE"/>
<path fill-rule="evenodd" clip-rule="evenodd" d="M56.0793 52.2855H59.3977V47.4585H56.0793V52.2855Z" fill="#FCFEFE"/>
<path fill-rule="evenodd" clip-rule="evenodd" d="M93.4878 43.2348H96.8063V38.408H93.4878V43.2348Z" fill="#FCFEFE"/>
<path fill-rule="evenodd" clip-rule="evenodd" d="M56.0793 34.4859H59.3977V29.6592H56.0793V34.4859Z" fill="#FCFEFE"/>
<path fill-rule="evenodd" clip-rule="evenodd" d="M56.0793 43.2348H59.3977V38.408H56.0793V43.2348Z" fill="#FCFDFE"/>
<path fill-rule="evenodd" clip-rule="evenodd" d="M98.9182 34.4859H102.237V29.9608H101.935V29.6592H98.9182V34.4859Z" fill="#FCFDFE"/>
<path fill-rule="evenodd" clip-rule="evenodd" d="M64.828 52.2855H67.8448V51.9837H68.1464V47.4585H64.828V52.2855Z" fill="#FCFEFE"/>
<path fill-rule="evenodd" clip-rule="evenodd" d="M98.9182 52.2855H101.935V51.9837H102.237V47.4585H98.9182V52.2855Z" fill="#FCFDFE"/>
<path fill-rule="evenodd" clip-rule="evenodd" d="M64.828 43.2348H68.1464V38.7096H67.8448V38.408H64.828V43.2348Z" fill="#FCFDFE"/>
<path fill-rule="evenodd" clip-rule="evenodd" d="M98.9182 43.2348H102.237V38.7096H101.935V38.408H98.9182V43.2348Z" fill="#FCFDFE"/>
<path fill-rule="evenodd" clip-rule="evenodd" d="M64.828 34.4859H68.1464V29.9608H67.8448V29.6592H64.828V34.4859Z" fill="#FCFDFE"/>
<path fill-rule="evenodd" clip-rule="evenodd" d="M79.007 73.7048H78.7054V75.5149H79.007V75.8165H79.3089V76.1184H80.2138V75.8165H80.8172V75.2133H81.1188V73.7048H80.8172V73.4032H80.5154V73.1016H79.007V73.7048Z" fill="#900002"/>
<path fill-rule="evenodd" clip-rule="evenodd" d="M85.3425 73.4032H85.0407V75.5149H85.3425V75.8165H85.6441V76.1184H86.5491V75.8165H87.1524V75.2133H87.4542V74.0065H87.1524V73.4032H86.8509V73.1016H85.3425V73.4032Z" fill="#900002"/>
<path fill-rule="evenodd" clip-rule="evenodd" d="M79.3089 69.7829H79.007V70.0846H78.7054V71.5931H79.007V71.8947H79.3089V72.1963H80.5154V71.8947H80.8172V69.7829H80.5154V69.4812H79.3089V69.7829Z" fill="#900002"/>
<path fill-rule="evenodd" clip-rule="evenodd" d="M85.6441 69.7829H85.3425V70.0846H85.0407V71.5931H85.3425V71.8947H85.6441V72.1963H86.8509V71.8947H87.1524V69.7829H86.8509V69.4812H85.6441V69.7829Z" fill="#900002"/>
<path fill-rule="evenodd" clip-rule="evenodd" d="M82.929 0C95.2838 0 106.47 5.00834 114.567 13.1051C122.664 21.2021 127.672 32.3883 127.672 44.7432C127.672 57.0984 122.664 68.2843 114.567 76.3813C106.47 84.4782 95.2838 89.4863 82.929 89.4863C70.5736 89.4863 59.3878 84.4782 51.2909 76.3813C43.1941 68.2843 38.1858 57.0984 38.1858 44.7432C38.1858 32.3883 43.1941 21.2021 51.2909 13.1051C59.3878 5.00834 70.5736 0 82.929 0ZM110.558 17.1138C103.488 10.0434 93.7187 5.66927 82.929 5.66927C72.1387 5.66927 62.3698 10.0434 55.2994 17.1138C48.2291 24.184 43.855 33.9534 43.855 44.7432C43.855 55.5334 48.2291 65.3023 55.2994 72.3727C62.3698 79.443 72.1387 83.8171 82.929 83.8171C93.7187 83.8171 103.488 79.443 110.558 72.3727C117.629 65.3023 122.003 55.5334 122.003 44.7432C122.003 33.9534 117.629 24.184 110.558 17.1138Z" fill="black"/>
<path d="M75.5273 67.9011V75.6587H74.5879V68.886H74.5424L72.6485 70.1435V69.189L74.5879 67.9011H75.5273ZM80.2432 75.7648C79.723 75.7648 79.2634 75.6726 78.8644 75.4882C78.4679 75.3014 78.1586 75.0451 77.9364 74.7193C77.7142 74.391 77.6043 74.0173 77.6068 73.5981C77.6043 73.2698 77.6687 72.9668 77.8 72.689C77.9313 72.4087 78.1106 72.1751 78.3379 71.9882C78.5677 71.7988 78.824 71.6789 79.1068 71.6284V71.5829C78.7356 71.487 78.4402 71.2786 78.2205 70.9579C78.0008 70.6347 77.8922 70.2673 77.8947 69.8557C77.8922 69.4617 77.9919 69.1094 78.1939 68.7988C78.396 68.4882 78.6737 68.2433 79.0273 68.064C79.3833 67.8847 79.7886 67.7951 80.2432 67.7951C80.6927 67.7951 81.0942 67.8847 81.4477 68.064C81.8013 68.2433 82.079 68.4882 82.2811 68.7988C82.4856 69.1094 82.5892 69.4617 82.5917 69.8557C82.5892 70.2673 82.4768 70.6347 82.2546 70.9579C82.0349 71.2786 81.7432 71.487 81.3796 71.5829V71.6284C81.6599 71.6789 81.9124 71.7988 82.1371 71.9882C82.3619 72.1751 82.5412 72.4087 82.675 72.689C82.8088 72.9668 82.877 73.2698 82.8796 73.5981C82.877 74.0173 82.7634 74.391 82.5386 74.7193C82.3164 75.0451 82.0071 75.3014 81.6106 75.4882C81.2167 75.6726 80.7609 75.7648 80.2432 75.7648ZM80.2432 74.9314C80.5942 74.9314 80.8972 74.8746 81.1523 74.761C81.4073 74.6473 81.6043 74.487 81.7432 74.2799C81.8821 74.0728 81.9528 73.8304 81.9553 73.5526C81.9528 73.2597 81.877 73.0009 81.728 72.7761C81.579 72.5514 81.3758 72.3746 81.1182 72.2458C80.8631 72.117 80.5715 72.0526 80.2432 72.0526C79.9124 72.0526 79.6169 72.117 79.3568 72.2458C79.0993 72.3746 78.896 72.5514 78.747 72.7761C78.6005 73.0009 78.5285 73.2597 78.5311 73.5526C78.5285 73.8304 78.5955 74.0728 78.7318 74.2799C78.8707 74.487 79.0689 74.6473 79.3265 74.761C79.5841 74.8746 79.8897 74.9314 80.2432 74.9314ZM80.2432 71.2496C80.521 71.2496 80.7672 71.194 80.9818 71.0829C81.199 70.9718 81.3695 70.8165 81.4932 70.617C81.6169 70.4175 81.6801 70.1839 81.6826 69.9163C81.6801 69.6536 81.6182 69.4251 81.497 69.2307C81.3758 69.0337 81.2078 68.8822 80.9932 68.7761C80.7785 68.6675 80.5285 68.6132 80.2432 68.6132C79.9528 68.6132 79.699 68.6675 79.4818 68.7761C79.2647 68.8822 79.0967 69.0337 78.978 69.2307C78.8594 69.4251 78.8013 69.6536 78.8038 69.9163C78.8013 70.1839 78.8606 70.4175 78.9818 70.617C79.1056 70.8165 79.276 70.9718 79.4932 71.0829C79.7104 71.194 79.9604 71.2496 80.2432 71.2496ZM86.8161 75.7648C86.2959 75.7648 85.8363 75.6726 85.4373 75.4882C85.0409 75.3014 84.7315 75.0451 84.5093 74.7193C84.2871 74.391 84.1772 74.0173 84.1797 73.5981C84.1772 73.2698 84.2416 72.9668 84.3729 72.689C84.5042 72.4087 84.6835 72.1751 84.9108 71.9882C85.1406 71.7988 85.3969 71.6789 85.6797 71.6284V71.5829C85.3085 71.487 85.0131 71.2786 84.7934 70.9579C84.5737 70.6347 84.4651 70.2673 84.4676 69.8557C84.4651 69.4617 84.5648 69.1094 84.7669 68.7988C84.9689 68.4882 85.2467 68.2433 85.6002 68.064C85.9563 67.8847 86.3616 67.7951 86.8161 67.7951C87.2656 67.7951 87.6671 67.8847 88.0207 68.064C88.3742 68.2433 88.652 68.4882 88.854 68.7988C89.0585 69.1094 89.1621 69.4617 89.1646 69.8557C89.1621 70.2673 89.0497 70.6347 88.8275 70.9579C88.6078 71.2786 88.3161 71.487 87.9525 71.5829V71.6284C88.2328 71.6789 88.4853 71.7988 88.71 71.9882C88.9348 72.1751 89.1141 72.4087 89.2479 72.689C89.3818 72.9668 89.4499 73.2698 89.4525 73.5981C89.4499 74.0173 89.3363 74.391 89.1116 74.7193C88.8893 75.0451 88.58 75.3014 88.1835 75.4882C87.7896 75.6726 87.3338 75.7648 86.8161 75.7648ZM86.8161 74.9314C87.1671 74.9314 87.4701 74.8746 87.7252 74.761C87.9802 74.6473 88.1772 74.487 88.3161 74.2799C88.455 74.0728 88.5257 73.8304 88.5282 73.5526C88.5257 73.2597 88.4499 73.0009 88.301 72.7761C88.152 72.5514 87.9487 72.3746 87.6911 72.2458C87.4361 72.117 87.1444 72.0526 86.8161 72.0526C86.4853 72.0526 86.1898 72.117 85.9297 72.2458C85.6722 72.3746 85.4689 72.5514 85.3199 72.7761C85.1734 73.0009 85.1015 73.2597 85.104 73.5526C85.1015 73.8304 85.1684 74.0728 85.3047 74.2799C85.4436 74.487 85.6419 74.6473 85.8994 74.761C86.157 74.8746 86.4626 74.9314 86.8161 74.9314ZM86.8161 71.2496C87.0939 71.2496 87.3401 71.194 87.5547 71.0829C87.7719 70.9718 87.9424 70.8165 88.0661 70.617C88.1898 70.4175 88.253 70.1839 88.2555 69.9163C88.253 69.6536 88.1911 69.4251 88.0699 69.2307C87.9487 69.0337 87.7808 68.8822 87.5661 68.7761C87.3515 68.6675 87.1015 68.6132 86.8161 68.6132C86.5257 68.6132 86.2719 68.6675 86.0547 68.7761C85.8376 68.8822 85.6696 69.0337 85.551 69.2307C85.4323 69.4251 85.3742 69.6536 85.3767 69.9163C85.3742 70.1839 85.4335 70.4175 85.5547 70.617C85.6785 70.8165 85.8489 70.9718 86.0661 71.0829C86.2833 71.194 86.5333 71.2496 86.8161 71.2496ZM93.3284 75.7648C92.884 75.7648 92.4837 75.6764 92.1277 75.4996C91.7716 75.3228 91.4862 75.0804 91.2716 74.7723C91.057 74.4642 90.9395 74.1132 90.9193 73.7193H91.8284C91.8638 74.0703 92.0229 74.3607 92.3057 74.5905C92.591 74.8178 92.932 74.9314 93.3284 74.9314C93.6466 74.9314 93.9294 74.8569 94.1769 74.7079C94.4269 74.5589 94.6226 74.3544 94.764 74.0943C94.908 73.8317 94.9799 73.535 94.9799 73.2041C94.9799 72.8658 94.9054 72.564 94.7565 72.2988C94.61 72.0312 94.408 71.8203 94.1504 71.6663C93.8928 71.5122 93.5986 71.4339 93.2678 71.4314C93.0304 71.4289 92.7868 71.4655 92.5368 71.5413C92.2868 71.6145 92.0809 71.7092 91.9193 71.8254L91.0405 71.7193L91.5102 67.9011H95.5405V68.7344H92.2981L92.0254 71.0223H92.0708C92.2299 70.8961 92.4294 70.7913 92.6693 70.7079C92.9092 70.6246 93.1592 70.5829 93.4193 70.5829C93.8941 70.5829 94.3171 70.6966 94.6883 70.9238C95.062 71.1486 95.3549 71.4567 95.5671 71.8481C95.7817 72.2395 95.889 72.6865 95.889 73.189C95.889 73.6839 95.7779 74.1259 95.5557 74.5148C95.336 74.9011 95.033 75.2067 94.6466 75.4314C94.2602 75.6536 93.8208 75.7648 93.3284 75.7648Z" fill="white"/>
</svg>
