<?xml version="1.0" standalone="no"?>
<!DOCTYPE svg PUBLIC "-//W3C//DTD SVG 20010904//EN"
 "http://www.w3.org/TR/2001/REC-SVG-20010904/DTD/svg10.dtd">
<svg version="1.0" xmlns="http://www.w3.org/2000/svg"
 width="1000.000000pt" height="1000.000000pt" viewBox="0 0 1000.000000 1000.000000"
 preserveAspectRatio="xMidYMid meet">

<g transform="translate(0.000000,1000.000000) scale(0.100000,-0.100000)"
fill="#000000" stroke="none">
<path d="M5820 9928 c0 -6 -11 -26 -25 -43 -13 -18 -21 -35 -18 -39 4 -3 0 -6
-9 -6 -8 0 -28 -26 -44 -57 -16 -32 -35 -62 -41 -66 -7 -4 -13 -14 -13 -21 0
-7 -9 -21 -20 -31 -11 -10 -20 -24 -20 -32 0 -7 -4 -13 -10 -13 -5 0 -10 -7
-10 -15 0 -11 13 -15 50 -16 28 -1 55 -3 60 -4 6 -1 15 -3 20 -4 13 -1 13 -71
1 -71 -10 0 -16 -25 -26 -107 -5 -36 -3 -53 4 -53 6 0 11 8 11 18 0 11 9 27
20 37 11 10 20 22 20 27 0 5 20 36 45 68 25 32 45 62 45 67 0 5 14 23 30 41
17 18 30 40 30 48 0 8 5 14 10 14 6 0 10 7 10 15 0 12 -13 15 -60 15 -33 0
-60 4 -60 10 0 6 -6 10 -14 10 -14 0 -12 35 3 75 21 52 32 96 26 104 -3 5 -1
12 5 16 15 9 12 25 -5 25 -8 0 -15 -5 -15 -12z"/>
<path d="M4850 9530 c-154 -79 -244 -120 -259 -120 -6 0 -11 -4 -11 -10 0 -5
-7 -10 -15 -10 -8 0 -15 -4 -15 -10 0 -5 -7 -10 -15 -10 -21 0 -95 -33 -95
-42 0 -5 -8 -8 -18 -8 -10 0 -23 -5 -30 -12 -7 -7 -12 -9 -12 -4 0 4 -14 -1
-31 -11 -26 -15 -30 -22 -25 -48 9 -44 25 -49 84 -28 15 6 16 -25 2 -62 -13
-33 -118 -145 -137 -145 -7 0 -13 -5 -13 -10 0 -6 -18 -17 -40 -26 -22 -9 -40
-20 -40 -25 0 -5 -8 -9 -18 -9 -10 0 -26 -6 -37 -14 -11 -8 -40 -20 -65 -27
-25 -7 -50 -16 -55 -20 -6 -4 -50 -11 -98 -15 -48 -4 -90 -11 -93 -15 -7 -12
-71 -11 -79 1 -3 6 -27 10 -53 10 -58 0 -68 6 -77 50 -13 57 -24 69 -58 59
-17 -5 -35 -13 -41 -19 -5 -5 -17 -10 -26 -10 -8 0 -27 -6 -42 -14 -15 -8 -52
-22 -82 -30 -43 -13 -56 -21 -56 -36 0 -10 4 -21 9 -24 5 -3 12 -22 15 -41 4
-19 10 -35 14 -35 9 0 32 -72 32 -100 0 -11 4 -20 9 -20 5 0 12 -13 16 -30 4
-16 10 -30 14 -30 5 0 14 -27 21 -60 7 -33 16 -60 21 -60 4 0 11 -16 15 -35 3
-19 10 -38 15 -41 5 -3 9 -16 9 -30 0 -13 5 -24 10 -24 6 0 10 -7 10 -15 0 -8
4 -23 10 -33 44 -80 48 -122 13 -122 -10 0 -29 -7 -41 -16 -24 -16 -58 -12
-47 6 3 6 0 13 -8 16 -8 3 -18 13 -21 22 -16 47 -96 132 -125 132 -12 0 -21 4
-21 9 0 7 -25 19 -52 25 -3 0 -10 4 -14 9 -11 11 -132 8 -139 -3 -4 -6 -12
-10 -18 -9 -7 1 -20 -1 -30 -6 -9 -4 -29 -4 -45 1 -15 4 -30 7 -34 6 -5 -1 -8
2 -8 8 0 17 -44 11 -67 -9 -18 -15 -23 -30 -23 -63 0 -38 -5 -48 -45 -87 -25
-24 -45 -50 -45 -57 0 -8 -4 -14 -9 -14 -13 0 -31 -57 -31 -96 0 -19 -4 -34
-10 -34 -5 0 -10 -7 -10 -15 0 -8 5 -15 10 -15 6 0 10 -20 10 -44 0 -44 14
-96 29 -106 4 -3 15 -20 24 -39 16 -32 16 -34 -6 -57 -12 -13 -26 -24 -31 -24
-7 0 -92 -66 -157 -124 -15 -12 -19 -12 -33 2 -19 19 -44 9 -61 -24 -23 -43
-24 -44 -62 -19 -20 14 -42 25 -50 25 -16 0 -62 -49 -63 -67 0 -22 -25 -14
-56 17 -37 37 -64 39 -64 5 0 -14 5 -25 11 -25 6 0 17 -6 24 -12 8 -7 22 -19
30 -26 15 -13 15 -16 0 -32 -18 -20 -45 -16 -45 6 0 8 -5 14 -12 14 -6 0 -19
7 -28 15 -15 14 -18 14 -30 0 -17 -21 -7 -40 29 -56 24 -11 31 -20 31 -41 0
-31 -20 -37 -44 -13 -8 8 -19 15 -24 15 -5 0 -15 7 -22 15 -9 11 -16 12 -26 4
-17 -14 -13 -48 7 -54 9 -3 26 -16 38 -29 19 -20 20 -24 6 -36 -13 -10 -19
-10 -33 1 -48 39 -102 52 -102 24 0 -8 10 -20 22 -26 13 -7 28 -18 35 -25 7
-7 18 -14 25 -16 17 -6 2 -38 -19 -38 -10 0 -31 11 -47 25 -17 14 -37 24 -45
23 -20 -4 -28 -48 -9 -48 20 -1 58 -36 58 -54 0 -27 -31 -32 -49 -9 -24 31
-58 38 -78 17 -14 -14 -15 -18 -4 -22 7 -2 28 -18 47 -34 27 -24 32 -33 23
-44 -16 -19 -26 -18 -46 6 -10 11 -23 20 -29 20 -7 0 -14 6 -17 13 -3 9 -7 9
-20 -2 -21 -17 -22 -41 -2 -41 8 0 15 -4 15 -8 0 -5 11 -14 25 -20 26 -12 31
-27 15 -52 -7 -12 -16 -9 -54 18 -25 18 -50 30 -56 27 -16 -10 -12 -55 5 -55
8 0 15 -3 15 -8 0 -4 10 -12 23 -17 12 -6 22 -17 22 -25 0 -25 -44 -23 -80 4
-30 23 -34 24 -46 10 -11 -14 -10 -18 6 -30 43 -31 55 -45 55 -63 0 -30 -17
-34 -40 -11 -11 11 -26 20 -33 20 -7 0 -18 5 -24 11 -13 13 -33 4 -33 -14 1
-7 19 -25 40 -42 43 -33 48 -46 24 -66 -14 -11 -20 -10 -40 14 -28 33 -84 48
-84 23 0 -9 5 -16 10 -16 6 0 10 -5 10 -11 0 -15 22 -35 49 -44 l23 -7 -20
-21 c-19 -19 -24 -19 -47 -7 -14 7 -25 19 -25 26 0 12 -35 26 -44 16 -17 -16
-3 -48 27 -62 39 -18 51 -60 17 -60 -12 0 -35 11 -52 25 -16 14 -36 25 -44 25
-14 0 -21 -50 -6 -50 4 -1 19 -11 34 -23 l27 -22 -19 -40 c-25 -52 -25 -59 5
-75 34 -18 38 -69 9 -102 -11 -11 -14 -24 -9 -35 12 -26 6 -56 -16 -75 -16
-16 -44 -18 -272 -18 l-254 0 -41 -30 c-23 -16 -54 -49 -69 -72 l-28 -41 -3
-224 -3 -223 -340 0 -340 0 -53 -53 c-42 -41 -55 -63 -61 -95 -9 -57 2 -137
27 -192 11 -25 24 -56 29 -70 4 -14 46 -119 94 -235 47 -115 138 -340 201
-498 l116 -288 -51 -127 c-28 -70 -101 -251 -162 -402 -61 -151 -122 -302
-134 -335 -13 -33 -44 -109 -69 -170 -39 -94 -46 -120 -46 -178 0 -96 30 -151
102 -188 35 -18 68 -19 649 -19 592 0 614 1 654 20 23 11 52 35 66 52 22 30
24 43 27 166 3 100 7 132 17 132 7 0 44 -64 83 -143 420 -849 1158 -1519 2047
-1856 279 -106 553 -174 895 -222 128 -18 759 -19 885 -1 489 69 854 180 1265
387 688 346 1268 914 1629 1595 l66 125 5 -75 c7 -88 31 -129 95 -160 40 -19
62 -20 648 -20 524 0 613 2 644 15 81 34 115 93 112 196 -2 58 -10 89 -46 177
-25 59 -55 134 -68 167 -13 33 -58 148 -102 255 -44 107 -117 288 -162 402
l-84 207 48 118 c26 65 51 119 56 121 4 2 5 10 2 18 -3 8 0 14 6 14 6 0 11 9
11 20 0 11 5 20 11 20 6 0 9 7 5 15 -3 8 -2 15 3 15 5 0 11 14 15 31 3 18 24
77 47 133 262 647 259 639 259 715 0 89 -15 127 -70 174 l-44 37 -343 0 -343
0 0 210 c0 229 -5 258 -58 313 -62 66 -65 66 -330 68 -133 0 -251 3 -261 6
-17 4 -26 20 -29 47 0 5 -5 12 -11 15 -6 4 -14 21 -17 39 -5 25 -3 33 12 39
11 4 37 23 59 44 22 20 78 72 126 115 47 44 97 88 112 98 15 10 27 26 27 35 0
9 -30 48 -68 88 -37 40 -96 106 -132 148 -36 41 -71 82 -78 90 -7 8 -19 18
-27 22 -7 5 -15 14 -17 22 -2 7 -27 36 -55 63 -29 28 -50 54 -47 59 3 5 -2 9
-10 9 -9 0 -16 7 -16 15 0 8 -7 15 -15 15 -8 0 -15 7 -15 15 0 7 -6 18 -13 22
-6 4 -27 26 -46 48 -18 22 -56 63 -82 92 -27 28 -49 55 -49 58 0 4 -25 31 -55
60 -30 28 -55 54 -55 58 0 3 -27 33 -60 67 -33 34 -60 65 -60 69 0 4 -24 33
-52 63 -29 30 -73 79 -98 108 -25 29 -62 72 -82 95 -21 23 -38 47 -38 54 0 6
-7 11 -15 11 -8 0 -15 4 -15 9 0 5 -20 29 -45 53 -24 24 -45 46 -45 50 0 4
-17 23 -37 42 l-38 35 -35 -27 c-19 -15 -55 -46 -80 -69 -24 -24 -48 -43 -53
-43 -12 0 -37 -27 -37 -39 0 -6 -5 -11 -11 -11 -5 0 -30 -20 -55 -45 -32 -33
-52 -45 -73 -45 -34 0 -81 19 -81 32 0 5 -11 13 -25 18 -14 5 -25 16 -25 23 0
8 11 20 25 27 14 7 25 18 25 24 0 6 16 22 36 36 20 13 43 34 51 47 9 13 24 23
34 23 11 0 19 7 19 15 0 8 3 15 8 15 4 0 32 25 62 56 30 30 66 59 79 65 13 5
21 12 18 15 -5 6 83 88 213 199 46 39 98 85 116 103 18 17 38 32 44 32 5 0 10
8 10 18 0 12 13 4 41 -28 23 -25 61 -65 85 -90 24 -25 44 -49 44 -53 0 -3 25
-31 55 -62 30 -30 55 -58 55 -62 0 -5 34 -44 75 -88 68 -72 88 -107 68 -117
-5 -1 -17 -20 -27 -41 -16 -32 -19 -55 -17 -134 3 -100 8 -118 54 -168 15 -16
30 -38 33 -47 3 -10 12 -18 20 -18 8 0 14 -6 14 -13 0 -7 18 -30 40 -52 l40
-39 18 22 c11 12 24 22 31 22 6 0 11 5 11 10 0 11 45 60 54 60 3 0 30 -26 60
-57 47 -49 57 -55 70 -44 20 17 21 41 1 41 -8 0 -15 4 -15 9 0 5 -16 26 -36
46 l-36 37 43 44 c24 24 49 44 57 44 7 0 36 -23 64 -50 53 -53 71 -58 76 -23
2 15 -13 36 -47 68 l-50 47 57 54 c55 52 56 55 42 78 -39 61 -104 138 -124
145 -12 5 -28 16 -35 25 -7 9 -18 16 -23 16 -5 0 -16 7 -24 15 -9 8 -30 15
-48 15 -17 0 -38 6 -44 12 -10 10 -17 10 -32 0 -11 -6 -32 -12 -47 -12 -16 0
-50 -12 -76 -26 l-48 -25 -60 58 c-32 31 -59 61 -59 65 0 4 -22 28 -50 54 -27
25 -49 49 -48 53 2 19 -4 31 -15 31 -13 0 -57 44 -57 56 0 4 -30 38 -67 76
-38 38 -71 78 -75 89 -11 29 -40 23 -78 -16 -19 -19 -38 -35 -44 -35 -5 0 -39
-28 -76 -62 -137 -130 -191 -178 -197 -178 -4 0 -41 -33 -83 -72 -42 -40 -105
-100 -141 -133 -36 -33 -89 -82 -118 -110 -30 -27 -69 -57 -86 -67 -32 -16
-35 -16 -74 2 -22 11 -45 20 -51 20 -5 0 -10 5 -10 10 0 6 -39 28 -87 51 -49
22 -96 44 -105 49 -10 6 -25 10 -33 10 -8 0 -15 4 -15 9 0 5 -12 12 -27 16
-46 11 -52 21 -40 68 6 23 13 44 17 47 3 3 12 25 19 50 7 25 17 50 21 55 4 6
11 25 15 43 3 17 10 32 13 32 8 0 32 72 32 95 0 8 5 15 10 15 6 0 10 8 10 18
0 10 6 26 14 37 7 11 21 49 30 85 9 36 20 66 26 68 5 2 10 14 10 27 0 13 7 30
15 39 8 8 15 18 15 23 0 13 -50 40 -90 48 -19 4 -37 11 -40 14 -8 11 -120 51
-141 51 -10 0 -19 -5 -19 -12 0 -6 -7 -28 -17 -49 -17 -38 -39 -49 -104 -49
-15 0 -31 -4 -34 -10 -8 -12 -82 -13 -89 -2 -3 5 -42 12 -87 15 -45 4 -87 10
-93 15 -6 5 -31 14 -56 21 -58 15 -120 42 -120 51 0 5 -12 11 -27 15 -30 7
-113 64 -113 77 0 4 -7 8 -15 8 -8 0 -20 10 -26 23 -6 12 -19 31 -29 42 -22
26 -41 81 -34 100 5 12 11 13 39 1 39 -17 53 -10 61 30 5 28 3 31 -68 66 -133
66 -243 117 -265 123 -13 4 -23 11 -23 16 0 5 -5 9 -11 9 -13 0 -75 28 -204
91 -55 27 -105 49 -110 48 -6 -1 -71 -32 -145 -69z m311 -102 c25 -16 56 -28
67 -28 11 0 27 -6 34 -12 7 -7 29 -20 48 -29 19 -9 60 -28 90 -42 30 -14 63
-28 73 -31 13 -4 17 -16 17 -54 0 -41 -3 -48 -20 -49 -11 -1 -20 2 -20 8 0 5
-15 9 -34 9 -19 0 -37 4 -40 8 -3 5 -69 17 -148 27 -79 10 -149 24 -155 31 -9
8 -13 46 -13 113 l0 101 28 -12 c15 -7 48 -25 73 -40z m-203 -60 c2 -83 0 -98
-13 -98 -8 0 -23 -4 -33 -9 -9 -5 -73 -17 -142 -26 -69 -9 -133 -21 -142 -26
-10 -5 -31 -9 -47 -9 -16 0 -31 -5 -33 -12 -2 -6 -12 -9 -21 -5 -18 7 -24 62
-9 83 10 15 119 73 126 67 6 -6 79 37 84 49 2 4 11 8 19 8 14 0 59 21 138 64
17 9 39 15 50 14 18 -3 20 -12 23 -100z m-68 -210 c0 -7 -49 -61 -110 -120
-60 -60 -110 -112 -110 -116 0 -4 -15 -18 -32 -32 -18 -14 -39 -34 -48 -44
-65 -82 -120 -126 -120 -96 0 6 4 10 10 10 6 0 9 62 9 156 0 97 4 161 11 169
6 7 33 16 60 20 28 4 52 11 56 16 3 5 22 9 43 9 21 0 40 3 44 6 3 4 34 8 69
11 35 2 67 8 73 14 13 13 45 11 45 -3z m264 4 c3 -5 54 -15 113 -22 59 -7 113
-16 118 -20 6 -4 30 -11 54 -15 24 -4 49 -12 55 -17 7 -6 10 -37 8 -75 -2 -35
-1 -72 3 -81 4 -9 6 -53 5 -96 -1 -56 2 -81 12 -87 8 -6 9 -9 2 -9 -10 0 -81
66 -120 112 -7 7 -32 31 -58 52 -25 22 -46 43 -46 47 0 5 -25 32 -55 60 -30
29 -52 56 -49 61 3 4 0 8 -6 8 -10 0 -53 39 -79 73 -12 15 -11 17 12 17 14 0
28 -4 31 -8z m-196 -206 l-3 -178 -40 -14 c-22 -7 -54 -14 -72 -14 -17 0 -34
-4 -37 -9 -3 -4 -17 -6 -31 -3 -14 2 -31 0 -38 -6 -6 -5 -52 -15 -102 -22 -49
-6 -94 -15 -100 -21 -5 -5 -13 -9 -17 -9 -22 0 -1 28 77 105 47 47 85 88 85
91 0 14 265 271 273 264 4 -3 6 -86 5 -184z m362 -80 c0 -2 34 -37 76 -77 71
-70 100 -106 92 -114 -2 -2 -22 2 -43 9 -22 8 -70 17 -107 21 -38 3 -68 11
-68 16 0 5 -17 9 -37 9 -54 -1 -122 11 -129 21 -3 5 -14 9 -25 9 -18 0 -19 9
-19 187 l0 186 130 -131 c72 -72 130 -133 130 -136z m-980 125 c0 -20 -107
-134 -171 -182 -56 -42 -165 -71 -245 -66 -93 6 -204 35 -204 53 0 11 21 14
103 15 150 2 160 3 209 30 10 5 23 9 29 9 6 0 26 7 45 15 19 8 51 22 72 31 20
10 39 20 42 23 3 3 19 13 35 21 17 8 39 25 50 37 21 24 35 29 35 14z m1390
-50 c40 -19 71 -38 83 -50 6 -6 21 -11 34 -11 24 0 63 -18 74 -34 4 -5 12 -5
18 -2 6 4 11 2 11 -3 0 -6 13 -11 29 -11 17 0 33 -4 36 -10 4 -6 60 -10 136
-10 97 0 130 -3 127 -12 -2 -6 -24 -18 -49 -25 -24 -8 -58 -18 -75 -23 -38
-13 -169 -13 -192 -1 -9 5 -37 15 -61 22 -24 7 -49 18 -55 24 -6 5 -27 22 -47
37 -44 33 -111 98 -133 130 -25 35 -19 44 12 17 15 -14 38 -31 52 -38z m-1320
27 c-5 -13 -12 -94 -16 -181 -3 -86 -10 -160 -15 -163 -5 -3 -9 -45 -9 -94 0
-52 -4 -92 -11 -95 -6 -4 -8 -13 -5 -20 8 -22 -17 -35 -69 -35 -29 0 -78 -9
-111 -19 -32 -11 -78 -22 -101 -26 -24 -4 -45 -11 -49 -16 -3 -5 -24 -9 -48
-9 -23 0 -47 -5 -52 -10 -6 -6 -28 -11 -49 -13 -37 -2 -39 0 -48 36 -5 20 -13
37 -17 37 -5 0 -11 18 -15 40 -4 22 -11 40 -16 40 -6 0 -8 4 -4 9 3 5 1 12 -4
15 -5 3 -12 22 -16 42 -3 20 -13 43 -21 51 -8 8 -14 23 -14 33 0 10 -5 22 -10
25 -6 4 -8 10 -5 15 3 5 1 11 -5 15 -6 4 -7 11 -4 17 4 6 3 13 -2 17 -15 11
-33 70 -23 77 5 3 29 -4 52 -15 23 -11 61 -23 85 -27 23 -4 45 -11 48 -15 7
-12 151 -12 158 0 3 5 26 12 51 15 25 4 45 11 45 16 0 5 13 11 29 15 15 3 53
28 84 55 30 28 60 50 66 50 6 0 11 5 11 11 0 5 11 22 25 37 14 15 36 42 51 60
30 37 48 42 34 10z m1200 1 c0 -18 191 -203 225 -218 17 -7 38 -17 47 -22 9
-5 35 -12 58 -15 22 -4 43 -11 46 -15 7 -12 151 -11 159 1 3 6 16 10 28 10 12
1 40 9 62 20 22 11 47 19 56 20 9 0 22 7 29 15 7 8 18 15 25 15 10 0 11 -8 2
-37 -6 -21 -14 -40 -17 -43 -15 -14 -30 -53 -30 -79 0 -17 -4 -32 -9 -36 -5
-3 -12 -19 -16 -35 -4 -17 -11 -30 -16 -30 -5 0 -9 -10 -9 -23 0 -12 -9 -40
-20 -62 -11 -21 -23 -54 -26 -72 -3 -18 -10 -33 -14 -33 -4 0 -11 -12 -14 -26
-7 -25 -10 -26 -49 -20 -23 4 -46 11 -51 17 -6 5 -27 9 -48 9 -21 0 -38 4 -38
9 0 5 -29 13 -65 16 -36 4 -65 10 -65 14 0 12 -81 31 -135 31 -30 0 -55 5 -55
10 0 6 -6 10 -14 10 -18 0 -26 44 -26 141 0 43 -4 80 -9 83 -5 3 -12 77 -16
163 -3 87 -9 166 -11 176 -3 9 -1 17 5 17 6 0 11 -5 11 -11z m-2063 -157 c10
-20 16 -45 15 -54 -2 -10 2 -18 7 -18 6 0 11 -11 11 -24 0 -14 7 -31 15 -40 8
-8 15 -23 15 -34 0 -11 6 -25 14 -31 8 -7 12 -21 9 -31 -3 -11 -1 -20 5 -20 5
0 13 -16 16 -35 4 -19 10 -35 15 -35 4 0 13 -25 20 -55 7 -30 16 -55 21 -55 4
0 11 -17 15 -37 4 -21 12 -44 17 -51 6 -7 12 -20 13 -30 2 -21 12 -49 31 -85
7 -16 14 -32 14 -37 0 -5 5 -21 12 -37 6 -15 12 -30 12 -33 1 -3 4 -9 7 -15 4
-5 10 -25 14 -44 4 -19 13 -41 20 -48 7 -7 16 -32 20 -55 4 -23 14 -48 21 -56
8 -7 14 -24 14 -38 0 -13 4 -24 9 -24 4 0 16 -28 26 -62 9 -35 25 -78 36 -95
10 -18 20 -43 21 -55 2 -13 13 -43 25 -68 11 -25 27 -69 34 -97 7 -29 16 -53
21 -53 4 0 7 -3 7 -7 -3 -21 2 -43 14 -55 7 -7 21 -43 31 -81 10 -37 22 -70
27 -73 16 -9 10 -24 -10 -24 -11 0 -21 -5 -23 -10 -2 -6 -21 -11 -43 -13 -35
-2 -40 1 -43 21 -2 12 -7 22 -12 22 -5 0 -7 7 -4 15 4 8 2 15 -4 15 -5 0 -13
15 -16 33 -3 18 -15 51 -26 72 -11 22 -20 50 -20 62 0 13 -4 23 -10 23 -5 0
-10 7 -10 16 0 8 -12 41 -26 72 -15 31 -29 69 -30 85 -2 15 -12 40 -21 54 -20
29 -43 90 -43 111 0 13 -5 26 -40 107 -7 17 -14 35 -15 40 0 6 -6 23 -13 38
-7 16 -12 33 -12 38 0 5 -4 9 -9 9 -8 0 -11 9 -27 88 -3 17 -11 32 -16 32 -5
0 -7 4 -3 10 5 8 -12 48 -26 60 -3 3 -12 30 -19 60 -8 30 -20 62 -27 71 -7 8
-13 23 -13 33 0 10 -6 23 -13 31 -7 7 -19 38 -26 69 -7 31 -16 56 -21 56 -4 0
-11 18 -15 40 -4 22 -11 40 -16 40 -6 0 -8 4 -4 9 3 5 1 12 -4 15 -5 3 -12 22
-16 42 -3 20 -12 46 -20 58 -7 12 -16 37 -20 56 -4 19 -13 45 -21 57 -19 30
-18 62 4 69 9 3 30 12 47 19 35 16 40 14 62 -33z m2959 33 c16 -8 36 -15 45
-15 25 0 41 -25 33 -54 -3 -14 -10 -26 -15 -26 -5 0 -8 -10 -7 -23 1 -13 -6
-41 -16 -63 -9 -21 -22 -50 -28 -64 -6 -14 -14 -33 -20 -43 -5 -10 -6 -22 -3
-27 3 -4 -1 -15 -9 -22 -7 -8 -17 -33 -21 -56 -4 -23 -11 -42 -15 -42 -5 0
-12 -15 -15 -32 -7 -33 -35 -102 -59 -148 -7 -14 -16 -38 -20 -55 -4 -16 -13
-43 -21 -60 -19 -41 -27 -66 -32 -95 -2 -13 -8 -27 -13 -30 -4 -3 -11 -22 -15
-43 -4 -20 -11 -37 -15 -37 -5 0 -11 -15 -15 -32 -4 -18 -13 -42 -20 -54 -8
-12 -17 -37 -20 -58 -4 -20 -11 -36 -15 -36 -4 0 -14 -24 -20 -52 -7 -29 -18
-64 -25 -78 -24 -49 -36 -76 -39 -90 -2 -8 -8 -28 -14 -43 -7 -16 -12 -34 -12
-42 0 -8 -4 -17 -10 -20 -5 -3 -14 -25 -20 -48 -6 -23 -17 -55 -25 -72 -24
-54 -43 -99 -50 -125 -16 -62 -27 -72 -68 -66 -21 4 -48 15 -59 26 -20 18 -20
21 -4 54 9 19 16 40 16 48 1 7 9 31 20 53 11 22 19 48 20 58 0 9 4 17 8 17 4
0 14 21 21 48 8 26 20 56 28 67 7 11 13 27 13 37 0 10 5 18 10 18 6 0 10 13
10 29 0 17 4 32 9 35 5 4 12 24 16 46 4 22 10 40 15 40 9 0 21 33 26 75 2 17
8 31 14 33 5 2 12 19 16 38 3 19 10 34 14 34 4 0 13 25 20 55 7 30 16 55 20
55 4 0 11 16 14 35 4 19 12 35 18 35 6 0 8 9 5 20 -3 11 -1 20 4 20 6 0 9 6 7
13 -1 6 8 34 20 61 12 27 22 52 22 57 0 5 5 9 10 9 6 0 10 14 10 30 0 17 4 38
8 48 5 9 16 32 25 50 9 19 17 40 17 48 0 8 5 14 10 14 6 0 10 11 10 25 0 14 4
33 10 43 21 38 50 112 50 127 0 9 7 29 15 43 28 53 56 124 52 135 -2 7 2 18
10 25 7 7 13 24 13 38 0 28 0 28 36 9z m-1548 -447 c1 -148 0 -268 -2 -268
-16 0 -36 14 -36 26 0 8 -6 14 -14 14 -8 0 -16 5 -18 10 -2 6 -88 95 -191 199
-203 204 -213 221 -132 221 24 0 47 5 50 10 3 6 35 10 70 10 35 0 66 4 69 9 3
5 25 12 48 15 24 3 56 8 71 10 16 2 31 7 35 10 3 4 15 6 27 4 19 -3 20 -10 23
-270z m169 261 c12 0 25 -4 28 -9 3 -6 24 -10 45 -10 21 0 42 -4 45 -10 3 -5
35 -10 70 -10 35 0 67 -4 70 -10 3 -5 23 -10 44 -10 23 0 44 -6 52 -16 11 -13
-17 -44 -204 -232 l-217 -217 0 269 0 268 23 -7 c12 -4 32 -6 44 -6z m-472
-294 c102 -102 185 -189 185 -195 0 -5 6 -10 14 -10 8 0 27 -18 43 -40 15 -22
35 -40 43 -41 22 -2 -57 -19 -120 -26 -30 -3 -59 -9 -65 -13 -5 -4 -39 -11
-75 -14 -36 -4 -69 -11 -75 -15 -5 -5 -35 -11 -65 -14 -30 -3 -69 -9 -87 -13
l-32 -6 5 138 c2 76 7 140 9 143 3 2 5 37 5 77 0 40 5 76 10 79 6 3 10 35 10
71 0 35 2 64 5 64 3 0 88 -83 190 -185z m895 50 c9 -19 26 -259 21 -302 -1
-11 1 -23 6 -26 4 -3 6 -28 4 -57 l-3 -52 -32 7 c-17 3 -56 9 -86 12 -30 3
-59 9 -65 13 -5 4 -39 11 -75 15 -36 4 -70 11 -75 16 -6 4 -37 9 -68 10 -32 1
-60 6 -63 11 -3 4 -14 8 -24 8 -24 0 -16 25 16 55 12 11 31 27 41 37 10 9 101
100 203 203 l185 187 3 -58 c1 -33 6 -68 12 -79z m-2350 -165 c0 -5 6 -10 14
-10 7 0 25 -9 40 -21 14 -11 26 -17 26 -14 0 4 7 2 15 -5 8 -7 12 -16 10 -20
-3 -5 6 -20 20 -34 14 -14 25 -32 25 -41 0 -8 5 -15 10 -15 6 0 10 -7 10 -15
0 -8 4 -15 9 -15 5 0 12 -13 16 -30 4 -16 10 -30 13 -30 4 0 13 -15 21 -32 8
-18 19 -36 25 -40 11 -7 45 -66 87 -148 12 -25 25 -47 28 -50 4 -3 15 -24 26
-47 11 -24 23 -43 28 -43 4 0 7 -11 7 -25 0 -14 4 -25 8 -25 11 0 11 -3 18
-125 5 -82 3 -103 -9 -113 -28 -23 -107 -59 -107 -49 0 6 -8 19 -17 30 -13 15
-15 21 -5 24 18 7 14 36 -8 56 -11 9 -20 24 -20 32 0 8 -4 15 -8 15 -5 0 -15
18 -22 39 -7 22 -19 42 -26 45 -8 3 -14 11 -14 17 0 7 -11 27 -26 46 -14 18
-22 33 -19 33 8 0 -33 69 -52 88 -7 7 -13 18 -13 23 0 5 -10 23 -21 39 -23 30
-20 60 5 60 17 0 56 72 56 104 0 13 -9 35 -21 50 -11 14 -17 26 -13 26 5 0
-12 13 -36 29 -50 31 -85 33 -125 4 -33 -24 -33 -73 2 -143 15 -30 31 -58 36
-61 4 -3 -4 -12 -18 -19 -22 -12 -27 -11 -40 6 -8 10 -15 25 -15 32 0 20 -90
102 -110 102 -28 0 -90 -75 -90 -109 0 -35 26 -86 60 -117 30 -28 94 -32 128
-8 13 9 25 14 26 13 12 -13 46 -91 46 -104 0 -8 6 -15 13 -15 7 0 19 -16 27
-35 8 -19 17 -35 22 -35 4 0 8 -5 8 -12 0 -6 12 -26 26 -45 14 -19 27 -40 28
-46 1 -7 17 -34 36 -62 19 -27 33 -56 32 -63 -4 -17 26 -41 51 -42 10 0 17 -8
17 -19 0 -11 5 -21 12 -23 6 -2 8 -10 4 -16 -9 -16 -85 -52 -107 -52 -19 0
-76 30 -125 67 -17 13 -36 23 -41 23 -6 0 -21 16 -34 35 -13 19 -27 35 -31 35
-5 0 -8 9 -8 20 0 11 -3 20 -7 20 -5 0 -17 20 -28 45 -11 25 -23 45 -27 45 -5
0 -8 5 -8 12 0 6 -11 26 -25 44 -14 18 -25 37 -25 43 0 6 -16 33 -35 60 -19
26 -35 54 -35 60 0 11 -7 22 -37 56 -7 7 -13 18 -13 24 0 11 -20 51 -30 61
-25 25 -43 87 -41 142 1 35 5 65 9 68 10 7 30 40 42 68 5 12 18 25 27 29 31
11 53 35 53 58 0 20 6 23 78 29 42 3 79 11 80 16 5 13 112 13 112 0z m1144
-109 c-1 -27 -4 -53 -7 -57 -2 -5 -8 -74 -12 -154 -4 -80 -10 -149 -15 -155
-4 -5 -13 -120 -20 -255 -7 -135 -17 -249 -21 -255 -5 -5 -9 -29 -10 -55 0
-25 -3 -38 -6 -30 -2 8 -7 22 -10 30 -4 8 -5 18 -5 23 1 4 -2 7 -7 7 -5 0 -7
9 -4 20 3 11 0 20 -6 20 -6 0 -11 8 -11 18 0 10 -6 27 -14 38 -8 11 -17 37
-21 57 -4 20 -11 37 -16 37 -5 0 -6 7 -3 15 4 8 1 15 -5 15 -6 0 -11 7 -11 16
0 8 -10 36 -22 62 -11 26 -24 61 -29 77 -10 42 -33 99 -41 105 -4 3 -8 17 -10
30 -2 14 -9 35 -16 47 -7 12 -12 28 -12 35 0 8 -9 31 -20 53 -11 22 -20 47
-20 57 0 10 -4 18 -9 18 -5 0 -12 19 -16 42 -4 23 -14 48 -21 56 -16 15 -10
32 10 32 8 0 27 7 42 15 16 8 41 15 57 15 15 0 27 4 27 9 0 5 36 14 80 21 44
7 83 16 85 21 3 4 16 6 30 3 13 -2 27 0 30 6 3 5 18 10 33 10 26 0 27 -2 26
-49z m1374 40 c9 -6 64 -17 122 -26 58 -9 109 -21 115 -26 5 -5 16 -9 25 -9 8
0 28 -7 44 -15 15 -8 37 -15 48 -15 18 0 20 -4 14 -32 -4 -18 -11 -34 -16 -36
-6 -2 -10 -15 -10 -28 0 -13 -4 -24 -8 -24 -4 0 -9 -12 -10 -27 -1 -15 -7 -32
-12 -37 -6 -6 -10 -17 -10 -26 0 -8 -8 -31 -19 -50 -10 -19 -22 -51 -26 -70
-4 -19 -14 -44 -21 -55 -8 -11 -14 -27 -14 -37 0 -10 -4 -18 -9 -18 -5 0 -16
-29 -25 -65 -9 -35 -25 -81 -36 -100 -11 -20 -18 -40 -15 -46 4 -5 2 -9 -4 -9
-5 0 -15 -25 -22 -55 -7 -30 -16 -55 -20 -55 -4 0 -11 -15 -14 -32 -4 -18 -12
-38 -17 -45 -5 -7 -7 -17 -3 -23 3 -5 2 -10 -4 -10 -5 0 -14 -12 -19 -27 -10
-28 -10 -28 -11 8 -1 20 -4 39 -7 42 -4 3 -6 49 -5 102 1 55 -2 95 -7 95 -6 0
-13 73 -17 168 -4 92 -11 172 -15 177 -4 6 -13 97 -19 204 -7 107 -14 198 -17
203 -7 11 42 10 64 -1z m2647 -51 c3 -5 15 -10 26 -10 33 0 149 -90 149 -115
0 -7 -12 -23 -27 -37 -16 -14 -64 -60 -109 -102 -44 -42 -86 -76 -92 -76 -7 0
-12 -7 -12 -15 0 -8 -6 -15 -14 -15 -8 0 -16 -5 -18 -12 -6 -17 -75 51 -100
99 -25 45 -28 135 -7 173 28 50 72 90 106 96 18 3 36 10 39 15 7 12 51 11 59
-1z m-5108 -112 c13 -12 23 -27 23 -35 0 -7 5 -13 10 -13 18 0 10 -43 -12 -67
-25 -26 -48 -30 -48 -8 0 8 -4 15 -8 15 -12 0 -35 49 -39 84 -7 48 34 61 74
24z m4181 -37 c8 -20 126 -156 180 -204 17 -17 32 -35 32 -41 0 -6 27 -38 60
-70 33 -33 60 -62 60 -66 0 -4 45 -54 100 -111 54 -57 99 -108 100 -114 0 -5
22 -32 49 -60 78 -79 161 -171 161 -179 0 -7 38 -48 153 -168 31 -32 57 -63
57 -67 0 -4 24 -33 53 -63 28 -30 78 -81 110 -114 31 -33 57 -65 57 -71 0 -5
9 -18 20 -28 21 -19 20 -19 -47 -82 -37 -34 -74 -62 -80 -63 -7 0 -13 -7 -13
-15 0 -8 -3 -15 -7 -15 -5 0 -33 -23 -63 -51 -30 -28 -76 -71 -102 -95 -26
-24 -52 -44 -58 -44 -5 0 -10 -7 -10 -15 0 -8 -5 -15 -11 -15 -6 0 -29 -16
-50 -35 -37 -33 -43 -35 -108 -35 -52 0 -70 4 -75 15 -3 8 -1 15 5 15 6 0 16
6 23 13 7 6 41 37 76 67 35 30 77 70 94 88 16 17 34 32 39 32 5 0 65 52 132
115 68 63 128 115 134 115 22 0 10 42 -19 66 -16 14 -27 30 -24 37 2 7 -8 20
-23 31 -16 10 -45 40 -66 65 -47 57 -96 112 -167 190 -72 78 -80 88 -80 101 0
5 -3 10 -7 10 -11 0 -63 46 -63 55 0 4 -26 34 -57 67 -32 33 -58 63 -58 68 0
11 -104 120 -116 120 -5 0 -9 6 -9 13 0 6 -22 35 -50 62 -27 28 -50 53 -50 57
0 4 -25 32 -55 61 -30 29 -55 56 -55 61 0 4 -24 31 -52 60 -29 30 -68 73 -87
95 -18 23 -37 41 -41 41 -5 0 -28 -20 -52 -45 -24 -24 -51 -45 -60 -45 -10 0
-18 -5 -18 -11 0 -6 -12 -21 -27 -33 -15 -11 -68 -59 -116 -106 -49 -47 -95
-87 -102 -90 -7 -3 -56 -45 -109 -95 -54 -49 -104 -91 -112 -93 -8 -2 -14 -10
-14 -18 0 -8 -4 -14 -8 -14 -5 0 -31 -21 -59 -47 -28 -27 -74 -68 -103 -93
-29 -25 -71 -62 -94 -82 -36 -32 -43 -35 -57 -22 -8 8 -19 14 -23 14 -12 0
-36 27 -36 40 0 12 134 142 154 149 6 2 30 23 54 45 24 23 47 42 52 44 4 2 38
32 76 68 120 114 138 130 189 170 28 21 54 45 59 52 4 8 20 24 34 35 15 12 56
50 93 85 36 34 70 62 75 62 5 0 25 16 44 35 19 19 38 35 42 35 4 0 8 7 8 15 0
8 6 15 13 15 8 0 24 11 37 25 28 30 58 32 68 6z m-3764 -112 c14 -31 26 -64
26 -75 0 -10 7 -28 15 -38 8 -11 15 -28 15 -38 0 -10 4 -18 8 -18 5 0 15 -25
22 -55 7 -30 17 -55 22 -55 5 0 7 -4 3 -10 -3 -5 -1 -17 5 -27 17 -30 33 -77
31 -90 -1 -7 3 -13 9 -13 5 0 10 -7 10 -16 0 -8 9 -36 21 -61 11 -25 23 -61
26 -79 3 -19 9 -34 12 -34 8 0 30 -51 59 -140 20 -59 20 -66 6 -77 -19 -14
-44 -7 -44 13 0 8 -4 14 -10 14 -5 0 -12 17 -15 38 -8 44 -25 83 -44 98 -7 5
-15 32 -18 60 -5 48 -33 94 -58 94 -8 0 -14 39 -19 123 -4 67 -11 124 -16 125
-6 2 -10 11 -10 21 0 9 -8 28 -17 41 -10 14 -17 26 -16 27 5 6 -28 73 -36 73
-5 0 -12 14 -16 30 -4 17 -11 30 -16 30 -5 0 -14 10 -19 23 -5 12 -18 36 -29
52 -29 41 -26 53 12 63 29 7 33 6 44 -17 6 -14 23 -51 37 -82z m1250 89 c-7
-22 -42 -57 -58 -58 -4 0 -6 -7 -3 -15 4 -8 -4 -22 -18 -34 -14 -10 -25 -24
-25 -30 0 -6 -9 -16 -20 -23 -11 -7 -20 -18 -20 -24 0 -6 -11 -21 -25 -34 -14
-13 -25 -28 -25 -34 0 -6 -14 -22 -30 -35 -16 -13 -28 -27 -25 -31 3 -4 -11
-22 -30 -39 -19 -17 -35 -35 -35 -40 0 -9 -26 -43 -67 -88 -13 -13 -23 -26
-23 -30 0 -8 -83 -107 -98 -116 -7 -5 -10 -12 -7 -17 3 -5 -5 -17 -18 -27 -13
-10 -27 -25 -30 -33 -4 -8 -4 62 -1 155 3 94 10 174 15 180 5 5 9 32 9 60 0
27 3 93 6 146 l7 96 61 12 c34 7 75 14 91 15 53 6 109 17 130 27 16 7 165 31
233 38 9 1 11 -6 6 -21z m291 1 c44 -6 87 -14 96 -19 17 -9 128 -26 143 -22 4
2 13 -2 20 -7 6 -5 36 -12 67 -16 l56 -7 7 -96 c3 -54 6 -122 6 -152 0 -31 4
-60 9 -65 5 -6 13 -80 16 -165 7 -152 7 -155 -11 -131 -11 13 -38 45 -61 71
-24 26 -43 52 -43 59 0 6 -7 14 -15 17 -8 4 -15 12 -15 20 0 8 -4 14 -10 14
-9 0 -90 103 -90 115 0 4 -13 18 -30 32 -16 13 -30 29 -30 35 0 6 -15 27 -32
48 -51 57 -68 80 -68 88 0 4 -9 13 -20 20 -12 7 -19 16 -16 21 3 4 -8 21 -24
36 -17 16 -30 33 -30 38 0 4 -13 20 -30 34 -55 46 -37 52 105 32z m1225 -3
c19 -7 50 -19 68 -25 17 -7 32 -17 32 -22 0 -5 4 -9 10 -9 9 0 84 -35 143 -67
24 -12 26 -17 15 -31 -22 -29 -62 -67 -90 -85 -16 -10 -28 -24 -28 -32 0 -8
30 -45 66 -81 l66 -67 -53 -53 c-29 -30 -57 -54 -62 -54 -4 0 -31 -22 -60 -50
-49 -47 -146 -134 -194 -174 -19 -16 -26 -16 -60 -5 -21 6 -55 23 -76 36 -41
26 -71 27 -73 3 -1 -20 -26 -70 -34 -70 -4 0 -10 -12 -13 -28 -3 -15 -15 -38
-26 -51 -12 -13 -21 -30 -21 -38 0 -7 -5 -13 -11 -13 -11 0 -2 40 10 50 4 3 8
16 9 30 0 13 6 36 13 50 28 62 38 88 49 123 7 22 18 51 26 65 8 15 14 37 14
49 0 12 5 23 10 25 6 2 12 14 14 28 1 14 12 46 24 72 12 26 22 54 22 62 0 9 5
16 10 16 6 0 10 14 10 30 0 17 4 30 9 30 5 0 12 17 16 37 4 21 16 50 27 66 11
15 18 34 15 41 -3 8 3 30 14 50 10 20 19 43 19 51 0 8 4 15 9 15 5 0 11 9 14
20 6 23 19 25 67 6z m-3399 -53 c8 -10 25 -37 37 -61 21 -37 22 -44 8 -57 -8
-8 -25 -15 -38 -15 -24 0 -65 37 -60 54 2 6 -3 21 -10 34 -11 22 -10 26 11 43
29 23 34 24 52 2z m1914 -630 c-3 -9 -29 -13 -84 -13 -44 0 -82 -4 -85 -8 -3
-5 -51 -12 -106 -16 -55 -3 -108 -10 -118 -15 -19 -10 -172 -35 -178 -29 -2 2
10 20 26 39 16 19 29 39 30 44 0 6 27 38 60 73 33 35 58 67 55 72 -3 5 3 15
15 22 11 7 20 18 20 25 0 6 14 23 30 36 17 14 30 30 30 35 0 5 11 19 25 32 14
13 25 29 25 35 0 7 11 20 24 31 14 10 23 21 20 25 -2 4 12 21 31 38 19 17 35
36 35 43 0 8 8 21 18 29 9 9 26 29 37 45 11 15 36 46 55 68 l35 39 3 -319 c1
-175 0 -324 -3 -331z m195 531 c0 -7 11 -19 25 -28 14 -9 25 -23 25 -31 0 -7
14 -23 30 -35 17 -12 28 -26 24 -31 -3 -5 6 -19 20 -30 14 -11 26 -25 26 -31
0 -6 11 -21 25 -34 14 -13 25 -27 25 -32 0 -4 14 -21 30 -37 17 -16 30 -34 30
-41 0 -6 11 -19 25 -28 14 -9 25 -23 25 -30 0 -8 7 -16 15 -20 8 -3 15 -11 15
-17 0 -7 27 -43 60 -80 33 -37 60 -72 60 -78 0 -5 8 -15 18 -20 13 -8 14 -10
2 -11 -32 -1 -176 22 -192 31 -9 5 -60 12 -113 15 -53 4 -98 11 -101 15 -3 5
-41 9 -85 9 l-79 0 0 328 1 327 44 -50 c25 -27 45 -55 45 -61z m-1880 -74 c0
-5 7 -16 16 -24 8 -9 16 -25 17 -36 1 -11 5 -20 9 -20 5 0 16 -18 25 -40 10
-22 21 -40 25 -40 5 0 8 -7 8 -15 0 -8 3 -15 8 -15 7 0 17 -15 46 -77 9 -17
20 -34 26 -38 15 -9 12 -41 -5 -55 -13 -11 -18 -10 -31 8 -8 12 -20 27 -28 34
-7 7 -11 18 -9 25 2 6 -4 19 -14 30 -10 10 -28 36 -38 58 -11 22 -26 44 -32
48 -7 4 -13 15 -13 23 0 8 -7 17 -15 20 -8 4 -15 17 -15 30 0 13 -4 24 -10 24
-5 0 -10 5 -10 11 0 6 -10 25 -22 42 -30 42 -31 61 -5 72 19 9 25 5 45 -23 12
-18 22 -37 22 -42z m3547 38 c15 -7 33 -16 38 -20 6 -5 21 -17 35 -27 l25 -19
-31 -29 c-88 -81 -114 -103 -127 -103 -17 0 -60 44 -51 53 3 3 -7 17 -22 31
l-29 26 55 50 c60 54 66 56 107 38z m638 -50 c14 -12 25 -26 25 -31 0 -4 18
-25 40 -44 22 -20 40 -45 40 -55 0 -10 6 -18 13 -19 6 0 35 -26 63 -57 29 -31
77 -84 108 -118 31 -33 56 -64 56 -68 0 -3 20 -27 45 -52 25 -24 45 -49 45
-54 0 -6 7 -10 15 -10 8 0 15 -5 15 -12 0 -6 36 -50 80 -99 44 -48 80 -92 80
-98 0 -6 5 -11 11 -11 11 0 39 -24 39 -34 0 -4 19 -26 43 -51 65 -68 142 -156
146 -167 2 -6 19 -26 38 -46 l35 -36 -69 -66 c-106 -98 -154 -140 -164 -140
-5 0 -9 -7 -9 -15 0 -8 -5 -15 -12 -15 -6 0 -39 -26 -73 -57 -33 -32 -97 -91
-141 -130 l-79 -73 -197 0 c-203 0 -228 3 -228 25 0 8 -13 29 -30 47 -16 18
-30 37 -30 43 0 6 -9 16 -20 23 -11 7 -20 18 -20 26 0 7 -9 21 -20 31 -11 10
-20 21 -20 25 0 4 -25 33 -55 66 -30 32 -55 64 -55 70 0 6 -34 43 -75 83 -41
40 -75 77 -75 82 0 5 -4 9 -9 9 -5 0 -35 27 -67 60 -31 33 -62 60 -69 60 -6 0
-26 16 -45 35 -19 19 -37 35 -40 35 -4 0 -29 20 -56 45 -27 25 -53 45 -59 45
-5 1 -23 12 -40 26 l-30 25 45 41 c25 22 63 58 86 79 22 22 46 39 52 39 7 0
12 7 12 15 0 8 7 15 15 15 8 0 15 7 15 15 0 8 4 15 10 15 5 0 24 16 41 35 18
19 37 35 42 35 6 0 38 26 73 58 34 31 91 82 125 112 34 30 88 79 119 108 31
28 60 52 64 52 3 0 28 22 54 50 26 27 53 49 59 50 7 0 24 -10 38 -22z m-4533
-219 c14 -30 30 -58 35 -64 15 -18 48 -70 60 -95 20 -40 37 -64 56 -78 9 -7
17 -19 17 -25 1 -13 80 -67 99 -67 6 0 14 -7 17 -15 4 -8 10 -15 15 -15 5 0
25 -10 44 -22 29 -20 35 -29 35 -60 0 -21 5 -38 10 -38 6 0 10 -6 10 -14 0 -7
15 -17 32 -22 39 -12 47 -35 16 -49 -12 -6 -29 -23 -38 -40 -19 -34 -38 -38
-54 -12 -9 15 -7 22 10 36 28 22 38 55 22 69 -15 12 -50 -11 -61 -41 -4 -12
-15 -17 -29 -15 -30 4 -26 33 10 71 22 23 24 29 12 37 -22 14 -40 12 -40 -5 0
-8 -6 -15 -14 -15 -8 0 -18 -9 -21 -21 -7 -23 -23 -21 -39 4 -8 12 -5 22 12
40 23 24 29 52 13 61 -13 9 -41 -4 -41 -19 0 -20 -36 -46 -54 -39 -18 7 -22
24 -5 24 6 0 9 7 5 15 -3 8 4 21 15 29 22 15 23 46 1 54 -7 2 -28 -13 -47 -33
-22 -24 -39 -35 -49 -32 -21 8 -21 37 0 37 10 0 14 5 10 15 -3 9 1 18 9 21 20
8 19 30 -2 39 -13 4 -26 -3 -45 -26 -17 -20 -32 -30 -42 -26 -22 9 -20 40 4
62 23 21 27 55 6 55 -24 0 -46 -12 -46 -25 0 -6 -9 -20 -20 -30 -16 -15 -22
-15 -35 -5 -21 18 -19 28 15 62 34 34 37 43 14 52 -25 10 -54 -3 -54 -23 0
-31 -26 -45 -49 -29 -20 14 -20 15 9 49 33 39 37 54 15 63 -20 7 -52 -13 -58
-36 -7 -26 -34 -33 -52 -14 -15 15 -15 17 -1 22 9 3 16 12 16 18 0 14 52 66
66 66 5 0 20 14 34 30 14 17 29 30 35 30 5 0 24 11 40 25 17 13 35 23 40 21 6
-1 22 -27 37 -57z m-491 -109 c26 -22 51 -40 55 -40 3 0 14 -8 23 -18 9 -10
23 -22 31 -26 35 -16 61 -35 127 -89 39 -31 74 -57 79 -57 5 0 20 -13 34 -30
14 -16 29 -30 35 -30 6 0 21 -10 35 -23 14 -13 39 -32 55 -42 17 -11 34 -25
38 -32 4 -7 14 -13 21 -13 7 0 21 -9 31 -20 10 -11 23 -20 29 -20 6 0 17 -9
24 -20 7 -11 18 -20 25 -20 8 0 24 -11 37 -25 13 -14 27 -25 32 -25 9 0 27
-13 56 -42 28 -27 141 -108 151 -108 5 0 11 -6 14 -12 5 -14 -117 -135 -145
-144 -10 -3 -18 -9 -18 -13 0 -4 -26 -35 -57 -68 -128 -132 -153 -160 -153
-169 0 -5 -11 -18 -25 -28 -14 -10 -25 -23 -25 -28 0 -5 -14 -27 -32 -49 -31
-38 -32 -39 -98 -39 -78 0 -99 13 -69 44 31 32 129 165 129 175 0 5 11 18 25
29 14 11 25 25 25 30 0 6 8 17 18 24 10 7 21 20 25 28 13 28 32 55 65 88 17
19 32 36 32 37 0 8 -48 55 -55 55 -4 0 -15 8 -24 18 -9 9 -23 22 -32 27 -61
38 -131 89 -169 124 -25 23 -50 41 -56 41 -7 0 -14 7 -18 15 -3 8 -12 15 -21
15 -8 0 -15 4 -15 8 0 5 -12 15 -27 23 -16 8 -36 24 -46 37 -10 12 -24 22 -30
22 -7 0 -29 16 -50 35 -48 44 -75 51 -105 26 -12 -11 -21 -23 -20 -28 2 -4
-10 -21 -25 -38 -51 -54 -57 -62 -57 -70 0 -4 -21 -33 -47 -63 -27 -31 -48
-59 -48 -63 0 -4 -13 -24 -30 -44 -16 -21 -40 -50 -52 -65 -13 -15 -23 -31
-23 -35 0 -4 -11 -18 -24 -30 -14 -13 -23 -25 -20 -28 3 -2 -9 -16 -26 -30
-16 -14 -30 -32 -30 -41 0 -8 -4 -18 -10 -21 -27 -17 -7 -52 58 -100 37 -27
71 -55 75 -62 4 -7 13 -13 18 -13 6 0 30 -16 53 -35 24 -19 48 -35 54 -35 6 0
19 -11 28 -25 9 -14 22 -25 28 -25 7 0 23 -11 36 -25 l23 -25 -188 0 -188 0
-43 35 c-23 19 -45 35 -49 35 -3 0 -37 25 -74 55 -38 30 -73 55 -78 55 -5 0
-18 9 -28 20 -10 11 -22 20 -26 20 -4 0 -21 13 -37 30 l-30 30 24 19 c13 10
24 25 24 32 0 8 13 28 28 46 62 73 92 112 92 120 0 5 9 15 20 23 11 8 20 20
20 27 0 6 9 19 21 27 12 8 18 19 14 25 -3 6 -1 11 4 11 6 0 11 7 11 15 0 8 7
15 15 15 8 0 15 7 15 15 0 9 7 18 15 21 8 4 15 12 15 19 0 7 7 19 16 26 9 7
31 37 50 66 19 29 38 53 44 53 5 0 10 6 10 13 0 13 19 40 68 93 12 14 22 27
22 31 0 3 14 22 30 43 17 21 30 42 30 48 0 6 14 22 31 36 17 14 28 29 25 34
-2 4 8 16 23 26 15 10 33 33 41 50 14 34 29 56 38 56 3 0 27 -18 53 -40z
m1311 -125 c1 -5 -12 -17 -28 -25 -15 -8 -34 -21 -42 -27 -7 -7 -24 -16 -38
-19 -13 -3 -24 -10 -24 -15 0 -5 -7 -9 -15 -9 -8 0 -15 -4 -15 -9 0 -5 -30
-24 -67 -42 -38 -19 -70 -37 -73 -40 -12 -16 -44 -13 -48 4 -2 10 3 17 12 17
9 0 16 3 16 8 0 4 10 12 23 18 80 39 193 100 199 108 10 14 71 44 86 43 7 -1
13 -6 14 -12z m38 -134 c0 -18 -69 -61 -98 -61 -6 0 -15 -6 -19 -12 -16 -26
-136 -88 -169 -88 -31 0 -31 16 1 24 13 3 36 17 51 31 15 14 35 25 44 25 10 0
23 7 31 16 7 9 33 25 58 37 25 12 52 27 59 34 20 19 42 16 42 -6z m2507 -31
c23 -11 44 -24 48 -30 3 -5 23 -17 43 -27 20 -9 51 -27 68 -40 17 -13 36 -23
41 -23 6 0 30 -16 53 -35 23 -19 47 -35 53 -35 7 0 35 -22 64 -48 29 -27 64
-55 79 -63 15 -8 60 -45 100 -84 40 -38 91 -85 113 -104 23 -19 41 -38 41 -43
0 -5 27 -35 60 -67 33 -32 60 -64 60 -69 0 -6 13 -20 29 -32 17 -11 33 -30 37
-42 4 -12 17 -31 30 -41 13 -10 24 -24 24 -32 0 -7 7 -15 15 -19 8 -3 15 -10
15 -17 0 -6 9 -22 20 -36 34 -44 27 -49 -64 -52 l-85 -2 -39 53 c-92 124 -273
313 -396 416 -38 31 -82 69 -98 85 -16 15 -32 27 -34 27 -2 0 -38 24 -79 53
-76 53 -130 87 -175 109 -14 7 -27 15 -30 18 -3 3 -16 11 -30 18 -106 55 -115
63 -98 94 7 13 17 26 22 30 5 3 10 17 12 30 1 12 3 24 3 26 3 9 65 -2 98 -18z
m-1042 -180 l0 -125 -62 -3 c-59 -3 -63 -4 -63 -27 0 -14 3 -25 8 -25 96 -4
291 -2 300 4 7 4 12 16 12 27 0 17 -7 19 -74 19 l-75 0 -3 116 c-2 63 1 119 6
124 5 5 21 7 35 5 74 -13 290 -56 316 -63 l30 -8 3 -257 2 -257 -195 0 -195 0
0 80 0 80 75 0 c68 0 75 2 75 20 0 19 -7 20 -160 20 -152 0 -160 -1 -160 -20
0 -16 8 -19 63 -22 l62 -3 0 -75 0 -75 -387 -3 c-336 -2 -388 -4 -388 -17 0
-8 -6 -15 -13 -15 -19 0 -37 21 -37 42 0 10 -4 18 -10 18 -5 0 -12 11 -16 25
-10 40 -37 30 -57 -19 -27 -66 -43 -75 -61 -34 -15 33 -49 78 -60 78 -3 0 -6
-7 -6 -15 0 -8 -10 -24 -23 -37 -13 -13 -26 -31 -30 -41 -8 -21 -27 -23 -27
-2 0 13 -46 15 -350 15 l-350 0 37 33 c163 145 433 308 660 398 300 119 567
168 903 166 l215 -2 0 -125z m-1405 94 c0 -8 -43 -43 -53 -44 -4 0 -13 -4 -20
-10 -62 -51 -180 -111 -193 -98 -11 12 7 28 54 50 26 12 53 30 60 39 6 10 27
23 46 29 19 6 40 18 46 26 12 13 60 20 60 8z m-1327 -97 c20 -18 48 -39 64
-47 15 -8 37 -24 48 -35 29 -28 82 -65 94 -65 6 0 15 -9 21 -20 6 -11 17 -20
25 -20 8 0 20 -9 27 -20 7 -11 18 -20 24 -20 6 0 19 -9 29 -20 10 -11 22 -20
28 -20 5 0 18 -9 27 -20 21 -24 16 -56 -11 -73 -11 -7 -19 -19 -19 -29 0 -9
-11 -25 -25 -36 -14 -11 -25 -23 -25 -26 0 -8 -7 -17 -54 -72 -20 -23 -36 -47
-36 -53 0 -6 -4 -11 -10 -11 -5 0 -10 -6 -10 -13 0 -7 -12 -24 -27 -37 -16
-14 -35 -38 -43 -55 -35 -71 -84 -81 -145 -29 -19 16 -50 40 -70 54 -20 14
-70 51 -110 83 -40 31 -76 57 -80 57 -4 0 -20 14 -35 30 -15 17 -32 30 -37 30
-12 1 -53 37 -53 47 0 5 11 20 25 33 14 13 25 27 25 32 0 7 23 36 73 89 9 10
17 25 17 32 0 6 18 31 40 55 22 24 40 46 40 51 0 4 9 16 20 26 11 10 20 24 20
31 0 8 9 19 20 26 11 7 20 17 20 22 0 15 42 56 56 56 7 0 28 -15 47 -33z
m3277 8 c48 -12 140 -50 140 -57 0 -5 10 -8 23 -8 31 0 291 -133 338 -173 10
-9 23 -17 28 -17 4 0 20 -11 35 -25 15 -14 30 -25 33 -25 10 0 127 -87 166
-124 21 -20 41 -36 44 -36 13 0 222 -214 217 -222 -3 -4 1 -8 8 -8 15 0 40
-48 32 -61 -3 -5 -355 -7 -782 -6 l-777 2 0 115 0 115 215 5 215 5 2 260 c1
143 2 264 3 268 0 5 8 6 18 3 9 -2 28 -7 42 -11z m-2373 -73 c-9 -10 -17 -24
-17 -30 0 -18 -40 -14 -47 4 -3 9 6 27 23 45 25 26 30 28 43 14 13 -13 13 -17
-2 -33z m73 -41 c5 -11 10 -22 10 -25 0 -10 -32 -36 -46 -36 -18 0 -19 45 -1
65 17 19 24 18 37 -4z m772 -431 c26 -58 53 -66 63 -21 3 16 13 32 21 35 8 3
14 12 14 21 0 8 4 15 8 15 14 0 49 -45 44 -58 -2 -7 1 -12 7 -12 6 0 8 -7 5
-15 -5 -11 1 -15 20 -15 16 0 26 6 26 15 0 8 5 15 11 15 5 0 8 4 5 9 -18 28
29 31 390 29 l369 -3 3 -106 c2 -81 -1 -109 -11 -118 -11 -8 -279 -10 -1052
-9 l-1037 3 112 118 112 117 359 0 c356 0 358 0 379 -22 11 -12 20 -28 20 -35
0 -23 26 -14 41 15 23 45 43 71 56 72 7 0 22 -22 35 -50z m-2468 -186 c18 -7
10 -34 -10 -34 -8 0 -14 9 -14 20 0 22 1 23 24 14z m7160 -236 c14 -20 16
-161 16 -1315 0 -1280 0 -1293 -20 -1313 -20 -20 -33 -20 -3946 -20 -2687 0
-3931 3 -3945 10 -19 11 -19 36 -19 1325 0 1241 1 1315 18 1324 11 7 1297 10
3949 11 l3932 0 15 -22z m-8104 -608 l0 -40 -299 0 -299 0 -4 40 -4 40 303 0
303 0 0 -40z m8910 0 l0 -40 -305 0 -305 0 0 40 0 40 305 0 305 0 0 -40z
m-8910 -140 l0 -30 -273 0 -273 0 -11 30 -11 30 284 0 284 0 0 -30z m8867 0
l-11 -30 -278 0 -278 0 0 30 0 30 289 0 289 0 -11 -30z m-8867 -105 l0 -35
-252 2 -252 3 -13 33 -13 32 265 0 265 0 0 -35z m8827 3 l-13 -33 -257 -3
-257 -2 0 35 0 35 270 0 270 0 -13 -32z m-8827 -113 l0 -35 -229 0 -229 0 -11
31 c-6 18 -11 34 -11 35 0 2 108 4 240 4 l240 0 0 -35z m8790 31 c0 -1 -5 -17
-11 -35 l-11 -31 -234 0 -234 0 0 35 0 35 245 0 c135 0 245 -2 245 -4z m-8790
-156 l0 -29 -204 -3 c-175 -3 -206 -1 -209 12 -3 8 -8 23 -12 33 -7 16 7 17
209 17 l216 0 0 -30z m8729 0 l-11 -30 -209 0 -209 0 0 30 0 30 219 0 220 0
-10 -30z m-8729 -110 l0 -30 -174 0 c-121 0 -175 -3 -178 -11 -2 -7 -11 7 -20
30 l-16 41 194 0 194 0 0 -30z m8685 0 l-16 -30 -184 0 -185 0 0 30 0 30 200
0 201 0 -16 -30z m-8685 -105 l0 -35 -161 2 -161 3 -13 33 -14 32 174 0 175 0
0 -35z m8645 3 l-13 -33 -166 -3 -166 -2 0 35 0 35 180 0 179 0 -14 -32z
m-8645 -123 l0 -36 -136 3 -136 3 -13 33 -14 32 149 0 150 0 0 -35z m8595 3
l-13 -33 -141 -3 -141 -3 0 36 0 35 155 0 154 0 -14 -32z m-8595 -118 l0 -30
-114 0 -114 0 -11 30 -10 30 125 0 124 0 0 -30z m8549 0 l-11 -30 -119 0 -119
0 0 30 0 30 129 0 130 0 -10 -30z m-8549 -105 l0 -35 -93 0 -94 0 -10 35 -11
35 104 0 104 0 0 -35z m8507 0 l-10 -35 -99 0 -98 0 0 35 0 35 109 0 109 0
-11 -35z m-8507 -130 l0 -36 -66 3 c-64 3 -66 4 -79 36 l-14 32 79 0 80 0 0
-35z m8455 3 c-13 -32 -15 -33 -84 -36 l-71 -3 0 36 0 35 85 0 84 0 -14 -32z
m-8455 -103 l0 -35 -79 0 -79 0 11 35 10 35 69 0 68 0 0 -35z m8457 0 l11 -35
-84 0 -84 0 0 35 0 35 73 0 74 0 10 -35z m-8457 -115 l0 -30 -100 0 c-103 0
-110 3 -90 41 9 17 22 19 100 19 l90 0 0 -30z m8500 11 c20 -38 13 -41 -95
-41 l-105 0 0 30 0 30 95 0 c83 0 96 -2 105 -19z m-8500 -126 l0 -25 -126 0
c-69 0 -123 3 -121 8 2 4 7 15 10 25 6 15 21 17 122 17 l115 0 0 -25z m8551
-2 l8 -23 -129 0 -130 0 0 25 0 26 121 -3 c116 -3 122 -4 130 -25z m-8551
-118 l0 -35 -149 0 -149 0 11 35 10 35 139 0 138 0 0 -35z m8597 0 l11 -35
-154 0 -154 0 0 35 0 35 143 0 144 0 10 -35z m-8597 -105 l0 -30 -170 0 c-93
0 -170 2 -170 4 0 3 4 16 10 30 l10 26 160 0 160 0 0 -30z m8638 5 c7 -14 12
-28 12 -30 0 -3 -79 -5 -175 -5 l-175 0 0 30 0 30 163 0 164 0 11 -25z m-8638
-120 l0 -25 -195 0 -195 0 12 25 11 25 184 0 183 0 0 -25z m8688 0 l12 -25
-200 0 -200 0 0 25 0 25 188 0 189 0 11 -25z m-8688 -120 l0 -35 -221 0 c-121
0 -218 4 -215 9 3 4 10 20 15 35 l11 26 205 0 205 0 0 -35z m8735 -2 l14 -33
-224 0 -225 0 0 35 0 35 211 -2 211 -3 13 -32z m-8729 -98 l11 -35 -248 0
-249 0 11 26 c5 15 12 31 15 35 3 5 105 9 227 9 l222 0 11 -35z m8771 -2 l13
-33 -253 0 -254 0 11 35 11 35 229 -2 230 -3 13 -32z m-8695 -118 l30 -25
-317 0 c-285 0 -317 2 -311 16 3 9 6 20 6 25 0 5 117 9 281 9 l281 0 30 -25z
m8738 16 c0 -5 3 -16 6 -25 6 -14 -26 -16 -315 -16 l-322 0 28 25 28 24 288 1
c168 0 287 -4 287 -9z m-6706 -123 c227 -305 584 -595 942 -764 352 -166 738
-254 1114 -254 772 1 1499 342 1992 935 55 66 107 126 116 133 12 9 147 12
598 12 l583 0 -34 -74 c-278 -601 -819 -1185 -1420 -1533 -506 -294 -1014
-444 -1633 -485 -591 -38 -1283 111 -1823 394 -618 323 -1090 769 -1448 1367
-56 93 -171 313 -171 326 0 3 256 5 569 5 l569 0 46 -62z m1275 -69 l-2 -131
118 -71 118 -72 0 -50 0 -50 -116 -70 -117 -70 0 -57 0 -57 -42 13 c-74 23
-188 75 -307 137 -244 128 -488 322 -683 542 l-60 67 547 0 546 0 -2 -131z
m2619 89 c-51 -66 -204 -216 -300 -296 l-87 -72 -410 0 c-285 0 -412 -3 -417
-11 -4 -6 -23 8 -48 37 l-42 47 -27 -23 c-15 -13 -27 -29 -27 -36 0 -36 -42
-11 -81 49 -8 11 -69 -32 -69 -48 0 -7 -8 -19 -17 -28 -16 -13 -20 -14 -37 -1
-16 11 -79 14 -338 14 l-318 0 0 110 0 110 -35 0 -35 0 0 -250 0 -250 35 0 35
0 0 100 0 100 303 0 304 0 43 -31 43 -31 33 38 34 39 35 -37 c19 -21 38 -38
41 -38 12 0 59 42 59 53 0 15 25 21 25 5 1 -21 36 -58 56 -58 10 0 32 14 49
30 l31 30 328 -2 328 -3 -78 -46 c-574 -340 -1215 -433 -1859 -272 l-110 28
-3 51 -3 52 83 50 83 50 3 -54 3 -54 39 0 40 0 0 250 0 250 -41 0 -41 0 4 -70
c2 -39 2 -70 1 -70 -2 0 -41 23 -88 51 l-85 51 0 114 0 114 1296 0 1296 0 -34
-42z m-5773 -28 l29 -30 -417 0 c-229 0 -417 2 -417 5 0 2 5 16 12 30 l11 25
377 0 376 0 29 -30z m8633 5 c7 -14 12 -28 12 -30 0 -3 -188 -5 -417 -5 l-417
0 29 30 29 30 376 0 377 0 11 -25z m-8511 -117 c18 -18 33 -36 33 -40 0 -4
-223 -8 -495 -8 l-495 0 0 40 0 40 462 0 462 0 33 -32z m8553 -8 l0 -40 -495
0 c-272 0 -495 3 -495 7 0 4 14 22 32 40 l32 33 463 0 463 0 0 -40z"/>
<path d="M7356 7541 c-3 -5 15 -31 40 -57 25 -27 64 -68 85 -90 21 -23 39 -45
39 -49 0 -8 18 -28 159 -181 182 -198 201 -213 201 -163 0 11 -7 22 -16 26 -8
3 -20 16 -25 29 -4 13 -15 24 -24 24 -8 0 -15 5 -15 12 0 6 -20 32 -44 57 -74
77 -146 158 -146 164 0 3 -22 27 -50 53 -27 26 -50 52 -50 58 0 6 -26 37 -58
69 -54 54 -84 68 -96 48z"/>
<path d="M7293 7474 c-3 -10 0 -22 8 -28 8 -6 26 -27 40 -46 15 -19 48 -58 75
-86 87 -92 122 -133 116 -139 -3 -3 2 -5 11 -5 10 0 17 -8 17 -20 0 -11 5 -20
10 -20 12 0 60 -45 60 -55 0 -11 28 -35 40 -35 6 0 8 -4 5 -10 -3 -5 12 -26
35 -46 22 -20 40 -43 40 -50 0 -8 7 -14 15 -14 8 0 15 -5 15 -10 0 -6 15 -26
33 -44 17 -19 47 -52 65 -75 20 -25 38 -38 47 -35 24 10 17 44 -15 71 -16 13
-30 30 -30 37 0 6 -29 41 -65 76 -36 35 -65 69 -65 75 0 5 -16 23 -35 39 -19
16 -35 35 -35 43 0 7 -7 13 -15 13 -8 0 -15 4 -15 9 0 6 -25 34 -55 64 -30 30
-55 58 -55 63 0 13 -220 244 -232 244 -5 0 -11 -7 -15 -16z"/>
<path d="M7220 7406 c0 -7 7 -19 15 -26 8 -7 15 -17 15 -23 0 -6 24 -36 53
-67 198 -214 242 -263 240 -270 -1 -4 27 -35 62 -70 55 -54 66 -61 79 -50 28
23 37 12 -186 242 -21 21 -38 43 -38 48 0 5 -25 32 -55 61 -30 28 -55 57 -55
63 0 14 -101 106 -117 106 -7 0 -13 -6 -13 -14z"/>
<path d="M7147 7346 c-3 -8 3 -22 14 -32 10 -9 19 -20 19 -25 0 -4 22 -30 50
-58 27 -28 47 -51 44 -51 -3 0 14 -19 38 -42 24 -23 42 -45 41 -49 -2 -4 29
-38 67 -75 39 -37 70 -71 70 -76 0 -5 20 -28 45 -51 25 -24 45 -47 45 -53 0
-17 105 -114 123 -114 22 0 21 19 -3 50 -11 14 -20 31 -20 38 0 6 -5 12 -11
12 -14 0 -59 47 -59 61 0 5 -5 9 -11 9 -12 0 -39 25 -39 36 0 4 -23 32 -51 63
-28 31 -79 87 -112 125 -34 38 -74 81 -89 95 -16 14 -28 33 -28 43 0 9 -9 20
-20 23 -11 3 -20 10 -20 14 0 13 -62 71 -75 71 -7 0 -15 -6 -18 -14z"/>
<path d="M7074 7278 c-4 -6 0 -16 8 -22 8 -6 18 -20 22 -32 3 -11 16 -26 29
-33 12 -7 33 -28 47 -46 14 -19 31 -35 38 -35 6 0 12 -7 12 -16 0 -8 14 -27
30 -41 17 -13 30 -31 30 -39 0 -8 7 -14 15 -14 9 0 18 -8 22 -17 3 -10 21 -34
39 -53 75 -79 144 -157 144 -164 0 -4 27 -34 60 -65 33 -32 60 -61 60 -65 0
-4 27 -34 60 -66 33 -32 60 -66 60 -74 0 -17 9 -20 34 -10 25 10 19 32 -19 65
-19 17 -35 35 -35 39 0 5 -24 32 -54 60 -30 28 -57 61 -60 73 -3 12 -19 30
-36 40 -16 10 -30 22 -30 27 0 5 -34 44 -75 87 -41 43 -75 83 -75 88 0 6 -27
37 -60 69 -33 33 -62 67 -65 76 -3 9 -17 23 -30 30 -14 7 -25 16 -25 20 0 14
-112 130 -125 130 -8 0 -17 -5 -21 -12z"/>
<path d="M7016 7223 c-17 -17 0 -49 54 -100 33 -32 60 -62 60 -67 0 -8 42 -57
151 -172 22 -23 39 -47 39 -53 0 -6 7 -11 17 -11 9 0 13 -3 10 -7 -6 -6 25
-44 132 -158 26 -27 48 -53 49 -57 2 -4 29 -32 61 -63 57 -54 91 -69 91 -40 0
8 -4 15 -10 15 -5 0 -10 5 -10 10 0 6 -24 35 -54 65 -29 30 -52 56 -50 58 2 2
-19 25 -46 52 -28 27 -50 54 -50 59 0 6 -22 30 -48 55 -27 26 -53 53 -58 62
-5 10 -40 51 -79 92 -140 151 -190 207 -193 220 -3 16 -57 49 -66 40z"/>
<path d="M6930 7145 c0 -9 20 -37 44 -63 24 -26 41 -53 39 -59 -3 -7 0 -13 5
-13 12 0 112 -96 112 -107 0 -5 34 -42 75 -83 41 -41 73 -76 71 -78 -2 -2 8
-16 22 -31 15 -15 36 -39 47 -54 11 -15 28 -27 37 -27 27 0 22 39 -7 62 -14
11 -25 25 -25 32 0 7 -26 40 -57 72 -102 105 -133 141 -133 153 0 6 -7 11 -15
11 -8 0 -15 6 -15 13 0 8 -15 27 -32 43 -18 17 -44 46 -57 65 -25 37 -78 79
-99 79 -7 0 -12 -7 -12 -15z"/>
<path d="M6862 7098 c-16 -16 -15 -38 2 -38 8 0 16 -10 20 -23 3 -13 17 -29
31 -37 13 -7 30 -26 37 -42 7 -15 16 -28 20 -28 9 0 122 -118 127 -133 4 -11
75 -91 245 -279 63 -70 122 -138 138 -160 12 -15 15 -15 32 -3 19 15 19 15 -2
38 -12 13 -22 28 -22 34 0 5 -24 33 -52 60 -72 70 -158 164 -158 174 0 4 -22
29 -50 55 -27 26 -50 53 -50 60 0 8 -7 14 -15 14 -9 0 -18 8 -22 18 -3 9 -23
33 -44 53 -22 20 -39 41 -39 46 0 5 -20 29 -45 54 -24 24 -45 50 -45 57 0 6
-7 12 -15 12 -8 0 -15 6 -15 13 0 10 -55 67 -64 67 -1 0 -7 -5 -14 -12z"/>
<path d="M1250 5500 l0 -350 70 0 69 0 1 -470 0 -470 -70 0 -70 0 0 -365 0
-365 1180 0 1180 0 0 405 0 405 -420 0 -420 0 0 -40 0 -40 -270 0 -271 0 3 88
c2 69 6 87 18 88 8 1 223 2 478 3 l462 1 0 275 0 275 -477 2 -478 3 0 100 0
100 267 3 267 2 -2 -42 -2 -43 423 -3 422 -2 0 395 0 395 -1180 0 -1180 0 0
-350z"/>
<path d="M3820 5500 l0 -350 70 0 70 0 0 -470 0 -470 -70 0 -70 0 0 -365 0
-365 1185 0 1185 0 0 405 0 405 -425 0 -425 0 0 -40 0 -40 -265 0 -266 0 3 88
3 87 473 3 472 2 0 275 0 275 -474 0 -475 0 -3 105 -3 105 268 0 267 0 0 -45
0 -45 425 0 425 0 0 395 0 395 -1185 0 -1185 0 0 -350z"/>
<path d="M6420 5500 l0 -349 68 -3 67 -3 3 -467 2 -468 -70 0 -70 0 0 -365 0
-365 1180 0 1180 0 0 405 0 405 -425 0 -425 0 0 -40 0 -40 -265 0 -265 0 0 90
0 90 475 0 475 0 0 265 c0 146 0 268 0 273 0 4 -213 9 -472 12 l-473 5 -3 103
-3 102 268 -2 268 -3 -3 -42 -4 -43 426 0 426 0 0 395 0 395 -1180 0 -1180 0
0 -350z"/>
<path d="M7232 2734 c-30 -36 -30 -38 -17 -73 8 -20 30 -80 49 -134 l34 -97
-91 84 -92 84 -68 -64 -67 -64 14 -92 13 -91 -53 59 -53 59 -32 -32 c-32 -31
-32 -31 -13 -55 43 -54 227 -258 234 -258 3 0 19 13 35 30 32 33 34 28 -42
111 l-33 35 26 15 c25 13 31 11 94 -22 l67 -36 39 32 38 32 -75 41 c-53 30
-86 42 -115 42 -49 0 -54 9 -54 113 l0 68 132 -121 132 -120 28 27 c15 14 30
34 33 43 4 13 -37 148 -71 235 -4 11 31 -15 78 -57 l85 -77 27 27 c14 16 26
32 25 38 -1 8 -143 140 -239 222 l-38 32 -30 -36z"/>
<path d="M2610 2645 c-74 -64 -139 -120 -144 -125 -10 -10 38 -70 55 -70 10 0
279 230 279 238 0 4 -12 22 -27 40 l-28 31 -135 -114z"/>
<path d="M2692 2527 l-132 -132 32 -33 33 -32 55 55 56 55 44 -45 44 -45 -54
-55 -54 -55 34 -35 35 -35 135 135 134 134 -29 31 c-16 16 -33 30 -39 30 -6 0
-32 -21 -58 -47 -47 -47 -47 -47 -69 -27 -12 10 -30 32 -41 47 l-21 29 49 49
48 49 -29 30 c-16 16 -31 30 -35 30 -3 0 -65 -60 -138 -133z"/>
<path d="M3020 2345 c-75 -34 -130 -113 -130 -185 0 -70 42 -132 120 -179 45
-27 47 -27 66 10 13 26 14 33 2 40 -7 5 -16 9 -19 9 -15 0 -68 65 -74 90 -8
37 25 100 65 123 50 30 83 22 147 -34 32 -28 70 -57 86 -65 15 -8 27 -19 27
-25 0 -5 -34 -62 -75 -125 -41 -63 -75 -119 -75 -124 0 -8 70 -53 75 -48 2 2
39 58 82 125 l80 122 36 -25 c20 -13 41 -24 47 -24 6 0 -20 -60 -59 -134 -39
-73 -71 -136 -71 -139 0 -3 20 -16 45 -30 l44 -25 103 70 c57 38 106 72 110
74 3 2 -18 -41 -49 -97 -30 -55 -53 -102 -52 -103 7 -6 68 -36 73 -36 3 0 35
59 72 130 37 72 70 130 75 130 5 0 27 -7 49 -16 47 -19 48 -7 -16 -169 -24
-60 -44 -114 -44 -120 0 -11 77 -42 84 -34 2 2 25 60 51 129 26 69 51 129 55
133 4 4 26 0 49 -9 39 -16 43 -16 55 1 10 14 16 -2 35 -106 21 -118 21 -124 4
-137 -10 -7 -29 -10 -44 -7 -22 5 -28 1 -39 -24 -15 -38 -9 -48 39 -56 72 -12
129 30 237 176 41 55 53 65 69 58 11 -4 32 -8 48 -8 33 -1 33 2 3 -166 -13
-71 -23 -132 -21 -133 11 -11 80 -20 86 -11 3 6 17 73 29 150 l24 138 25 -5
c80 -16 73 -20 85 38 6 26 5 26 -67 38 -94 16 -248 47 -267 54 -11 4 -29 -18
-64 -75 -57 -92 -59 -91 -71 37 l-7 81 -56 13 c-32 7 -130 41 -219 76 -89 35
-164 64 -167 64 -4 0 -55 -33 -114 -72 -59 -40 -110 -74 -114 -76 -4 -2 18 42
48 98 53 99 63 130 45 130 -16 0 -305 194 -324 218 -52 63 -170 97 -237 67z"/>
<path d="M6773 2299 c-18 -12 -33 -23 -33 -26 0 -18 32 -262 36 -278 3 -11
-27 28 -67 87 -41 59 -78 108 -82 108 -5 0 -23 -11 -40 -24 -48 -35 -310 -179
-404 -221 -46 -21 -83 -41 -83 -46 0 -4 33 -81 74 -171 71 -156 76 -163 102
-161 15 1 30 6 33 11 3 5 41 25 84 45 42 20 77 38 77 41 0 4 -21 55 -26 64 -1
2 -32 -11 -69 -27 -38 -17 -69 -30 -70 -29 -1 2 -10 17 -19 35 l-16 32 60 27
c33 15 60 30 60 35 0 18 -24 59 -34 59 -6 0 -35 -11 -63 -25 -51 -23 -53 -23
-63 -5 -5 10 -10 25 -10 32 0 7 46 36 103 63 l102 50 71 -124 c38 -69 75 -126
81 -128 6 -2 25 8 42 24 l30 28 -69 120 c-38 66 -70 123 -70 126 0 3 18 15 40
28 45 25 44 24 29 54 -20 38 6 5 101 -130 51 -73 96 -133 99 -133 4 0 23 12
44 26 l38 26 -6 66 c-4 37 -11 94 -16 126 -4 33 -7 61 -6 63 2 1 32 -38 67
-87 34 -50 66 -90 69 -90 3 1 19 12 35 25 l30 24 -47 68 c-98 140 -162 226
-172 229 -5 2 -25 -6 -42 -17z"/>
<path d="M5976 1864 c-54 -18 -101 -36 -104 -38 -8 -8 112 -348 124 -353 7 -2
28 2 48 11 l35 15 -49 141 -50 141 28 10 c66 24 87 33 95 39 8 7 -11 70 -21
69 -4 0 -52 -16 -106 -35z"/>
<path d="M5738 1790 c-87 -15 -149 -40 -144 -58 3 -10 19 -73 36 -142 56 -227
45 -203 93 -196 23 4 43 8 45 10 2 2 -4 32 -13 66 -9 34 -15 63 -13 64 2 1 21
8 43 14 82 23 123 101 92 175 -13 31 -69 80 -87 76 -3 -1 -26 -5 -52 -9z m42
-90 c11 -11 20 -27 20 -35 0 -21 -36 -55 -60 -55 -14 0 -22 11 -29 38 -15 51
-14 60 7 65 33 9 42 7 62 -13z"/>
<path d="M5433 1732 c-80 -13 -93 -18 -93 -35 0 -19 50 -350 54 -354 2 -2 178
24 214 32 17 4 22 12 22 36 0 38 -16 44 -92 30 -34 -6 -63 -10 -64 -8 -1 1 -4
19 -8 39 -7 37 -6 37 31 43 98 16 94 14 91 48 l-3 32 -67 -3 c-64 -2 -68 -1
-74 22 -9 37 0 44 72 51 l66 8 -6 30 c-3 16 -6 33 -6 38 0 12 -24 10 -137 -9z"/>
<path d="M4736 1584 c-3 -65 -9 -152 -12 -191 l-5 -73 88 0 c48 0 105 -3 126
-6 l37 -7 0 42 0 41 -52 0 c-86 0 -98 6 -98 50 l0 37 70 -5 70 -5 0 42 0 41
-65 0 -65 0 0 35 0 35 69 0 c69 0 69 0 76 31 4 17 5 32 2 35 -2 3 -56 7 -120
11 l-115 6 -6 -119z"/>
<path d="M5220 1625 l0 -75 -65 0 -65 0 0 70 0 70 -51 0 -50 0 5 -42 c3 -24 8
-109 12 -190 l6 -148 44 0 44 0 0 80 0 80 65 0 65 0 0 -75 0 -75 51 0 c43 0
50 2 45 18 -2 9 -8 95 -11 190 l-7 172 -44 0 -44 0 0 -75z"/>
<path d="M5868 9364 c-49 -47 -88 -89 -88 -94 0 -11 26 -20 56 -20 25 0 44
-27 27 -39 -12 -8 -45 -92 -39 -99 6 -5 57 40 127 111 20 20 34 39 31 42 -3 3
0 5 6 5 7 0 12 7 12 15 0 11 -11 15 -41 15 -39 0 -40 1 -37 33 2 17 5 34 8 37
8 8 40 67 40 74 0 16 -22 -1 -102 -80z"/>
<path d="M2972 8599 c-21 -8 -23 -14 -20 -71 2 -49 7 -63 20 -66 14 -3 17 8
20 70 2 40 3 74 3 74 0 1 -10 -2 -23 -7z"/>
<path d="M2759 8544 c-10 -12 -10 -19 -1 -32 7 -10 20 -34 30 -54 12 -27 23
-38 40 -38 17 0 22 6 22 24 0 13 -7 29 -15 36 -8 7 -15 18 -15 25 0 7 -7 15
-15 19 -8 3 -12 12 -9 21 8 20 -20 20 -37 -1z"/>
<path d="M2607 8393 c-13 -13 -7 -22 42 -57 54 -40 79 -45 77 -18 -1 25 -28
49 -70 67 -41 17 -40 17 -49 8z"/>
<path d="M1280 2523 c-85 -53 -157 -98 -159 -99 -8 -6 122 -204 134 -204 7 0
23 8 35 18 l23 19 -36 59 c-21 33 -37 63 -37 66 0 8 60 42 64 36 1 -2 17 -27
35 -55 20 -32 38 -50 45 -46 6 4 21 13 33 21 l22 14 -36 55 -36 56 24 18 c13
10 26 19 29 19 3 0 22 -27 42 -61 l38 -60 30 18 c16 9 30 21 30 26 0 11 -113
196 -120 197 -3 0 -75 -44 -160 -97z"/>
<path d="M8532 2582 l-21 -38 61 -110 c33 -60 65 -115 70 -121 19 -24 -4 -13
-75 35 -93 63 -128 84 -131 80 -40 -56 -45 -66 -33 -76 27 -21 298 -192 305
-192 16 0 53 73 48 94 -3 11 -30 65 -60 119 -41 75 -49 95 -33 84 173 -113
169 -111 184 -91 28 38 33 52 20 62 -28 22 -298 192 -305 192 -5 0 -18 -17
-30 -38z"/>
<path d="M1500 2290 c-102 -74 -136 -88 -171 -70 -18 10 -25 8 -48 -15 l-26
-26 34 -30 c30 -27 38 -30 80 -26 75 9 92 13 99 23 4 5 33 29 66 53 46 34 60
41 68 30 18 -28 30 -51 26 -53 -2 -2 -56 -41 -120 -88 l-117 -86 21 -28 c12
-16 25 -33 29 -38 7 -7 290 192 304 214 5 7 -135 209 -145 209 -3 0 -48 -31
-100 -69z"/>
<path d="M8360 2310 l-33 -42 27 -76 c14 -42 26 -81 26 -85 0 -4 -25 11 -55
34 -30 22 -59 38 -64 35 -6 -4 -19 -20 -31 -36 l-21 -29 142 -107 c78 -59 148
-107 156 -108 8 0 26 13 39 30 l24 31 -43 31 c-83 62 -81 60 -67 77 16 20 50
19 118 -2 l55 -17 28 34 c16 19 29 37 29 40 0 13 -160 52 -200 48 l-43 -3 -24
89 c-13 50 -25 91 -27 93 -2 2 -18 -15 -36 -37z"/>
<path d="M1651 2015 c-74 -63 -139 -119 -144 -124 -6 -6 18 -42 67 -100 43
-50 81 -91 85 -91 4 0 18 11 31 25 26 28 28 23 -45 103 l-30 34 30 24 30 25
45 -50 45 -50 28 20 c15 12 27 24 27 28 0 5 -19 29 -41 55 -40 45 -41 47 -24
66 26 29 36 25 80 -30 22 -27 42 -49 45 -49 3 0 18 10 34 24 l29 23 -63 74
c-35 40 -71 81 -79 90 -15 16 -26 9 -150 -97z"/>
<path d="M8156 2056 c-14 -19 -26 -37 -26 -40 0 -3 64 -59 142 -126 l143 -121
27 33 c15 18 28 36 28 39 0 4 -55 53 -122 109 -68 57 -132 112 -144 122 -21
19 -21 18 -48 -16z"/>
<path d="M8066 1952 c-14 -16 -26 -33 -26 -39 0 -6 22 -31 49 -56 l48 -45 -46
-46 -46 -46 -50 50 -51 50 -33 -33 -32 -34 137 -132 138 -131 33 32 33 32 -54
56 -55 55 44 46 43 46 53 -53 53 -54 34 34 34 34 -114 111 c-63 61 -126 120
-140 130 l-25 20 -27 -27z"/>
<path d="M1822 1787 l-132 -132 32 -33 32 -32 53 52 c44 44 54 49 67 38 23
-18 20 -43 -15 -112 l-31 -61 36 -35 c19 -20 37 -34 39 -32 1 3 20 42 41 88
31 66 37 89 32 117 -7 33 -5 35 21 36 15 0 54 4 85 8 56 7 57 6 41 -12 -17
-17 -15 -20 22 -51 l39 -34 -79 -88 c-133 -148 -123 -130 -90 -164 16 -17 32
-30 36 -30 4 0 51 49 104 110 l98 110 34 -30 c40 -35 40 -35 66 -12 11 9 -28
-45 -87 -122 -58 -76 -106 -142 -106 -146 0 -5 15 -20 32 -34 l33 -25 21 27
c12 15 30 38 41 51 l20 24 31 -23 c21 -15 50 -25 86 -28 53 -4 57 -3 91 31 29
29 35 42 35 76 0 23 -7 55 -15 71 -15 29 -132 120 -154 120 -7 0 -10 4 -7 9 3
4 -59 65 -138 134 l-144 127 -77 -15 c-42 -8 -80 -15 -83 -15 -3 0 15 22 42
49 32 33 46 54 41 63 -11 19 -47 58 -54 58 -4 0 -66 -60 -139 -133z m631 -420
c19 -24 19 -27 3 -51 -19 -30 -51 -33 -84 -10 l-23 15 32 40 c35 44 44 45 72
6z"/>
<path d="M7742 1629 l-43 -40 82 -177 c44 -97 82 -178 83 -179 1 -1 19 11 39
28 l36 30 -21 44 -22 45 24 25 c33 35 53 39 92 15 18 -11 36 -20 40 -20 10 0
68 51 68 60 0 4 -66 47 -147 95 -82 49 -157 94 -168 101 -18 11 -25 8 -63 -27z
m158 -139 c0 -9 -39 -44 -44 -39 -2 2 -15 27 -30 56 l-26 52 50 -31 c28 -17
50 -34 50 -38z"/>
<path d="M7584 1488 c-16 -12 -32 -24 -36 -27 -4 -4 -1 -33 7 -66 7 -33 12
-61 10 -63 -1 -2 -28 9 -58 24 l-56 28 -40 -28 c-22 -16 -39 -31 -37 -35 3 -4
48 -24 100 -46 74 -31 96 -44 96 -59 0 -41 23 -196 29 -196 3 1 23 15 43 33
l38 32 -16 59 c-8 32 -13 60 -11 63 3 2 28 -7 56 -21 28 -14 56 -26 63 -26 7
0 31 14 52 30 l39 30 -39 16 c-21 9 -68 28 -104 43 l-65 28 -14 101 c-8 56
-17 102 -21 102 -4 0 -20 -10 -36 -22z"/>
<path d="M7258 1255 l-97 -65 100 -152 c54 -84 103 -154 108 -156 7 -2 182
106 199 123 5 5 -31 65 -38 65 -3 0 -32 -18 -64 -40 l-60 -39 -22 32 -22 32
54 35 c30 19 54 40 54 45 0 6 -9 21 -19 34 l-19 24 -51 -31 c-28 -18 -55 -32
-60 -32 -5 0 -16 11 -25 24 -16 25 -15 25 44 61 33 20 60 39 60 43 0 4 -10 19
-23 35 l-22 27 -97 -65z"/>
<path d="M2572 1259 c-64 -32 -105 -98 -110 -175 -6 -95 38 -156 135 -184 105
-32 223 62 240 190 18 130 -142 232 -265 169z m133 -65 c8 -4 23 -19 31 -35
27 -53 -14 -142 -81 -173 -31 -15 -38 -15 -64 -2 -16 9 -31 23 -35 31 -33 87
69 209 149 179z"/>
<path d="M7068 1142 c-27 -15 -48 -31 -48 -37 0 -5 11 -59 24 -118 l23 -108
-86 85 -86 85 -47 -25 c-27 -13 -48 -30 -48 -37 0 -18 147 -331 157 -334 4 -2
23 6 41 17 l32 20 -55 112 -56 113 88 -92 88 -93 30 17 c17 8 31 17 33 18 1 1
-9 57 -23 125 -14 67 -25 125 -25 128 0 3 28 -41 61 -99 34 -57 63 -106 65
-108 6 -6 85 32 82 39 -8 20 -194 320 -198 319 -3 0 -26 -12 -52 -27z"/>
<path d="M2826 981 c-47 -88 -86 -162 -86 -166 0 -6 61 -45 72 -45 4 0 23 29
43 65 20 36 39 65 42 65 3 0 87 -46 101 -56 2 -1 -12 -33 -32 -71 l-35 -70 42
-20 42 -20 87 164 c49 90 88 166 88 168 0 3 -18 14 -39 25 l-39 20 -32 -58
c-18 -31 -34 -58 -35 -60 -1 -2 -28 9 -58 24 l-56 27 30 58 c16 32 29 62 29
67 0 9 -53 42 -68 42 -6 0 -49 -72 -96 -159z"/>
<path d="M3157 808 c-42 -93 -75 -174 -72 -178 6 -9 75 -34 79 -28 7 7 145
314 148 327 2 7 -14 21 -37 31 l-41 17 -77 -169z"/>
<path d="M3356 921 c-10 -15 -136 -344 -134 -346 6 -6 81 -35 83 -33 1 2 12
30 25 63 30 77 35 83 60 60 17 -15 20 -31 20 -92 l0 -74 35 -15 c19 -7 39 -14
45 -14 6 0 10 36 10 94 0 77 -3 98 -19 118 l-20 25 87 50 c48 28 88 50 89 49
1 -1 -23 -80 -52 -176 -30 -96 -55 -178 -55 -181 0 -3 23 -11 51 -18 l51 -13
93 92 94 93 -35 -108 c-20 -65 -31 -112 -25 -118 5 -5 24 -10 42 -10 l32 -2
54 174 c59 188 59 184 -5 196 -34 6 -39 3 -135 -92 -55 -54 -97 -90 -94 -80
23 66 68 219 65 221 -15 10 -166 66 -177 66 -7 0 -42 -20 -77 -45 -34 -25 -65
-45 -68 -45 -3 0 4 24 15 53 33 82 34 80 -11 99 -22 9 -42 13 -44 9z"/>
<path d="M6586 907 c-91 -52 -117 -155 -66 -257 64 -125 207 -145 303 -42 73
77 46 231 -51 297 -49 33 -130 34 -186 2z m147 -99 c21 -27 31 -51 35 -87 4
-43 1 -53 -21 -75 -46 -46 -100 -28 -137 44 -44 86 -15 164 57 158 27 -2 43
-12 66 -40z"/>
<path d="M6268 787 c-37 -13 -71 -27 -75 -30 -7 -7 93 -336 107 -350 6 -7 90
10 90 18 0 1 -9 28 -20 60 -11 32 -19 59 -18 60 2 2 19 10 38 20 87 43 114 99
84 173 -29 75 -89 89 -206 49z m120 -82 c6 -14 9 -32 6 -40 -6 -15 -63 -50
-68 -43 -2 2 -10 24 -19 50 -17 52 -14 56 39 57 24 1 33 -5 42 -24z"/>
<path d="M6085 725 c-44 -13 -128 -33 -186 -45 l-106 -23 -34 -80 c-36 -87
-40 -86 -54 11 l-7 53 -42 -6 c-22 -4 -43 -9 -45 -11 -4 -4 57 -366 62 -370 1
-1 20 1 42 5 45 7 45 9 30 109 -7 51 -7 52 17 52 29 0 43 -14 78 -79 l26 -46
49 3 c28 2 51 5 53 6 1 2 -19 39 -45 82 -32 51 -59 84 -79 95 l-31 15 40 80
c39 77 40 78 50 51 8 -24 13 -28 33 -23 78 19 67 32 107 -125 20 -78 38 -143
40 -145 3 -3 77 16 85 22 2 1 -13 63 -32 138 -20 75 -36 140 -36 145 0 5 21
14 46 20 45 11 46 13 40 43 -3 17 -6 34 -6 39 0 11 3 11 -95 -16z"/>
<path d="M4045 686 c-20 -66 -20 -66 52 -81 27 -5 32 -10 28 -28 -16 -68 -55
-271 -52 -273 2 -2 23 -4 47 -6 l44 -3 26 137 c15 76 29 141 33 144 3 3 26 2
51 -4 l46 -9 6 34 c4 19 4 37 1 40 -4 3 -68 18 -142 33 -95 19 -138 24 -140
16z"/>
<path d="M4317 451 c-42 -93 -77 -174 -77 -180 0 -6 13 -11 29 -11 16 0 36 -3
44 -6 10 -4 20 9 33 40 20 48 29 52 92 40 27 -5 30 -11 36 -54 l6 -47 47 -7
c25 -3 48 -5 49 -3 2 1 -12 88 -29 192 -36 208 -34 203 -113 204 l-40 1 -77
-169z m137 3 l6 -50 -34 4 -33 4 21 54 c11 29 24 50 27 46 4 -4 9 -30 13 -58z"/>
<path d="M5427 607 l-88 -10 5 -36 c3 -20 13 -103 22 -186 9 -82 17 -151 18
-152 1 -1 55 3 119 9 l117 12 0 39 0 38 -80 -7 -80 -7 0 42 c0 40 1 41 34 41
18 0 48 3 65 6 30 6 32 9 29 43 -3 35 -4 36 -43 33 -22 -1 -52 -5 -66 -8 -23
-4 -27 -1 -33 27 -3 18 -4 34 -2 36 2 2 33 6 70 10 l66 6 0 38 c0 45 6 44
-153 26z"/>
<path d="M5161 593 l-114 -4 6 -112 c7 -125 -4 -176 -41 -192 -19 -8 -21 -15
-16 -45 4 -19 8 -37 11 -40 11 -12 89 28 109 57 26 39 38 122 29 197 l-7 53
32 7 c18 3 36 6 40 6 4 0 11 -67 15 -150 l7 -150 46 0 45 0 -6 137 c-4 75 -7
160 -7 190 0 45 -3 53 -17 51 -10 -1 -69 -4 -132 -5z"/>
<path d="M4735 578 c-2 -7 -6 -93 -8 -190 l-5 -178 124 0 124 0 0 34 c0 32 -2
34 -46 40 -26 3 -60 6 -75 6 -27 0 -29 3 -29 41 l0 42 70 -6 70 -6 0 40 0 39
-70 0 -70 0 0 35 0 35 75 0 75 0 0 40 0 40 -115 0 c-84 0 -117 -3 -120 -12z"/>
</g>
</svg>
