<?xml version="1.0" standalone="no"?>
<!DOCTYPE svg PUBLIC "-//W3C//DTD SVG 20010904//EN"
 "http://www.w3.org/TR/2001/REC-SVG-20010904/DTD/svg10.dtd">
<svg version="1.0" xmlns="http://www.w3.org/2000/svg"
 width="700.000000pt" height="700.000000pt" viewBox="0 0 700.000000 700.000000"
 preserveAspectRatio="xMidYMid meet">
<metadata>
Created by potrace 1.14, written by Peter Selinger 2001-2017
</metadata>
<g transform="translate(0.000000,700.000000) scale(0.100000,-0.100000)"
fill="#000000" stroke="none">
<path d="M3278 6996 c-1 -2 -39 -6 -83 -10 -99 -8 -164 -15 -190 -21 -11 -2
-42 -7 -70 -10 -163 -21 -455 -98 -665 -177 -148 -55 -399 -173 -505 -237 -37
-23 -69 -41 -71 -41 -15 0 -267 -177 -369 -258 -312 -250 -550 -511 -769 -847
-263 -404 -459 -925 -521 -1390 -4 -27 -9 -61 -11 -75 -13 -81 -19 -223 -19
-430 0 -278 11 -397 55 -635 45 -238 85 -374 210 -715 23 -63 45 -125 47 -137
7 -31 15 -29 38 10 152 262 700 964 1016 1302 119 128 128 139 119 155 -5 8
-54 62 -110 118 -144 149 -148 157 -156 389 l-6 163 104 -6 105 -6 16 59 c9
32 25 93 37 136 11 42 29 112 40 155 62 232 62 232 80 232 30 0 123 43 176 81
28 21 65 59 82 86 26 41 64 153 87 256 6 31 29 32 31 1 1 -10 4 -73 8 -139 4
-66 9 -136 12 -155 28 -190 60 -287 123 -376 55 -77 186 -211 194 -198 7 12
51 128 162 429 221 598 203 556 250 600 23 22 135 130 249 240 114 110 213
201 219 203 7 1 97 -56 200 -126 l188 -129 92 39 c51 21 106 45 122 52 17 8
141 60 278 116 l247 103 36 -19 c19 -10 39 -24 44 -29 5 -6 -10 -33 -38 -66
-26 -31 -63 -76 -82 -99 -19 -23 -40 -47 -45 -54 -6 -6 -64 -74 -129 -151 -65
-77 -128 -151 -140 -165 -12 -14 -68 -81 -126 -150 -58 -69 -109 -130 -115
-136 -5 -6 -28 -32 -50 -59 -22 -27 -71 -85 -109 -129 -37 -45 -78 -92 -90
-106 -11 -14 -48 -56 -80 -94 l-59 -68 212 5 212 6 127 86 c70 47 174 119 232
159 58 39 175 119 260 178 85 58 188 129 229 157 41 28 78 51 82 51 4 0 42
-61 84 -135 76 -133 87 -147 112 -151 81 -12 339 -57 341 -60 2 -1 -48 -93
-112 -204 l-116 -202 47 7 c27 3 107 17 178 30 72 13 146 27 165 30 19 3 46 8
60 10 91 19 101 20 245 45 66 11 124 20 129 20 5 0 6 -35 3 -79 -12 -192 -169
-358 -392 -416 -39 -10 -68 -24 -85 -43 -105 -117 -165 -185 -168 -191 -1 -3
132 -80 295 -171 164 -90 364 -201 445 -245 l148 -82 -31 -46 c-73 -110 -145
-172 -224 -192 -73 -17 -198 -32 -350 -40 -174 -9 -314 -18 -348 -24 -7 -1 26
-57 43 -71 3 -3 28 -34 56 -70 28 -36 101 -129 162 -208 62 -78 112 -146 112
-150 0 -8 -93 -64 -175 -105 -27 -13 -95 -39 -150 -58 -89 -29 -112 -32 -215
-33 -131 0 -190 7 -375 44 -27 5 -61 12 -75 14 -131 24 -745 175 -953 234 -81
23 -85 49 30 -217 47 -108 87 -201 89 -207 3 -7 24 -19 47 -27 23 -9 141 -53
262 -97 326 -121 379 -141 387 -149 4 -3 -4 -25 -17 -48 -17 -28 -33 -42 -52
-45 -16 -3 -113 -21 -218 -41 -104 -20 -199 -38 -210 -40 -38 -5 -41 -14 -40
-104 1 -48 -3 -91 -7 -94 -16 -10 -202 2 -312 20 -139 24 -174 42 -576 292
-200 124 -324 198 -327 196 -3 -4 73 -216 97 -272 5 -11 43 -112 84 -225 l76
-205 -17 -80 c-9 -44 -18 -81 -19 -83 -5 -8 -216 69 -299 109 -273 130 -388
232 -710 628 l-109 134 -33 -98 c-18 -54 -35 -100 -37 -103 -8 -8 -77 174 -90
238 -22 111 -27 147 -28 207 -3 167 31 355 127 688 116 401 157 555 150 555
-3 0 -78 -54 -167 -119 -270 -197 -467 -417 -825 -921 -182 -257 -393 -576
-393 -594 0 -12 119 -210 192 -319 75 -111 202 -276 285 -370 66 -73 256 -260
322 -317 35 -30 69 -59 75 -65 20 -18 170 -130 237 -177 221 -156 553 -326
814 -418 204 -71 509 -146 671 -165 28 -3 61 -8 74 -10 100 -19 548 -27 705
-12 84 8 223 25 265 33 14 2 41 7 60 10 80 13 227 47 337 79 536 153 1036 435
1427 805 400 379 679 788 875 1283 54 135 137 407 157 511 2 11 6 30 8 41 19
96 38 211 52 320 12 91 19 251 19 410 -1 227 -11 363 -40 535 -2 14 -9 56 -15
94 -19 118 -113 466 -149 551 -5 11 -32 79 -62 150 -57 140 -150 327 -225 452
-43 71 -153 237 -181 273 -6 8 -42 54 -80 101 -390 492 -891 864 -1474 1093
-182 71 -471 153 -634 180 -33 6 -224 32 -295 41 -48 7 -546 16 -552 11z m547
-250 c17 -2 55 -7 85 -11 30 -4 71 -9 90 -12 52 -7 310 -62 319 -67 4 -3 21
-8 38 -10 16 -3 92 -27 169 -52 655 -219 1223 -641 1631 -1214 283 -398 502
-947 558 -1400 4 -30 8 -57 10 -60 9 -15 20 -230 20 -410 0 -181 -7 -323 -19
-400 -3 -14 -7 -45 -10 -70 -20 -154 -75 -388 -133 -560 -317 -951 -1066
-1711 -2008 -2039 -141 -49 -178 -61 -202 -66 -10 -2 -65 -15 -123 -29 -244
-59 -481 -87 -740 -88 -123 -1 -302 8 -347 16 -10 2 -49 7 -88 10 -38 4 -77 9
-86 12 -10 3 -30 7 -45 9 -76 12 -109 19 -239 51 -402 101 -779 276 -1114 518
-225 163 -456 382 -624 591 -79 97 -220 301 -272 392 l-19 32 69 103 c199 300
431 613 607 823 17 20 17 20 13 0 -2 -11 -13 -56 -24 -100 -45 -178 -69 -459
-48 -565 3 -14 8 -43 12 -65 30 -167 100 -353 180 -475 50 -77 86 -112 180
-174 l70 -47 24 73 c13 40 26 75 28 78 3 3 20 -13 40 -35 190 -215 328 -323
561 -438 150 -74 250 -110 379 -136 81 -17 243 -28 243 -17 0 2 12 58 26 123
30 140 30 138 47 228 13 67 13 73 -10 134 -13 35 -22 65 -21 67 2 1 35 -17 73
-40 112 -68 250 -115 380 -131 28 -4 61 -9 75 -11 14 -3 125 -7 247 -9 202 -3
222 -2 226 13 3 9 5 62 6 116 0 54 2 100 4 102 1 2 17 5 35 9 17 3 78 14 134
25 57 11 132 25 168 32 36 6 70 16 77 22 6 6 53 92 104 191 50 99 96 184 100
190 5 5 9 14 9 21 0 12 -17 19 -202 89 -105 40 -131 62 -46 39 29 -7 95 -20
147 -29 53 -9 107 -18 121 -20 77 -14 157 -19 255 -19 173 2 348 55 540 165
142 82 312 217 302 241 -3 7 -59 81 -125 163 -66 83 -119 151 -117 153 1 1 22
4 46 7 124 12 161 18 237 35 163 39 238 94 372 274 36 48 93 125 128 170 34
46 62 86 62 89 0 3 -44 30 -97 60 -108 60 -109 61 -403 222 -113 62 -221 121
-240 132 -19 11 -46 25 -58 32 -23 12 -22 14 37 42 83 38 135 76 204 145 92
93 168 222 195 334 8 35 18 387 13 458 -1 9 -10 12 -28 9 -25 -4 -411 -73
-458 -82 -11 -2 -42 -8 -70 -14 -27 -5 -52 -8 -53 -6 -4 4 100 193 131 238 10
15 16 27 12 27 -10 0 -589 101 -591 103 -1 1 -54 93 -119 204 -64 112 -121
200 -127 197 -27 -17 -628 -430 -657 -452 -46 -35 -35 -19 94 133 60 72 130
155 155 185 25 30 76 90 114 134 37 45 87 104 111 131 23 28 78 93 123 145 44
52 77 98 74 102 -4 3 -40 18 -81 32 -47 16 -121 57 -203 111 -70 47 -135 85
-142 85 -8 0 -61 -20 -118 -44 -56 -24 -202 -85 -323 -135 -121 -51 -234 -99
-252 -107 -17 -8 -36 -14 -43 -14 -6 0 -108 66 -226 146 -209 141 -216 145
-233 128 -10 -11 -114 -112 -232 -225 -118 -114 -264 -256 -326 -315 l-111
-109 -113 -307 c-62 -170 -116 -308 -119 -308 -4 0 -7 6 -8 13 -1 24 -13 122
-18 147 -2 14 -7 97 -10 185 -3 88 -9 162 -13 165 -5 3 -92 70 -196 150 -103
80 -190 145 -194 144 -5 -1 -50 -192 -65 -279 -3 -16 -12 -55 -20 -85 -7 -30
-17 -73 -20 -95 -21 -120 -80 -167 -231 -181 -33 -4 -63 -9 -68 -13 -7 -7 -33
-101 -123 -436 -13 -49 -24 -94 -24 -98 0 -5 -63 -6 -139 -3 l-139 6 3 -67 c2
-38 6 -160 10 -273 10 -340 30 -411 146 -535 l47 -50 -55 -60 c-98 -105 -136
-148 -203 -225 -36 -41 -67 -77 -70 -80 -20 -18 -226 -283 -329 -422 -67 -93
-124 -168 -126 -168 -3 0 -35 96 -40 120 -2 8 -15 62 -29 120 -22 91 -32 139
-50 236 -2 12 -7 45 -11 75 -4 30 -9 65 -10 79 -24 178 -24 572 0 740 1 14 8
63 15 110 6 47 18 113 25 148 8 34 17 74 20 90 10 60 48 194 90 317 278 829
881 1512 1670 1890 77 37 149 71 160 75 11 5 36 15 56 24 110 48 428 141 564
165 33 6 69 13 80 15 81 15 150 24 250 32 44 4 82 8 84 10 5 5 511 -4 546 -10z
m552 -4612 c-3 -3 -12 -4 -19 -1 -8 3 -5 6 6 6 11 1 17 -2 13 -5z"/>
<path d="M2865 3775 c-78 -15 -101 -30 -115 -79 -26 -93 -14 -320 19 -360 27
-32 83 -41 266 -41 251 0 278 12 288 133 5 58 10 55 -86 53 -51 -1 -71 -7 -62
-20 2 -5 -5 -17 -16 -27 -27 -25 -231 -26 -256 -2 -18 18 -25 146 -11 189 12
35 31 39 155 36 104 -3 122 -9 127 -43 3 -17 12 -19 77 -19 l74 0 0 30 c1 52
-17 105 -41 124 -14 11 -48 23 -77 27 -82 11 -277 11 -342 -1z"/>
<path d="M4777 3784 c-1 -1 -28 -5 -59 -8 -75 -7 -113 -27 -128 -68 -18 -49
-21 -260 -5 -315 20 -65 37 -80 112 -93 74 -13 277 -12 350 1 86 16 93 24 116
135 8 38 -7 46 -79 47 -63 1 -69 -1 -72 -20 -6 -40 -27 -47 -143 -47 -142 0
-144 2 -144 124 0 60 4 93 13 102 16 16 216 22 244 7 10 -6 23 -21 28 -34 9
-23 13 -24 82 -22 l73 2 -3 35 c-5 53 -21 106 -35 118 -26 21 -107 34 -225 36
-67 1 -123 1 -125 0z"/>
<path d="M1849 3763 c-4 -15 -3 -364 0 -443 l1 -26 253 1 c310 2 326 7 340
109 7 50 -9 95 -42 123 -14 13 -21 23 -15 23 7 0 19 16 29 36 36 76 -4 173
-76 188 -18 3 -134 6 -259 6 -209 0 -228 -1 -231 -17z m444 -122 c10 -40 -5
-45 -148 -44 -75 0 -139 4 -143 8 -14 14 -7 50 11 55 9 3 75 4 146 2 115 -3
129 -5 134 -21z m-10 -166 c20 -19 10 -54 -17 -60 -11 -2 -77 -3 -146 -2
l-124 2 -1 30 c-1 17 0 33 3 38 2 4 63 7 137 7 105 0 137 -3 148 -15z"/>
<path d="M3450 3544 c-63 -129 -116 -238 -118 -242 -1 -4 36 -7 84 -7 l85 1
22 39 23 40 142 0 c78 1 146 -2 150 -5 5 -3 17 -20 27 -37 11 -18 24 -34 30
-34 24 -3 165 -4 165 -2 0 2 -54 111 -120 243 l-120 241 -128 -2 -128 -1 -114
-234z m294 45 c20 -45 35 -84 33 -86 -3 -2 -43 -3 -89 -1 l-85 3 40 83 c22 45
45 82 52 82 7 0 29 -37 49 -81z"/>
<path d="M4075 3546 c0 -129 4 -238 8 -242 10 -10 467 -12 473 -2 5 7 8 75 5
105 -1 9 -45 13 -168 15 l-168 3 0 178 0 177 -75 0 -75 0 0 -234z"/>
<path d="M2458 3520 l-4 -27 120 2 c67 1 124 3 127 4 3 0 4 12 1 26 l-4 25
-118 -1 -118 -1 -4 -28z"/>
</g>
</svg>
