<svg width="192" height="192" viewBox="0 0 192 192" fill="none" xmlns="http://www.w3.org/2000/svg">
<path fill-rule="evenodd" clip-rule="evenodd" d="M95.8799 190.368C147.923 190.368 190.368 147.923 190.368 95.8803C190.368 43.8376 147.923 1.39096 95.8799 1.39096C43.8372 1.39096 1.39188 43.8376 1.39188 95.8803C1.39188 147.923 43.8372 190.368 95.8799 190.368Z" fill="#A23436"/>
<path d="M95.88 2.78267C44.5467 2.78267 2.78267 44.5453 2.78267 95.88C2.78267 147.213 44.5467 188.977 95.88 188.977C147.213 188.977 188.977 147.213 188.977 95.88C188.977 44.5453 147.213 2.78267 95.88 2.78267ZM95.88 191.759C43.012 191.759 0 148.748 0 95.88C0 43.012 43.012 -5.71485e-06 95.88 -5.71485e-06C148.748 -5.71485e-06 191.76 43.012 191.76 95.88C191.76 148.748 148.748 191.759 95.88 191.759Z" fill="white"/>
<path d="M36.5595 160.701L33.5541 157.589L33.9341 157.224L34.9181 157.815L35.9141 153.788L31.7875 154.493L32.3901 155.651L32.0221 156.005L29.6008 153.496L29.9715 153.141L31.1168 153.776L35.9781 153.076L37.3448 147.404L36.6395 146.184L37.0195 145.82L40.0235 148.931L39.6448 149.296L38.6208 148.665L37.5595 152.913L42.0301 152.135L41.4355 151.129L41.8035 150.771L44.2248 153.28L43.8541 153.636L42.7301 152.941L37.5168 153.665L36.2248 159.087L36.9368 160.336L36.5595 160.701Z" fill="white"/>
<path d="M30.6765 144.119L28.4392 140.927L25.4925 145.421L30.6765 144.119ZM36.1019 144.677L35.6712 144.979L34.6885 144.122L24.0712 146.294L23.6565 145.701L29.4499 136.641L29.0205 135.485L29.4525 135.181L31.7699 138.491L31.3379 138.793L30.3845 137.951L28.7672 140.453L31.2312 143.971L34.1059 143.263L33.6152 142.043L34.0459 141.741L36.1019 144.677Z" fill="white"/>
<path d="M22.9599 133.63L22.2132 132.223C21.8332 131.511 21.3759 131.075 20.8399 130.914C20.3039 130.755 19.6612 130.871 18.9159 131.267C18.1719 131.666 17.7145 132.131 17.5479 132.664C17.3825 133.2 17.4865 133.822 17.8665 134.535L18.6132 135.942L22.9599 133.63ZM19.4599 138.747L17.4505 134.964C16.7412 133.635 16.4452 132.567 16.5612 131.763C16.6772 130.962 17.1879 130.319 18.0905 129.838C19.1892 129.254 20.1279 129.232 20.9079 129.774C21.5959 130.258 22.2439 131.074 22.8559 132.22L23.4625 133.364L26.7785 131.599L26.3865 130.164L26.8519 129.918L28.8812 133.736L28.4172 133.983L27.4799 132.918L19.5665 137.128L19.9239 138.499L19.4599 138.747Z" fill="white"/>
<path d="M14.3044 128.192L12.8951 124.104L13.3937 123.932L14.1657 125.17L18.0937 123.818L11.8551 121.077L11.1791 119.113L11.6737 118.942L12.4804 120.321L17.1831 122.792L20.8031 116.868L20.5511 115.178L21.0497 115.006L22.0217 117.833L18.3617 123.726L22.6551 122.248L22.4857 120.802L22.9844 120.629L24.3924 124.72L23.8951 124.89L23.1271 123.665L14.6644 126.578L14.8031 128.021L14.3044 128.192Z" fill="white"/>
<path d="M10.1692 114.733L9.41721 110.475L9.93587 110.383L10.5065 111.729L19.3452 110.17L19.4065 108.714L19.9252 108.623L20.6759 112.881L20.1585 112.973L19.5919 111.642L10.7785 113.195L10.6892 114.643L10.1692 114.733Z" fill="white"/>
<path d="M13.4944 103.705L13.3944 102.572C13.2424 100.833 12.4197 100.029 10.9291 100.16C10.0771 100.233 9.54107 100.574 9.31841 101.184C9.11707 101.708 9.05441 102.413 9.13307 103.301L9.19974 104.08L13.4944 103.705ZM18.6957 103.249L18.5984 102.13C18.5104 101.12 18.2664 100.401 17.8677 99.9795C17.4691 99.5568 16.8664 99.3808 16.0651 99.4528C15.2611 99.5222 14.6917 99.7942 14.3584 100.266C14.0237 100.738 13.8984 101.452 13.9811 102.405L14.0891 103.653L18.6957 103.249ZM8.88241 106.964L8.51441 102.754C8.28241 100.12 9.03174 98.7248 10.7597 98.5728C11.4597 98.5128 12.0357 98.6862 12.4917 99.0942C12.9464 99.5022 13.2864 100.185 13.5131 101.146C13.5131 99.0795 14.3264 97.9768 15.9517 97.8355C16.7077 97.7688 17.3624 97.9728 17.9197 98.4475C18.3304 98.7928 18.6171 99.2248 18.7811 99.7422C18.9464 100.261 19.0731 101.037 19.1624 102.066L19.5117 106.034L18.9877 106.081L18.5557 104.746L9.61307 105.529L9.40641 106.918L8.88241 106.964Z" fill="white"/>
<path d="M15.9364 86.4941L18.3364 86.6621C19.1564 87.5661 19.5151 88.7714 19.4084 90.2741C19.3031 91.7781 18.7137 92.9954 17.6337 93.9221C16.5577 94.8487 15.1751 95.2527 13.4871 95.1367C11.7977 95.0181 10.4911 94.4181 9.56306 93.3367C8.63639 92.2514 8.22306 90.9621 8.33106 89.4634C8.43506 87.9647 8.90706 86.8301 9.75106 86.0621L12.0484 86.2234L11.9977 86.9607L9.69373 87.4981C9.19373 87.9861 8.91373 88.6567 8.85506 89.5061C8.77906 90.5847 9.14706 91.4914 9.95506 92.2207C10.7631 92.9541 11.9564 93.3741 13.5311 93.4861C15.1057 93.5941 16.3657 93.3581 17.3097 92.7714C18.2537 92.1861 18.7631 91.3514 18.8391 90.2621C18.9004 89.3821 18.6871 88.6407 18.1964 88.0354L15.8911 87.1621L15.9364 86.4941Z" fill="white"/>
<path d="M15.3441 79.0475L15.0948 80.6195L19.6628 81.3435L19.9121 79.7715C20.0375 78.9741 19.9548 78.3595 19.6628 77.9301C19.3708 77.4981 18.8188 77.2195 18.0028 77.0915C17.1868 76.9608 16.5721 77.0555 16.1575 77.3755C15.7428 77.6941 15.4721 78.2501 15.3441 79.0475ZM19.7748 84.2701L19.2548 84.1888L19.1481 82.7728L10.2948 81.3715L9.75612 82.6835L9.23746 82.6021L9.91346 78.3288L10.4321 78.4115L10.5295 79.8968L14.5335 80.5315L14.7375 79.2515C14.9055 78.1848 15.1095 77.4128 15.3495 76.9368C15.5855 76.4608 15.8281 76.1208 16.0695 75.9195C16.6135 75.4688 17.3735 75.3195 18.3508 75.4755C19.3308 75.6301 19.9855 76.0528 20.3135 76.7421C20.6401 77.4341 20.6855 78.5328 20.4455 80.0408L19.7748 84.2701Z" fill="white"/>
<path d="M11.6481 71.3584L12.9148 67.2224L13.4175 67.3771L13.3148 68.8331L17.2881 70.0464L13.8481 64.1611L14.4561 62.1757L14.9615 62.3304L14.8015 63.9171L17.1548 68.6837L23.5628 66.0157L24.3521 64.5024L24.8575 64.6571L23.9828 67.5117L17.5575 70.1304L21.9001 71.4584L22.6148 70.1891L23.1175 70.3437L21.8535 74.4797L21.3508 74.3251L21.4495 72.8837L12.8908 70.2651L12.1521 71.5131L11.6481 71.3584Z" fill="white"/>
<path d="M29.3337 57.2812L28.8737 57.0252L29.2564 55.6918L21.6284 51.4638L27.0044 59.9252L27.7071 59.1292L28.1671 59.3825L26.0711 63.1652L25.6097 62.9118L25.9951 61.5452L18.1564 57.1998L17.2004 58.2492L16.7404 57.9932L18.8364 54.2118L19.2978 54.4665L18.8804 55.8932L26.4804 60.1078L21.1164 51.6532L20.4644 52.3652L20.0018 52.1078L22.0978 48.3265L22.5604 48.5825L22.1404 50.0412L29.9671 54.3785L30.9697 53.2425L31.4298 53.4985L29.3337 57.2812Z" fill="white"/>
<path d="M36.8689 46.2701L36.4543 45.9447L37.0396 44.6887L30.1689 39.3207L34.1556 48.5181L34.9743 47.8407L35.3889 48.1647L32.7276 51.5701L32.3129 51.2487L32.9036 49.9581L25.8436 44.4421L24.7356 45.3287L24.3209 45.0034L26.9823 41.5981L27.3969 41.9207L26.7609 43.2647L33.6103 48.6154L29.6356 39.4274L28.8769 40.0261L28.4623 39.7034L31.1249 36.2941L31.5396 36.6194L30.8969 37.9954L37.9476 43.5021L39.1169 42.5394L39.5303 42.8621L36.8689 46.2701ZM26.6076 37.2954L26.8703 36.9581C27.4236 37.3901 27.7049 37.9154 27.7223 38.5274C27.7356 39.1407 27.5409 39.7047 27.1383 40.2194C26.7356 40.7341 26.2316 41.0621 25.6329 41.1994C25.0303 41.3394 24.4529 41.1927 23.9009 40.7581L24.1809 40.4007C24.4796 40.6341 24.8356 40.6634 25.2503 40.4874C25.6663 40.3127 26.0329 40.0154 26.3583 39.6007C26.6836 39.1861 26.8796 38.7567 26.9489 38.3127C27.0196 37.8674 26.9063 37.5301 26.6076 37.2954Z" fill="white"/>
<path d="M44.2617 38.6141L43.9297 38.2061L44.8191 37.0648L39.1871 30.1088L37.8751 30.7301L37.5457 30.3208L46.1377 23.3621L46.4697 23.7728L45.5471 24.9395L51.1897 31.9075L52.5217 31.2475L52.8537 31.6555L49.4911 34.3781L49.1604 33.9701L50.0271 32.8461L44.2591 25.7248L40.2137 29.0021L45.9884 36.1355L47.2924 35.4835L47.6217 35.8941L44.2617 38.6141Z" fill="white"/>
<path d="M52.2528 25.8597C51.4488 24.349 51.2288 22.9237 51.5915 21.5877C51.9555 20.2503 52.7955 19.2317 54.1168 18.529C55.4355 17.8277 56.7488 17.7157 58.0608 18.1904C59.3701 18.665 60.4181 19.641 61.2075 21.1237C61.9955 22.6063 62.2181 24.0143 61.8768 25.3517C61.5355 26.6903 60.6888 27.717 59.3408 28.433C57.9915 29.149 56.6755 29.277 55.3875 28.817C54.1021 28.3597 53.0568 27.373 52.2528 25.8597ZM59.7595 21.8544C58.9808 20.393 58.1315 19.4277 57.2141 18.961C56.2941 18.493 55.3408 18.5223 54.3581 19.0463C53.3741 19.5677 52.8288 20.3477 52.7221 21.3797C52.6181 22.413 52.9448 23.6477 53.7061 25.0797C54.4675 26.5117 55.3021 27.4797 56.2088 27.9797C57.1141 28.481 58.0555 28.4717 59.0355 27.9517C60.0141 27.4303 60.5741 26.649 60.7141 25.609C60.8541 24.5677 60.5368 23.3157 59.7595 21.8544Z" fill="white"/>
<path d="M64.9345 25.3239L64.7519 24.8465L65.7332 24.0745L65.9852 13.4945L66.7679 13.1932L73.9559 20.9625L75.2745 20.7919L75.4639 21.2825L71.4279 22.8305L71.2385 22.3399L72.4025 21.5599L66.5559 15.1812L66.7799 24.6172L64.9345 25.3239Z" fill="white"/>
<path d="M75.1828 10.6839L79.3975 9.70928L79.5161 10.2239L78.2015 10.8613L80.2228 19.6079L81.6788 19.5919L81.7975 20.1039L77.5828 21.0786L77.4641 20.5639L78.7641 19.9279L76.7508 11.2106L75.3015 11.1959L75.1828 10.6839Z" fill="white"/>
<path d="M86.3539 19.4115L86.3085 18.8875L87.6565 18.4408L86.8512 9.27283L84.2592 9.49817L83.8872 11.6155L83.1499 11.6808L82.9152 9.00217L92.2139 8.18883L92.4472 10.8675L91.7112 10.9328L90.9765 8.91283L88.3419 9.14217L89.1459 18.3248L90.6179 18.5102L90.6632 19.0368L86.3539 19.4115Z" fill="white"/>
<path d="M94.9871 8.14855L102.826 8.28588L102.78 10.8326L102.04 10.8192L101.519 8.87655L97.8791 8.81255L97.8057 13.0646L100.548 13.1126L100.954 11.8819L101.48 11.8912L101.431 14.8339L100.904 14.8246L100.539 13.7379L97.7937 13.6912L97.7151 18.2566L101.611 18.3232L102.199 16.4139L102.954 16.4259L102.908 18.9579L94.8031 18.8166L94.8111 18.2899L96.2257 17.9886L96.3817 9.04322L94.9777 8.67522L94.9871 8.14855Z" fill="white"/>
<path d="M106.986 8.85791L111.246 9.60991L111.153 10.1272L110.01 10.2286L111.57 14.0712L114.497 11.0779L113.327 10.4966L113.415 9.99125L116.85 10.5966L116.759 11.1019L115.461 11.2632L111.938 14.6846L114.167 20.0752L115.453 20.6499L115.359 21.1686L111.101 20.4166L111.194 19.8979L112.393 19.8072L110.754 15.7472L107.595 19.0032L108.67 19.4686L108.579 19.9712L105.147 19.3659L105.235 18.8646L106.554 18.7619L110.347 15.1112L108.205 9.96725L106.895 9.37658L106.986 8.85791Z" fill="white"/>
<path d="M123.792 24.0433L123.997 23.5593L125.404 23.8153L127.077 19.874L122.284 17.8393L120.612 21.7807L121.797 22.6247L121.593 23.1113L117.597 21.4153L117.804 20.9287L119.236 21.1967L122.737 12.946L121.563 12.0767L121.767 11.5913L125.76 13.2873L125.556 13.7713L124.112 13.53L122.535 17.2513L127.328 19.286L128.905 15.5647L127.755 14.706L127.961 14.222L131.943 15.9113L131.736 16.3967L130.288 16.1367L126.785 24.3873L127.98 25.25L127.773 25.734L123.792 24.0433Z" fill="white"/>
<path d="M135.482 17.4931L139.265 19.5891L139.009 20.0491L137.607 19.6465L133.255 27.4958L134.349 28.4611L134.093 28.9211L130.309 26.8251L130.566 26.3651L131.955 26.7611L136.293 18.9345L135.226 17.9531L135.482 17.4931Z" fill="white"/>
<path d="M142.221 21.2136L145.718 23.7536L145.41 24.1802L144.066 23.6096L142.814 25.3349C142.322 26.0109 142.13 26.6496 142.235 27.2549C142.342 27.8589 142.723 28.4016 143.385 28.8816L145.351 30.3109L148.095 26.5349L147.17 25.4589L147.481 25.0349L150.979 27.5762L150.67 28.0016L149.283 27.4176L144.023 34.6562L145.017 35.7816L144.709 36.2069L141.209 33.6669L141.519 33.2402L142.827 33.7856L145.035 30.7469L143.309 29.4936C142.266 28.7362 141.547 27.9802 141.155 27.2282C140.719 26.3936 140.862 25.4776 141.587 24.4789L142.849 22.7429L141.913 21.6389L142.221 21.2136Z" fill="white"/>
<path d="M151.307 42.4206L151.691 42.0619L152.87 42.8686L156.002 39.9473L152.45 36.1406L149.319 39.0606L150.062 40.3153L149.675 40.6726L146.715 37.4993L147.102 37.1419L148.299 37.9699L154.855 31.8553L154.134 30.5819L154.521 30.2233L157.478 33.3966L157.094 33.7553L155.875 32.9486L152.919 35.7046L156.47 39.5113L159.425 36.7579L158.723 35.5033L159.11 35.1446L162.058 38.3086L161.674 38.6673L160.454 37.8379L153.899 43.9499L154.639 45.2259L154.255 45.5846L151.307 42.4206Z" fill="white"/>
<path d="M159.732 52.7632L160.161 52.4592L161.193 53.3859L168.336 48.3872L158.373 49.5086L158.784 50.4912L158.352 50.7926L155.871 47.2512L156.303 46.9486L157.363 47.8912L164.703 42.7526L164.179 41.4339L164.611 41.1326L167.091 44.6739L166.66 44.9779L165.559 43.9766L158.44 48.9592L168.391 47.8446L168.04 46.9459L168.468 46.6446L170.949 50.1846L170.517 50.4859L169.392 49.4712L162.06 54.6032L162.641 56.0032L162.211 56.3032L159.732 52.7632Z" fill="white"/>
<path d="M166.148 64.4336L166.629 64.2203L167.464 65.3283L175.431 61.7803L165.436 60.9829L165.652 62.0243L165.171 62.2376L163.411 58.2896L163.892 58.0736L164.753 59.2016L172.94 55.5576L172.676 54.1629L173.159 53.9483L174.916 57.9003L174.436 58.1136L173.547 56.9203L165.607 60.4563L175.587 61.2603L175.413 60.3096L175.892 60.0963L177.652 64.0443L177.171 64.2603L176.257 63.0469L168.085 66.6869L168.389 68.1709L167.907 68.3843L166.148 64.4336ZM178.891 59.5856L179.064 59.9776C178.423 60.2616 177.828 60.2669 177.28 59.9923C176.732 59.7163 176.324 59.2803 176.059 58.6829C175.793 58.0856 175.741 57.4869 175.9 56.8923C176.061 56.2976 176.461 55.8549 177.103 55.5709L177.287 55.9856C176.941 56.1429 176.749 56.4443 176.708 56.8923C176.671 57.3403 176.759 57.8029 176.972 58.2843C177.185 58.7656 177.472 59.1403 177.832 59.4109C178.191 59.6829 178.544 59.7403 178.891 59.5856Z" fill="white"/>
<path d="M180.61 72.481L181.509 76.7116L180.994 76.821L180.381 75.497L171.598 77.3636L171.589 78.8196L171.072 78.929L170.173 74.6983L170.688 74.589L171.302 75.8983L180.056 74.0396L180.096 72.5903L180.61 72.481Z" fill="white"/>
<path d="M172.638 88.3701L173.16 88.3061L173.638 89.6514L177.889 89.1288L177.256 83.9608L173.005 84.4834L172.868 85.9341L172.346 85.9981L171.817 81.6914L172.34 81.6274L172.824 83.0008L181.72 81.9101L181.882 80.4554L182.406 80.3928L182.936 84.6981L182.412 84.7634L181.898 83.3928L177.892 83.8848L178.524 89.0501L182.534 88.5594L182.704 87.1341L183.225 87.0701L183.753 91.3608L183.229 91.4248L182.732 90.0394L173.836 91.1328L173.686 92.5994L173.165 92.6621L172.638 88.3701Z" fill="white"/>
<path d="M176.256 103.496L173.853 103.456C172.985 102.595 172.565 101.412 172.592 99.9055C172.617 98.3975 173.144 97.1521 174.173 96.1708C175.201 95.1868 176.56 94.7095 178.253 94.7401C179.944 94.7695 181.281 95.3001 182.265 96.3321C183.248 97.3641 183.726 98.6321 183.7 100.133C183.672 101.637 183.26 102.795 182.457 103.605L180.154 103.565L180.166 102.825L182.441 102.168C182.913 101.653 183.157 100.971 183.174 100.117C183.193 99.0375 182.777 98.1535 181.932 97.4655C181.085 96.7748 179.872 96.4175 178.296 96.3908C176.716 96.3628 175.472 96.6655 174.557 97.3001C173.648 97.9321 173.18 98.7961 173.161 99.8868C173.146 100.769 173.398 101.497 173.92 102.076L176.268 102.828L176.256 103.496Z" fill="white"/>
<path d="M172.019 107.952L172.535 108.043L172.619 109.459L181.683 111.056L182.136 108.494L180.187 107.584L180.313 106.856L182.961 107.324L181.341 116.514L178.695 116.047L178.823 115.319L180.964 115.134L181.424 112.527L172.345 110.926L171.787 112.302L171.267 112.21L172.019 107.952Z" fill="white"/>
<path d="M168.185 122.775L168.685 122.938L168.566 124.319L176.857 127.015L169.965 119.734L169.427 120.653L168.927 120.489L170.265 116.377L170.765 116.541L170.649 117.954L179.173 120.721L179.91 119.511L180.41 119.673L179.073 123.786L178.571 123.625L178.71 122.142L170.445 119.457L177.325 126.731L177.83 125.91L178.33 126.071L176.995 130.183L176.494 130.023L176.627 128.51L168.118 125.745L167.35 127.051L166.85 126.887L168.185 122.775Z" fill="white"/>
<path d="M164.749 130.551L165.209 130.805L164.828 132.171L172.876 136.633L174.139 134.355L172.592 132.863L172.951 132.217L175.3 133.521L170.777 141.681L168.425 140.379L168.785 139.731L170.871 140.254L172.153 137.939L164.089 133.471L163.113 134.587L162.652 134.331L164.749 130.551Z" fill="white"/>
<path d="M160.009 138.705L160.436 139.015L159.723 140.675L161.131 143.915L167.949 144.527L168.96 143.645L169.387 143.954L167.012 147.221L166.585 146.913L166.953 145.947L161.703 145.405L163.865 150.125L164.807 149.385L165.223 149.686L163.173 152.506L162.76 152.203L163.177 151.047L158.404 140.915L160.009 138.705Z" fill="white"/>
<path d="M152.089 148.753L152.469 149.12L151.745 150.34L158.365 156.733L160.174 154.86L159.066 153.02L159.578 152.485L161.514 154.355L155.03 161.067L153.097 159.2L153.609 158.669L155.49 159.712L157.328 157.808L150.697 151.405L149.464 152.229L149.084 151.865L152.089 148.753Z" fill="white"/>
<path d="M33.7447 157.593L36.5633 160.511L36.7687 160.313L36.082 159.106L36.094 159.055L37.4087 153.543L42.7593 152.802L43.8367 153.467L44.034 153.277L41.8007 150.961L41.6047 151.151L42.2447 152.234L37.3793 153.081L38.534 148.455L39.6273 149.127L39.834 148.927L37.0167 146.009L36.8087 146.209L37.4873 147.383L37.474 147.435L36.0873 153.197L31.0913 153.915L29.9927 153.306L29.7913 153.501L32.026 155.815L32.2247 155.623L31.5833 154.391L36.094 153.621L35.0047 158.023L33.9527 157.393L33.7447 157.593ZM36.5567 160.891L33.3647 157.586L33.9153 157.057L34.8313 157.606L35.7353 153.954L31.9913 154.594L32.5553 155.677L32.0193 156.195L29.4113 153.493L29.95 152.975L31.142 153.637L35.8687 152.957L37.2007 147.425L36.4713 146.161L37.0233 145.63L40.214 148.934L39.6633 149.465L38.706 148.875L37.7407 152.746L41.8167 152.037L41.266 151.106L41.806 150.581L44.414 153.285L43.8713 153.805L42.7007 153.081L37.6273 153.785L36.3673 159.066L37.1047 160.361L36.5567 160.891Z" fill="white"/>
<path d="M28.4439 141.166L25.7932 145.206L30.4545 144.037L28.4439 141.166ZM25.1919 145.635L28.4359 140.689L30.8985 144.202L25.1919 145.635ZM23.8185 145.698L24.1319 146.145L34.7279 143.977L35.6799 144.809L35.9159 144.643L34.0145 141.927L33.7785 142.093L34.2879 143.355L31.1745 144.125L28.6065 140.455L30.3572 137.747L31.3479 138.622L31.5825 138.458L29.4199 135.367L29.1839 135.534L29.5999 136.657L23.8185 145.698ZM24.0132 146.443L23.4959 145.705L29.3012 136.625L28.8599 135.434L29.4852 134.994L31.9559 138.525L31.3279 138.963L30.4132 138.154L28.9292 140.449L31.2892 143.819L33.9239 143.169L33.4505 141.995L34.0799 141.554L36.2892 144.709L35.6625 145.15L34.6505 144.266L24.0132 146.443Z" fill="white"/>
<path d="M20.352 130.98C19.948 130.98 19.488 131.116 18.98 131.385C18.268 131.767 17.8293 132.211 17.676 132.704C17.5213 133.203 17.6253 133.797 17.984 134.472L18.668 135.76L22.7787 133.575L22.0947 132.287C21.7347 131.611 21.3 131.192 20.8013 131.043C20.66 131.001 20.5107 130.98 20.352 130.98ZM18.5573 136.123L17.7467 134.599C17.3533 133.859 17.2427 133.195 17.42 132.624C17.5947 132.061 18.0773 131.564 18.8533 131.148C19.6253 130.737 20.3067 130.616 20.8787 130.785C21.448 130.956 21.936 131.419 22.3307 132.16L23.1413 133.685L18.5573 136.123ZM19.6707 129.515C19.2107 129.515 18.708 129.661 18.1547 129.956C17.2947 130.415 16.8027 131.029 16.6947 131.783C16.5827 132.555 16.8773 133.604 17.5693 134.901L19.5147 138.565L19.768 138.431L19.4093 137.059L19.5027 137.009L27.5107 132.749L28.448 133.815L28.7 133.681L26.796 130.1L26.544 130.233L26.9347 131.668L23.408 133.545L22.7373 132.284C22.1373 131.159 21.496 130.351 20.8307 129.884C20.4773 129.639 20.092 129.515 19.6707 129.515ZM19.404 138.929L17.332 135.028C16.612 133.679 16.308 132.573 16.4293 131.744C16.5507 130.901 17.088 130.22 18.028 129.719C19.1693 129.112 20.164 129.093 20.9853 129.664C21.6853 130.156 22.3547 130.995 22.9747 132.157L23.5187 133.183L26.62 131.532L26.2293 130.096L26.908 129.736L29.064 133.792L28.3867 134.151L27.4493 133.087L19.7227 137.196L20.08 138.567L19.404 138.929Z" fill="white"/>
<path d="M11.9627 120.978L18.208 123.722L21.8733 117.815L20.9653 115.177L20.7 115.269L20.9427 116.895L20.9173 116.937L17.232 122.969L12.384 120.422L11.6133 119.105L11.3493 119.197L11.9627 120.978ZM13.0667 124.186L14.388 128.021L14.6587 127.929L14.5213 126.486L23.184 123.503L23.952 124.729L24.2227 124.637L22.9013 120.799L22.632 120.894L22.8 122.339L18.4627 123.834L14.1093 125.331L13.336 124.093L13.0667 124.186ZM14.2213 128.362L12.7253 124.019L13.4507 123.77L14.224 125.009L17.7253 123.803L11.7467 121.175L11.008 119.03L11.7347 118.779L12.5773 120.219L17.1347 122.614L20.6627 116.839L20.4027 115.089L21.132 114.834L22.1693 117.85L22.1347 117.903L18.676 123.477L22.5093 122.157L22.34 120.71L23.068 120.458L24.564 124.803L23.8373 125.053L23.0693 123.826L14.8093 126.671L14.9467 128.114L14.2213 128.362Z" fill="white"/>
<path d="M9.57333 110.585L10.2773 114.578L10.5613 114.529L10.6507 113.082L19.6733 111.493L20.24 112.822L20.5187 112.773L19.8173 108.779L19.536 108.827L19.4747 110.283L10.424 111.879L9.85466 110.534L9.57333 110.585ZM10.06 114.887L9.26266 110.367L10.0187 110.231L10.588 111.578L19.216 110.057L19.2773 108.599L20.0347 108.469L20.8307 112.989L20.076 113.125L19.5093 111.793L10.9067 113.31L10.816 114.757L10.06 114.887Z" fill="white"/>
<path d="M16.3983 99.5718C16.2956 99.5718 16.1889 99.5758 16.0769 99.5865C15.3183 99.6518 14.7769 99.9065 14.4676 100.344C14.1529 100.786 14.0356 101.476 14.1143 102.393L14.2116 103.508L18.5503 103.128L18.4649 102.141C18.3796 101.166 18.1476 100.47 17.7703 100.07C17.4569 99.7385 16.9956 99.5718 16.3983 99.5718ZM13.9676 103.797L13.8476 102.417C13.7623 101.433 13.8969 100.684 14.2489 100.188C14.6063 99.6838 15.2129 99.3905 16.0543 99.3198C16.8956 99.2385 17.5383 99.4358 17.9649 99.8865C18.3849 100.33 18.6423 101.082 18.7316 102.118L18.8409 103.372L13.9676 103.797ZM11.2276 100.28C11.1343 100.28 11.0383 100.284 10.9409 100.293C10.1396 100.362 9.65026 100.669 9.44492 101.23C9.25026 101.734 9.19159 102.426 9.26626 103.29L9.32226 103.934L13.3489 103.582L13.2609 102.582C13.1889 101.75 12.9556 101.137 12.5703 100.761C12.2436 100.441 11.7929 100.28 11.2276 100.28ZM9.07692 104.225L8.99959 103.313C8.92093 102.409 8.98493 101.677 9.19293 101.136C9.43426 100.477 10.0143 100.102 10.9169 100.025C11.6969 99.9531 12.3196 100.14 12.7583 100.569C13.1916 100.992 13.4503 101.661 13.5289 102.56L13.6396 103.826L9.07692 104.225ZM11.0263 98.6945C10.9436 98.6945 10.8583 98.6985 10.7716 98.7065C9.94893 98.7785 9.37559 99.1345 9.02092 99.7958C8.65959 100.466 8.53559 101.457 8.64893 102.742L9.00359 106.818L9.28893 106.794L9.49559 105.405L18.6503 104.602L19.0823 105.937L19.3663 105.912L19.0289 102.078C18.9396 101.056 18.8143 100.284 18.6529 99.7825C18.4969 99.2918 18.2223 98.8771 17.8329 98.5491C17.3009 98.0958 16.6929 97.9091 15.9636 97.9678C14.4049 98.1051 13.6476 99.1451 13.6476 101.145V102.294L13.3823 101.176C13.1636 100.246 12.8329 99.5798 12.4023 99.1945C12.0289 98.8598 11.5769 98.6945 11.0263 98.6945ZM8.75959 107.109L8.38092 102.766C8.26226 101.428 8.39826 100.385 8.78359 99.6691C9.17959 98.9331 9.84092 98.5185 10.7489 98.4385C11.4836 98.3771 12.1009 98.5638 12.5809 98.9945C12.9276 99.3051 13.2063 99.7545 13.4236 100.358C13.6183 98.7238 14.4623 97.8305 15.9396 97.7011C16.7236 97.6278 17.4236 97.8478 18.0076 98.3451C18.4343 98.7051 18.7369 99.1611 18.9089 99.7011C19.0769 100.228 19.2036 100.998 19.2956 102.054L19.6569 106.156L18.8929 106.224L18.4609 104.889L9.73026 105.653L9.52359 107.042L8.75959 107.109Z" fill="white"/>
<path d="M9.80001 86.2C9.01334 86.94 8.56401 88.04 8.46534 89.472C8.36134 90.9253 8.76534 92.196 9.66534 93.2493C10.564 94.2973 11.8533 94.8866 13.496 95.0026C15.144 95.1213 16.5053 94.7173 17.5467 93.82C18.592 92.9226 19.1733 91.7266 19.2733 90.2653C19.376 88.828 19.0387 87.66 18.272 86.792L16.0613 86.6373L16.032 87.072L18.2773 87.9226L18.3 87.9506C18.8107 88.58 19.0373 89.36 18.9733 90.272C18.8933 91.3986 18.3587 92.2786 17.3813 92.8853C16.4173 93.4826 15.1227 93.732 13.5227 93.62C11.9213 93.5053 10.6893 93.068 9.86534 92.32C9.02668 91.564 8.64134 90.6146 8.72001 89.496C8.78268 88.616 9.07734 87.912 9.60001 87.4013L9.62668 87.3746L11.8707 86.8533L11.9053 86.348L9.80001 86.2ZM14.0333 95.2893C13.852 95.2893 13.6667 95.2826 13.4773 95.2706C11.76 95.1493 10.4093 94.528 9.46134 93.4226C8.51334 92.3146 8.08801 90.9786 8.19601 89.4533C8.30268 87.9253 8.79601 86.7506 9.66134 85.9626L9.70268 85.924L12.192 86.0986L12.124 87.0693L9.76134 87.62C9.30401 88.08 9.04401 88.7173 8.98934 89.5146C8.91601 90.5466 9.27201 91.4226 10.0453 92.1213C10.8253 92.828 12.0013 93.2426 13.5413 93.352C15.0773 93.4613 16.3253 93.224 17.2387 92.6573C18.152 92.0906 18.632 91.304 18.7053 90.2533C18.764 89.4253 18.5653 88.7173 18.1147 88.148L15.7507 87.2533L15.812 86.3506L18.3987 86.532L18.436 86.572C19.2787 87.5 19.6507 88.7493 19.5427 90.284C19.436 91.82 18.8227 93.0773 17.7213 94.024C16.7453 94.8653 15.5067 95.2893 14.0333 95.2893Z" fill="white"/>
<path d="M15.2485 80.5087L19.5512 81.19L19.7792 79.75C19.8992 78.9913 19.8232 78.4047 19.5525 78.006C19.2819 77.6073 18.7539 77.3447 17.9819 77.2233C17.2059 77.098 16.6219 77.1873 16.2405 77.4807C15.8552 77.7767 15.5992 78.31 15.4765 79.0687L15.2485 80.5087ZM19.7739 81.4967L14.9419 80.7313L15.2112 79.026C15.3445 78.198 15.6365 77.606 16.0765 77.2687C16.5192 76.926 17.1739 76.822 18.0245 76.958C18.8725 77.0913 19.4619 77.394 19.7752 77.8553C20.0845 78.3127 20.1752 78.9633 20.0445 79.7913L19.7739 81.4967ZM19.3805 84.0727L19.6632 84.118L20.3125 80.0207C20.5472 78.55 20.5059 77.466 20.1925 76.7993C19.8859 76.1553 19.2605 75.7553 18.3312 75.6087C17.4005 75.4607 16.6672 75.5993 16.1565 76.0233C15.9272 76.214 15.6952 76.5407 15.4699 76.9967C15.2365 77.458 15.0352 78.2247 14.8699 79.2727L14.6445 80.686L10.4032 80.0127L10.3059 78.5273L10.0245 78.482L9.39119 82.49L9.67252 82.534L10.2112 81.2233L10.3152 81.2393L19.2739 82.658L19.3805 84.0727ZM19.8859 84.4233L19.1299 84.3047L19.0232 82.89L10.3792 81.5207L9.84052 82.8327L9.08319 82.714L9.80186 78.1753L10.5592 78.2953L10.6565 79.7807L14.4219 80.378L14.6045 79.2313C14.7739 78.1553 14.9845 77.3633 15.2285 76.8753C15.4712 76.3887 15.7259 76.0313 15.9845 75.8167C16.5579 75.3407 17.3605 75.182 18.3725 75.3433C19.3939 75.5047 20.0885 75.9553 20.4339 76.6847C20.7725 77.4007 20.8205 78.538 20.5779 80.062L19.8859 84.4233Z" fill="white"/>
<path d="M13.9947 64.1441L17.436 70.0347L17.5067 70.0054L23.8733 67.4121L24.6893 64.7454L24.42 64.6641L23.66 66.1214L23.6147 66.1401L17.0907 68.8561L14.664 63.9414L14.8173 62.4267L14.5453 62.3427L13.9947 64.1441ZM21.492 74.2281L21.764 74.3121L22.9493 70.4334L22.6787 70.3494L21.9653 71.6187L21.8613 71.5867L17.1587 70.1481L13.1733 68.9294L13.276 67.4734L13.004 67.3907L11.816 71.2694L12.0907 71.3534L12.828 70.1067L12.9293 70.1374L21.5907 72.7867L21.492 74.2281ZM21.9413 74.6467L21.2093 74.4227L21.308 72.9801L12.952 70.4254L12.2147 71.6721L11.4813 71.4481L12.8253 67.0561L13.5587 67.2801L13.456 68.7361L16.9987 69.8187L13.7027 64.1774L14.3667 62.0081L15.1053 62.2334L14.9387 63.8921L17.2187 68.5107L23.4667 65.9107L24.2853 64.3414L25.0253 64.5667L24.092 67.6121L24.0333 67.6361L17.9573 70.1121L21.8373 71.2987L22.5507 70.0294L23.284 70.2547L21.9413 74.6467Z" fill="white"/>
<path d="M25.768 62.8445L26.0173 62.9832L27.9853 59.4352L27.736 59.2978L26.988 60.1485L21.2333 51.0912L29.4133 55.6258L29.032 56.9592L29.2813 57.0978L31.248 53.5498L31 53.4125L29.996 54.5485L29.9027 54.4952L21.9827 50.1058L22.4013 48.6472L22.1507 48.5085L20.184 52.0565L20.436 52.1965L21.136 51.4325L21.2293 51.5818L26.876 60.4805L18.7213 55.9592L19.1387 54.5312L18.8893 54.3952L16.9227 57.9405L17.1733 58.0792L18.1293 57.0325L26.1533 61.4792L25.768 62.8445ZM26.1227 63.3472L25.452 62.9778L25.836 61.6112L18.1853 57.3698L17.228 58.4178L16.5587 58.0445L18.784 54.0298L19.456 54.4005L19.0387 55.8285L26.0853 59.7352L21.0973 51.8725L20.4907 52.5338L19.8187 52.1605L22.0453 48.1432L22.7187 48.5152L22.2987 49.9752L29.9373 54.2085L30.9413 53.0725L31.612 53.4458L29.3853 57.4645L28.7147 57.0898L29.0973 55.7578L22.024 51.8365L27.0227 59.7032L27.6773 58.9592L28.3493 59.3298L26.1227 63.3472Z" fill="white"/>
<path d="M24.0909 40.7326C24.5789 41.0806 25.0763 41.1926 25.6029 41.0686C26.1696 40.9393 26.6509 40.6246 27.0323 40.1379C27.4136 39.6499 27.6003 39.1099 27.5883 38.5299C27.5723 37.9926 27.3443 37.5393 26.8923 37.1486L26.7909 37.2793C27.0536 37.5379 27.1509 37.8926 27.0816 38.3339C27.0083 38.7979 26.8016 39.2526 26.4629 39.6833C26.1243 40.1166 25.7336 40.4286 25.3029 40.6113C24.8909 40.7859 24.5229 40.7766 24.2083 40.5833L24.0909 40.7326ZM25.2003 41.3846C24.7229 41.3846 24.2589 41.2099 23.8176 40.8633L23.7123 40.7806L24.1576 40.2126L24.2629 40.2953C24.5216 40.4979 24.8283 40.5206 25.1989 40.3646C25.5923 40.1979 25.9376 39.9206 26.2523 39.5179C26.5616 39.1233 26.7509 38.7113 26.8149 38.2913C26.8789 37.8966 26.7843 37.6046 26.5243 37.4006L26.4189 37.3179L26.8469 36.7699L26.9523 36.8526C27.5349 37.3073 27.8376 37.8699 27.8563 38.5233C27.8696 39.1673 27.6643 39.7659 27.2429 40.3033C26.8229 40.8406 26.2909 41.1859 25.6629 41.3313C25.5069 41.3673 25.3523 41.3846 25.2003 41.3846ZM32.4789 51.2073L32.7043 51.3819L35.2016 48.1873L34.9763 48.0126L34.1029 48.7353L29.8363 38.8913L37.2056 44.6486L36.6203 45.9046L36.8456 46.0806L39.3416 42.8846L39.1189 42.7113L37.9496 43.6739L37.8656 43.6073L30.7309 38.0353L31.3736 36.6593L31.1469 36.4833L28.6509 39.6793L28.8763 39.8553L29.6896 39.2139L33.9429 49.0446L26.5936 43.3046L27.2296 41.9606L27.0056 41.7859L24.5083 44.9806L24.7349 45.1566L25.8416 44.2699L33.0696 49.9179L32.4789 51.2073ZM32.7523 51.7593L32.1469 51.2886L32.7376 49.9979L25.8443 44.6126L24.7363 45.4993L24.1323 45.0259L26.9576 41.4099L27.5643 41.8806L26.9283 43.2259L33.2789 48.1859L29.5816 39.6406L28.8776 40.1966L28.2736 39.7273L31.1016 36.1059L31.7069 36.5806L31.0643 37.9553L37.9456 43.3299L39.1149 42.3673L39.7176 42.8393L36.8923 46.4579L36.2869 45.9846L36.8723 44.7286L30.5016 39.7513L34.2069 48.3006L34.9709 47.6673L35.5776 48.1419L32.7523 51.7593Z" fill="white"/>
<path d="M44.1007 38.2041L44.2807 38.4254L47.434 35.8734L47.2567 35.6521L45.9513 36.3041L40.0247 28.9827L44.278 25.5361L50.198 32.8441L49.3327 33.9694L49.5113 34.1894L52.6647 31.6361L52.486 31.4161L51.1527 32.0747L45.3753 24.9414L46.298 23.7734L46.118 23.5521L37.734 30.3414L37.9127 30.5641L39.2247 29.9427L44.99 37.0641L44.1007 38.2041ZM44.242 38.8027L43.758 38.2081L44.6473 37.0667L39.1487 30.2761L37.8367 30.8974L37.3567 30.3001L46.1567 23.1747L46.642 23.7707L45.7193 24.9387L51.226 31.7387L52.558 31.0801L53.0433 31.6761L49.4713 34.5667L48.99 33.9734L49.8553 32.8481L44.2393 25.9134L40.402 29.0214L46.0247 35.9681L47.3287 35.3147L47.81 35.9134L44.242 38.8027Z" fill="white"/>
<path d="M55.8931 18.7671C55.4104 18.7671 54.9184 18.9004 54.4211 19.1644C53.4837 19.6618 52.9571 20.4111 52.8557 21.3938C52.7544 22.3978 53.0811 23.6164 53.8251 25.0164C54.5704 26.4191 55.3944 27.3764 56.2731 27.8631C57.1437 28.3444 58.0291 28.3351 58.9731 27.8324C59.9211 27.3284 60.4464 26.5951 60.5824 25.5911C60.7171 24.5804 60.4011 23.3458 59.6411 21.9178C58.8797 20.4884 58.0424 19.5324 57.1531 19.0804C56.7424 18.8711 56.3211 18.7671 55.8931 18.7671ZM57.5677 28.4818C57.0824 28.4818 56.6077 28.3538 56.1424 28.0978C55.2184 27.5858 54.3584 26.5924 53.5877 25.1431C52.8184 23.6951 52.4824 22.4244 52.5891 21.3658C52.6997 20.2898 53.2744 19.4684 54.2957 18.9284C55.3144 18.3831 56.3171 18.3538 57.2744 18.8404C58.2144 19.3191 59.0891 20.3124 59.8771 21.7911C60.6651 23.2698 60.9917 24.5604 60.8477 25.6258C60.7024 26.7071 60.1144 27.5284 59.0984 28.0698C58.5811 28.3444 58.0691 28.4818 57.5677 28.4818ZM56.4731 18.0391C55.7077 18.0391 54.9424 18.2418 54.1797 18.6484C52.9011 19.3271 52.0744 20.3271 51.7211 21.6231C51.3677 22.9191 51.5877 24.3231 52.3717 25.7964C53.1557 27.2724 54.1851 28.2458 55.4331 28.6911C56.6757 29.1351 57.9717 29.0084 59.2784 28.3151C60.5877 27.6191 61.4171 26.6111 61.7464 25.3191C62.0784 24.0218 61.8571 22.6311 61.0891 21.1871C60.3197 19.7431 59.2851 18.7764 58.0144 18.3164C57.5037 18.1311 56.9891 18.0391 56.4731 18.0391ZM56.9091 29.2191C56.3811 29.2191 55.8584 29.1284 55.3424 28.9431C54.0304 28.4764 52.9504 27.4604 52.1344 25.9231C51.3171 24.3871 51.0904 22.9178 51.4611 21.5524C51.8357 20.1831 52.7077 19.1258 54.0544 18.4111C55.3984 17.6951 56.7611 17.5778 58.1064 18.0644C59.4411 18.5484 60.5251 19.5564 61.3264 21.0604C62.1264 22.5658 62.3544 24.0204 62.0064 25.3858C61.6584 26.7538 60.7824 27.8191 59.4051 28.5511C58.5651 28.9964 57.7304 29.2191 56.9091 29.2191Z" fill="white"/>
<path d="M64.9126 24.8915L65.0126 25.1502L66.6432 24.5262L66.4139 14.8262L72.6072 21.5848L71.4019 22.3915L71.5045 22.6582L75.2912 21.2062L75.1872 20.9382L73.9045 21.1048L66.7312 13.3515L66.1166 13.5875L65.8659 24.1408L64.9126 24.8915ZM64.8566 25.4968L64.5912 24.8035L65.6006 24.0075L65.8526 13.4022L66.8032 13.0342L74.0072 20.8208L75.3619 20.6448L75.6379 21.3595L71.3512 23.0035L71.0739 22.2888L72.1979 21.5355L66.6992 15.5342L66.9152 24.7088L64.8566 25.4968Z" fill="white"/>
<path d="M77.6189 20.6376L77.6829 20.9176L81.6363 20.0029L81.5723 19.7269L80.1176 19.7442L80.0923 19.6376L78.0469 10.7882L79.3603 10.1496L79.2963 9.86957L75.3429 10.7842L75.4083 11.0629L76.8576 11.0776L78.9189 20.0016L77.6189 20.6376ZM77.4829 21.2402L77.3096 20.4909L78.6096 19.8549L76.6443 11.3442L75.1949 11.3296L75.0216 10.5829L79.4989 9.54824L79.6709 10.2989L78.3563 10.9362L80.3296 19.4722L81.7856 19.4562L81.9576 20.2042L77.4829 21.2402Z" fill="white"/>
<path d="M86.4516 18.982L86.4769 19.266L90.5183 18.914L90.4943 18.63L89.0209 18.4446L89.0116 18.3366L88.1956 9.02064L91.0676 8.76997L91.8023 10.79L92.3009 10.7446L92.0916 8.33397L83.0609 9.12331L83.2716 11.5353L83.7729 11.4913L84.1449 9.37264L86.9743 9.12731L87.7996 18.5353L86.4516 18.982ZM86.2316 19.5566L86.1663 18.7926L87.5129 18.3473L86.7303 9.41797L84.3743 9.62331L84.0023 11.7406L83.0289 11.8246L82.7703 8.88064L92.3369 8.04331L92.5916 10.9886L91.6209 11.0766L90.8849 9.05531L88.4863 9.26464L89.2703 18.2046L90.7423 18.39L90.8089 19.1593L90.6743 19.17L86.2316 19.5566Z" fill="white"/>
<path d="M94.9393 18.685L102.777 18.8224L102.817 16.557L102.298 16.549L101.71 18.4584L97.578 18.3877L97.6607 13.5544L100.637 13.605L101.002 14.6917L101.299 14.697L101.345 12.0224L101.05 12.0184L100.645 13.2477L97.6687 13.197L97.746 8.6757L101.622 8.74504L102.145 10.6864L102.649 10.6957L102.689 8.41704L95.1193 8.28504L95.114 8.5717L96.518 8.9397L96.358 18.0984L94.9433 18.3984L94.9393 18.685ZM103.039 19.0957L94.666 18.9477L94.6793 18.1797L96.094 17.8797L96.246 9.14504L94.842 8.77704L94.8553 8.0117L102.962 8.15437L102.911 10.969L101.938 10.9517L101.415 9.00904L98.0113 8.94904L97.942 12.933L100.453 12.9757L100.858 11.745L101.618 11.7584L101.563 14.9704L100.807 14.957L100.442 13.8717L97.9247 13.8277L97.8513 18.1237L101.513 18.1864L102.102 16.277L103.09 16.293L103.039 19.0957Z" fill="white"/>
<path d="M111.256 20.3088L115.251 21.0128L115.303 20.7288L114.064 20.1768L114.044 20.1275L111.779 14.6528L111.844 14.5888L115.399 11.1355L116.646 10.9808L116.695 10.7048L113.524 10.1462L113.476 10.4208L114.723 11.0395L111.523 14.3102L109.818 10.1115L111.039 10.0022L111.09 9.71816L107.095 9.01283L107.046 9.29816L108.31 9.8675L110.506 15.1448L110.44 15.2088L106.614 18.8915L105.35 18.9902L105.303 19.2568L108.471 19.8155L108.519 19.5488L107.364 19.0502L110.802 15.5048L112.587 19.9275L111.307 20.0235L111.256 20.3088ZM115.468 21.3248L110.946 20.5262L111.079 19.7715L112.2 19.6875L110.707 15.9888L107.827 18.9568L108.822 19.3875L108.688 20.1275L104.994 19.4755L105.12 18.7382L106.496 18.6315L110.188 15.0795L108.102 10.0675L106.747 9.45683L106.876 8.70216L111.4 9.50083L111.267 10.2515L110.203 10.3462L111.618 13.8302L114.272 11.1155L113.178 10.5728L113.306 9.8355L117.006 10.4875L116.874 11.2235L115.522 11.3902L112.096 14.7182L114.271 19.9755L115.603 20.5702L115.468 21.3248Z" fill="white"/>
<path d="M123.968 23.9721L127.703 25.5574L127.815 25.2961L126.62 24.4334L126.661 24.3334L130.207 15.9854L131.656 16.2454L131.768 15.9814L128.032 14.3974L127.92 14.6628L129.069 15.5188L127.399 19.4614L122.359 17.3214L124.031 13.3801L125.473 13.6214L125.584 13.3588L121.839 11.7681L121.727 12.0308L122.901 12.9014L122.86 13.0001L119.317 21.3481L117.885 21.0814L117.773 21.3441L121.523 22.9348L121.632 22.6708L120.447 21.8281L122.213 17.6628L127.252 19.8028L125.485 23.9668L124.079 23.7108L123.968 23.9721ZM127.845 25.9094L123.616 24.1134L123.916 23.4081L125.323 23.6641L126.901 19.9441L122.355 18.0148L120.777 21.7334L121.963 22.5774L121.665 23.2868L117.421 21.4868L117.723 20.7774L119.155 21.0454L122.572 12.9921L121.397 12.1214L121.695 11.4161L121.82 11.4681L125.936 13.2161L125.639 13.9214L124.195 13.6788L122.711 17.1801L127.257 19.1094L128.74 15.6094L127.591 14.7508L127.891 14.0468L132.119 15.8401L131.819 16.5481L130.369 16.2868L126.951 24.3401L128.145 25.2041L127.845 25.9094Z" fill="white"/>
<path d="M130.492 26.773L134.04 28.7396L134.179 28.4916L133.085 27.525L133.137 27.4316L137.541 19.4876L138.943 19.8903L139.081 19.641L135.535 17.6756L135.395 17.925L136.463 18.9076L132.021 26.9196L130.631 26.5236L130.492 26.773ZM134.144 29.1036L130.128 26.877L130.5 26.2063L131.889 26.6036L136.125 18.9623L135.057 17.9796L135.431 17.3103L139.448 19.537L139.073 20.2076L137.673 19.8036L133.425 27.4676L134.519 28.433L134.144 29.1036Z" fill="white"/>
<path d="M141.396 33.637L144.678 36.0196L144.845 35.7903L143.852 34.6636L149.237 27.253L150.624 27.837L150.792 27.6063L147.51 25.221L147.341 25.4516L148.266 26.5276L145.38 30.4983L143.306 28.9903C142.621 28.4943 142.216 27.917 142.102 27.2783C141.993 26.6383 142.196 25.9583 142.705 25.257L144.02 23.4436L145.365 24.0156L145.532 23.7836L142.25 21.401L142.084 21.6316L143.02 22.737L141.697 24.5583C140.998 25.5196 140.86 26.373 141.274 27.1663C141.656 27.897 142.366 28.6436 143.388 29.385L145.224 30.7183L142.873 33.9503L141.565 33.405L141.396 33.637ZM144.738 36.3943L141.021 33.697L141.473 33.0756L142.781 33.621L144.849 30.777L143.23 29.6023C142.174 28.8356 141.437 28.0583 141.036 27.2903C140.577 26.4103 140.725 25.4383 141.478 24.401L142.678 22.7503L141.742 21.645L142.19 21.0263L145.905 23.7236L145.457 24.3463L144.112 23.7743L142.922 25.4143C142.457 26.0556 142.27 26.6663 142.368 27.2316C142.468 27.801 142.837 28.3183 143.464 28.773L145.321 30.1236L147.924 26.5423L147 25.465L147.452 24.8476L151.166 27.5463L150.717 28.1663L149.33 27.5823L144.196 34.6476L145.189 35.7743L144.738 36.3943Z" fill="white"/>
<path d="M151.497 42.4273L154.262 45.3953L154.47 45.2006L153.729 43.9259L160.441 37.6673L161.661 38.4953L161.869 38.3019L159.103 35.3339L158.891 35.5299L159.594 36.7846L156.465 39.7006L156.373 39.6019L152.73 35.6979L155.861 32.7779L157.079 33.5846L157.289 33.3899L154.514 30.4126L154.303 30.6073L155.025 31.8806L154.947 31.9539L148.313 38.1419L147.114 37.3139L146.906 37.5073L149.683 40.4833L149.891 40.2899L149.149 39.0353L152.457 35.9513L152.549 36.0486L156.191 39.9539L156.094 40.0459L152.883 43.0393L151.705 42.2339L151.497 42.4273ZM154.249 45.7739L154.157 45.6766L151.118 42.4139L151.678 41.8913L152.857 42.6979L155.813 39.9406L152.443 36.3299L149.49 39.0846L150.233 40.3393L149.669 40.8619L146.525 37.4926L147.09 36.9699L148.287 37.7979L154.687 31.8286L153.965 30.5553L154.527 30.0339L157.667 33.4033L157.107 33.9246L155.889 33.1193L153.109 35.7099L156.477 39.3206L159.257 36.7313L158.554 35.4766L159.117 34.9553L162.247 38.3153L161.687 38.8379L160.467 38.0099L154.069 43.9766L154.81 45.2513L154.249 45.7739Z" fill="white"/>
<path d="M159.918 52.7957L162.244 56.117L162.476 55.9544L161.894 54.5557L169.402 49.2997L170.529 50.3157L170.762 50.1517L168.436 46.8317L168.202 46.9944L168.58 47.9584L157.93 49.1517L165.57 43.805L166.669 44.805L166.904 44.641L164.577 41.3197L164.342 41.4837L164.866 42.801L157.353 48.0624L156.293 47.1197L156.057 47.2837L158.385 50.605L158.618 50.4424L158.181 49.3957L168.845 48.1957L161.182 53.557L160.152 52.6304L159.918 52.7957ZM162.177 56.4904L159.546 52.7304L160.17 52.2877L161.204 53.2144L167.826 48.5797L158.566 49.6224L158.949 50.5397L158.318 50.9784L155.684 47.2184L156.312 46.777L157.372 47.721L164.538 42.7037L164.014 41.3837L164.642 40.9464L167.278 44.7064L166.649 45.149L165.548 44.1477L158.948 48.7677L168.202 47.7304L167.876 46.8957L168.501 46.4584L171.137 50.2184L170.508 50.657L169.381 49.6424L162.225 54.6517L162.808 56.0504L162.177 56.4904Z" fill="white"/>
<path d="M177.036 55.7515C176.508 56.0181 176.169 56.4128 176.029 56.9275C175.878 57.4915 175.93 58.0635 176.181 58.6275C176.433 59.1941 176.822 59.6128 177.341 59.8715C177.82 60.1128 178.328 60.1248 178.885 59.9061L178.818 59.7568C178.465 59.8675 178.106 59.7875 177.752 59.5181C177.374 59.2341 177.07 58.8368 176.849 58.3381C176.628 57.8381 176.536 57.3488 176.574 56.8808C176.616 56.4355 176.796 56.1141 177.113 55.9248L177.036 55.7515ZM178.121 60.3288C177.809 60.3288 177.508 60.2555 177.221 60.1115C176.645 59.8235 176.213 59.3621 175.937 58.7368C175.66 58.1141 175.604 57.4821 175.77 56.8581C175.942 56.2235 176.372 55.7488 177.048 55.4488L177.17 55.3941L177.464 56.0528L177.342 56.1088C177.042 56.2448 176.878 56.5048 176.841 56.9048C176.806 57.3261 176.892 57.7715 177.094 58.2288C177.297 58.6861 177.573 59.0475 177.913 59.3035C178.232 59.5475 178.533 59.5981 178.836 59.4635L178.958 59.4088L179.241 60.0461L179.118 60.0995C178.776 60.2515 178.442 60.3288 178.121 60.3288ZM166.325 64.5021L167.976 68.2075L168.236 68.0928L167.932 66.6088L176.301 62.8808L177.214 64.0941L177.476 63.9768L175.825 60.2741L175.565 60.3901L175.75 61.4088L165.072 60.5488L173.592 56.7541L174.48 57.9475L174.738 57.8328L173.09 54.1261L172.829 54.2421L173.092 55.6368L172.996 55.6795L164.712 59.3675L163.85 58.2395L163.588 58.3568L165.238 62.0608L165.498 61.9461L165.268 60.8355L175.966 61.6888L167.421 65.4941L166.586 64.3861L166.325 64.5021ZM167.84 68.5621L165.972 64.3648L166.673 64.0541L167.508 65.1621L174.894 61.8715L165.604 61.1315L165.806 62.1035L165.102 62.4155L163.233 58.2221L163.934 57.9075L164.796 59.0355L172.789 55.4768L172.525 54.0835L173.228 53.7715L175.092 57.9675L174.393 58.2795L173.504 57.0861L166.142 60.3648L175.424 61.1128L175.262 60.2288L175.961 59.9195L177.83 64.1128L177.128 64.4275L176.214 63.2128L168.238 66.7661L168.542 68.2501L167.84 68.5621Z" fill="white"/>
<path d="M170.333 74.8016L171.175 78.7709L171.455 78.7109L171.466 77.2549L171.571 77.2323L180.458 75.3429L181.071 76.6669L181.35 76.6083L180.507 72.6403L180.227 72.6989L180.187 74.1483L171.226 76.0523L170.611 74.7429L170.333 74.8016ZM170.969 79.0883L170.015 74.5949L170.763 74.4363L171.379 75.7456L179.925 73.9296L179.965 72.4803L180.714 72.3216L181.667 76.8149L180.918 76.9736L180.305 75.6509L171.733 77.4723L171.722 78.9283L170.969 79.0883Z" fill="white"/>
<path d="M172.788 88.4873L173.282 92.5139L173.564 92.4793L173.714 91.0126L182.822 89.8926L183.319 91.2793L183.604 91.2433L183.108 87.2206L182.824 87.2553L182.655 88.6806L178.407 89.2006L177.742 83.7686L181.987 83.2459L182.5 84.6179L182.786 84.5819L182.29 80.5419L182.004 80.5766L181.842 82.0313L172.732 83.1473L172.25 81.7739L171.967 81.8086L172.463 85.8486L172.744 85.8153L172.882 84.3633L172.99 84.3499L177.372 83.8113L178.039 89.2459L173.548 89.7979L173.068 88.4526L172.788 88.4873ZM173.047 92.8113L172.488 88.2526L173.25 88.1593L173.73 89.5046L177.739 89.0126L177.138 84.1113L173.13 84.6033L172.992 86.0539L172.23 86.1486L172.212 86.0153L171.668 81.5739L172.43 81.4819L172.914 82.8539L181.598 81.7899L181.76 80.3353L182.524 80.2433L183.086 84.8153L182.323 84.9086L181.811 83.5379L178.04 84.0019L178.642 88.9019L182.414 88.4393L182.582 87.0139L183.342 86.9206L183.903 91.4779L183.14 91.5713L182.642 90.1859L173.958 91.2539L173.81 92.7193L173.047 92.8113Z" fill="white"/>
<path d="M180.291 103.434L182.401 103.47C183.147 102.691 183.539 101.568 183.567 100.131C183.592 98.6725 183.121 97.4258 182.168 96.4245C181.213 95.4245 179.896 94.9031 178.251 94.8751C178.2 94.8738 178.151 94.8738 178.1 94.8738C176.521 94.8738 175.232 95.3418 174.267 96.2671C173.269 97.2178 172.751 98.4431 172.725 99.9085C172.701 101.348 173.099 102.496 173.909 103.323L176.124 103.359L176.131 102.926L173.844 102.192L173.82 102.166C173.279 101.566 173.012 100.798 173.027 99.8845C173.045 98.7538 173.536 97.8471 174.481 97.1898C175.413 96.5431 176.689 96.2218 178.297 96.2565C179.897 96.2831 181.148 96.6551 182.015 97.3605C182.892 98.0738 183.327 99.0018 183.308 100.119C183.291 101.002 183.032 101.722 182.54 102.259L182.513 102.287L180.299 102.927L180.291 103.434ZM182.513 103.74L180.019 103.698L180.033 102.723L182.367 102.05C182.797 101.566 183.024 100.914 183.04 100.114C183.057 99.0831 182.656 98.2271 181.847 97.5698C181.027 96.9018 179.831 96.5498 178.293 96.5245C176.739 96.4938 175.519 96.7951 174.635 97.4098C173.763 98.0151 173.313 98.8498 173.295 99.8898C173.281 100.731 173.511 101.407 173.996 101.959L176.403 102.73L176.387 103.632L173.797 103.59L173.759 103.551C172.869 102.668 172.431 101.44 172.457 99.9031C172.484 98.3645 173.031 97.0751 174.081 96.0725C175.129 95.0685 176.54 94.5671 178.256 94.6058C179.975 94.6351 181.356 95.1845 182.363 96.2391C183.365 97.2938 183.861 98.6045 183.835 100.136C183.805 101.67 183.375 102.868 182.553 103.7L182.513 103.74Z" fill="white"/>
<path d="M178.85 115.938L181.233 116.358L182.805 107.433L180.423 107.012L180.337 107.506L182.286 108.414L181.791 111.213L172.491 109.573L172.407 108.157L172.127 108.108L171.422 112.101L171.703 112.15L172.262 110.774L181.579 112.418L181.078 115.258L178.937 115.444L178.85 115.938ZM181.45 116.669L178.539 116.156L178.709 115.193L180.85 115.009L181.269 112.636L172.429 111.077L171.87 112.453L171.111 112.318L171.91 107.797L172.663 107.929L172.746 109.345L181.574 110.901L181.986 108.572L180.037 107.662L180.206 106.701L183.117 107.216L181.45 116.669Z" fill="white"/>
<path d="M176.638 129.928L176.909 130.015L178.162 126.159L177.89 126.071L177.347 126.951L169.986 119.167L178.854 122.047L178.717 123.529L178.987 123.617L180.241 119.76L179.97 119.672L179.231 120.881L179.131 120.848L170.506 118.048L170.623 116.635L170.351 116.545L169.097 120.403L169.366 120.491L169.941 119.512L177.318 127.307L168.423 124.413L168.543 123.033L168.271 122.944L167.019 126.801L167.289 126.891L168.057 125.584L168.161 125.617L176.771 128.415L176.638 129.928ZM177.082 130.352L176.351 130.119L176.485 128.604L168.179 125.905L167.411 127.212L166.681 126.973L168.099 122.605L168.829 122.844L168.709 124.224L176.397 126.724L169.991 119.956L169.489 120.813L168.758 120.575L170.179 116.207L170.909 116.445L170.791 117.859L179.113 120.561L179.851 119.351L180.579 119.587L179.159 123.955L178.429 123.719L178.566 122.236L170.903 119.748L177.302 126.511L177.771 125.751L178.499 125.985L177.082 130.352Z" fill="white"/>
<path d="M168.608 140.328L170.725 141.498L175.119 133.573L173.003 132.398L172.76 132.838L174.305 134.329L172.928 136.814L164.669 132.237L165.052 130.872L164.803 130.733L162.835 134.28L163.083 134.417L164.06 133.301L172.336 137.886L170.939 140.409L168.853 139.886L168.608 140.328ZM170.831 141.864L168.243 140.432L168.719 139.577L170.803 140.1L171.971 137.992L164.12 133.641L163.143 134.757L162.469 134.384L164.696 130.369L165.367 130.738L164.985 132.105L172.824 136.449L173.971 134.38L172.425 132.889L172.897 132.034L175.483 133.468L170.831 141.864Z" fill="white"/>
<path d="M162.92 152.155L163.143 152.318L165.034 149.715L164.81 149.552L163.814 150.335L161.482 145.247L167.142 145.832L166.748 146.864L166.982 147.034L169.199 143.983L168.967 143.816L167.994 144.666L161.039 144.042L159.576 140.676L159.599 140.623L160.271 139.06L160.039 138.892L158.559 140.93L163.323 151.04L162.92 152.155ZM163.202 152.692L162.6 152.252L163.032 151.054L158.25 140.902L159.979 138.516L160.602 138.97L159.868 140.676L161.222 143.79L167.904 144.388L168.951 143.474L169.574 143.923L167.042 147.407L166.423 146.96L166.766 146.063L161.922 145.562L163.916 149.912L164.804 149.216L165.41 149.655L163.202 152.692Z" fill="white"/>
<path d="M153.286 159.197L155.026 160.877L161.324 154.358L159.582 152.675L159.234 153.038L160.342 154.878L158.368 156.923L158.272 156.83L151.576 150.363L152.3 149.143L152.092 148.943L149.274 151.862L149.48 152.058L150.713 151.233L150.79 151.307L157.517 157.805L155.514 159.879L153.634 158.835L153.286 159.197ZM155.033 161.255L152.908 159.203L153.585 158.502L155.465 159.545L157.138 157.811L150.681 151.577L149.449 152.402L148.894 151.867L152.086 148.563L152.638 149.098L151.914 150.317L158.361 156.543L160.006 154.841L158.898 153.001L159.574 152.295L161.704 154.351L161.61 154.447L155.033 161.255Z" fill="white"/>
<path d="M80.4181 182.526L80.5008 182.006L81.9275 181.915L82.5968 177.684L77.4528 176.87L76.7835 181.1L78.1395 181.632L78.0568 182.152L73.7701 181.472L73.8528 180.954L75.3075 180.867L76.7101 172.012L75.3581 171.452L75.4395 170.932L79.7261 171.611L79.6435 172.131L78.1848 172.246L77.5528 176.236L82.6968 177.052L83.3288 173.06L82.0048 172.506L82.0875 171.984L86.3595 172.662L86.2781 173.182L84.8075 173.28L83.4048 182.135L84.7728 182.683L84.6901 183.203L80.4181 182.526Z" fill="white"/>
<path d="M94.7135 183.994L94.7041 183.467L96.0788 183.116L95.9175 173.911L93.3148 173.956L92.7948 176.043L92.0561 176.056L92.0081 173.367L101.341 173.204L101.389 175.894L100.649 175.906L100.057 173.839L97.4121 173.884L97.5721 183.104L99.0295 183.391L99.0388 183.918L94.7135 183.994Z" fill="white"/>
<path d="M109.707 182.782L109.624 182.262L111.305 181.592L112.599 178.304L108.208 173.05L106.868 172.959L106.787 172.439L110.777 171.807L110.86 172.327L109.919 172.75L113.248 176.847L115.055 171.98L113.865 171.836L113.785 171.331L117.229 170.786L117.309 171.291L116.196 171.814L112.405 182.354L109.707 182.782Z" fill="white"/>
<path d="M80.5721 182.414L84.5788 183.049L84.6241 182.768L83.2561 182.22L83.2721 182.113L84.6908 173.153L86.1615 173.054L86.2068 172.773L82.1988 172.138L82.1548 172.422L83.4788 172.977L82.8081 177.205L77.4001 176.349L78.0695 172.12L79.5281 172.005L79.5721 171.722L75.5508 171.085L75.5068 171.369L76.8588 171.929L76.8428 172.033L75.4228 180.994L73.9681 181.081L73.9241 181.361L77.9455 181.998L77.9895 181.717L76.6335 181.185L77.3415 176.716L82.7508 177.573L82.0428 182.042L80.6161 182.133L80.5721 182.414ZM84.8015 183.357L80.2655 182.637L80.3841 181.878L81.8108 181.788L82.4428 177.796L77.5641 177.024L76.9335 181.014L78.2895 181.546L78.1681 182.305L73.6175 181.584L73.7375 180.826L75.1908 180.74L76.5601 172.096L75.2095 171.536L75.3281 170.778L79.8801 171.5L79.7601 172.257L78.3015 172.372L77.7068 176.126L82.5855 176.898L83.1801 173.144L81.8561 172.589L81.9761 171.832L86.5135 172.55L86.3935 173.309L84.9228 173.408L83.5535 182.05L84.9228 182.598L84.8015 183.357Z" fill="white"/>
<path d="M94.8403 183.571L94.8456 183.857L98.9016 183.787L98.8963 183.503L97.4403 183.215L97.275 173.752L100.159 173.703L100.75 175.771L101.252 175.761L101.21 173.341L92.1456 173.499L92.1883 175.92L92.6896 175.911L93.2083 173.824L96.0496 173.775L96.0523 173.908L96.215 183.22L94.8403 183.571ZM94.5816 184.131L94.5683 183.364L95.943 183.013L95.7856 174.048L93.4203 174.088L92.9003 176.176L91.923 176.193L91.8723 173.235L92.007 173.233L101.474 173.068L101.526 176.024L100.548 176.043L99.9563 173.975L97.5483 174.016L97.7043 182.993L99.1616 183.281L99.175 184.051L94.5816 184.131Z" fill="white"/>
<path d="M109.773 182.346L109.819 182.627L112.305 182.234L116.088 171.715L117.161 171.213L117.117 170.938L113.94 171.442L113.983 171.715L115.24 171.867L113.292 177.114L109.704 172.699L110.712 172.246L110.667 171.961L106.94 172.55L106.984 172.833L108.275 172.919L108.311 172.963L112.753 178.279L111.408 181.695L111.355 181.717L109.773 182.346ZM109.596 182.935L109.475 182.177L111.201 181.489L112.444 178.329L108.141 173.179L106.752 173.086L106.633 172.327L110.889 171.653L111.008 172.406L110.133 172.801L113.203 176.581L114.871 172.093L113.749 171.957L113.632 171.219L117.34 170.631L117.457 171.37L116.303 171.911L112.504 182.475L109.596 182.935Z" fill="white"/>
<path fill-rule="evenodd" clip-rule="evenodd" d="M95.8799 166.308C134.671 166.308 166.308 134.671 166.308 95.8801C166.308 57.0894 134.671 25.4521 95.8799 25.4521C57.0892 25.4521 25.4519 57.0894 25.4519 95.8801C25.4519 134.671 57.0892 166.308 95.8799 166.308Z" fill="white"/>
<path d="M54.8527 165.482C53.3367 165.482 52.102 166.715 52.102 168.233C52.102 169.749 53.3367 170.982 54.8527 170.982C56.3687 170.982 57.6033 169.749 57.6033 168.233C57.6033 166.715 56.3687 165.482 54.8527 165.482ZM54.8527 172.306C52.606 172.306 50.7793 170.479 50.7793 168.233C50.7793 165.986 52.606 164.159 54.8527 164.159C57.0993 164.159 58.926 165.986 58.926 168.233C58.926 170.479 57.0993 172.306 54.8527 172.306Z" fill="white"/>
<path d="M134.642 165.482C133.124 165.482 131.891 166.715 131.891 168.233C131.891 169.749 133.124 170.982 134.642 170.982C136.158 170.982 137.392 169.749 137.392 168.233C137.392 166.715 136.158 165.482 134.642 165.482ZM134.642 172.306C132.395 172.306 130.568 170.479 130.568 168.233C130.568 165.986 132.395 164.159 134.642 164.159C136.888 164.159 138.715 165.986 138.715 168.233C138.715 170.479 136.888 172.306 134.642 172.306Z" fill="white"/>
<path d="M78.6827 148.762V148.143L80.3053 147.758V137.386L77.4453 139.093V138.29L81.008 136.198H82.0613V147.758L83.768 148.143V148.762H78.6827Z" fill="#A23436"/>
<path d="M94.9599 145.567C94.9599 146.648 94.5425 147.491 93.7052 148.093C92.8692 148.695 91.8732 148.996 90.7199 148.996C89.5652 148.996 88.5639 148.692 87.7159 148.084C86.8692 147.476 86.4452 146.637 86.4452 145.567C86.4452 144.82 86.7012 144.139 87.2145 143.525C87.7279 142.912 88.4799 142.477 89.4732 142.221C88.6025 142.009 87.9425 141.635 87.4905 141.1C87.0385 140.565 86.8132 139.963 86.8132 139.293C86.8132 138.279 87.2012 137.481 87.9759 136.901C88.7505 136.321 89.6652 136.031 90.7199 136.031C91.7732 136.031 92.6905 136.321 93.4705 136.901C94.2519 137.481 94.6425 138.289 94.6425 139.327C94.6425 139.984 94.4159 140.579 93.9639 141.108C93.5132 141.639 92.8465 142.009 91.9652 142.221C92.9359 142.477 93.6772 142.912 94.1905 143.525C94.7039 144.139 94.9599 144.82 94.9599 145.567ZM89.0959 141.143C89.4705 141.66 90.0025 141.92 90.6945 141.92C91.3852 141.92 91.9292 141.652 92.3252 141.116C92.7212 140.581 92.9185 139.924 92.9185 139.143C92.9185 138.363 92.7039 137.745 92.2745 137.295C91.8452 136.843 91.3292 136.617 90.7279 136.617C90.1252 136.617 89.6092 136.851 89.1799 137.319C88.7505 137.788 88.5359 138.412 88.5359 139.193C88.5359 139.973 88.7225 140.624 89.0959 141.143ZM90.8279 142.572H90.6772C89.9412 142.572 89.3639 142.861 88.9465 143.443C88.5279 144.021 88.3185 144.736 88.3185 145.583C88.3185 146.431 88.5505 147.108 89.0132 147.616C89.4759 148.124 90.0279 148.377 90.6692 148.377C91.3105 148.377 91.8705 148.117 92.3505 147.599C92.8292 147.081 93.0692 146.395 93.0692 145.541C93.0692 144.688 92.8745 143.98 92.4839 143.417C92.0945 142.853 91.5412 142.572 90.8279 142.572Z" fill="#A23436"/>
<path d="M105.483 145.567C105.483 146.648 105.065 147.491 104.228 148.093C103.392 148.695 102.396 148.996 101.243 148.996C100.088 148.996 99.0865 148.692 98.2385 148.084C97.3919 147.476 96.9679 146.637 96.9679 145.567C96.9679 144.82 97.2239 144.139 97.7372 143.525C98.2505 142.912 99.0025 142.477 99.9959 142.221C99.1252 142.009 98.4652 141.635 98.0132 141.1C97.5612 140.565 97.3359 139.963 97.3359 139.293C97.3359 138.279 97.7225 137.481 98.4985 136.901C99.2732 136.321 100.188 136.031 101.243 136.031C102.296 136.031 103.213 136.321 103.993 136.901C104.775 137.481 105.165 138.289 105.165 139.327C105.165 139.984 104.939 140.579 104.487 141.108C104.036 141.639 103.369 142.009 102.488 142.221C103.459 142.477 104.2 142.912 104.713 143.525C105.227 144.139 105.483 144.82 105.483 145.567ZM99.6185 141.143C99.9932 141.66 100.525 141.92 101.217 141.92C101.908 141.92 102.452 141.652 102.848 141.116C103.244 140.581 103.441 139.924 103.441 139.143C103.441 138.363 103.227 137.745 102.797 137.295C102.368 136.843 101.852 136.617 101.251 136.617C100.648 136.617 100.132 136.851 99.7025 137.319C99.2732 137.788 99.0585 138.412 99.0585 139.193C99.0585 139.973 99.2452 140.624 99.6185 141.143ZM101.351 142.572H101.2C100.464 142.572 99.8865 142.861 99.4692 143.443C99.0505 144.021 98.8412 144.736 98.8412 145.583C98.8412 146.431 99.0719 147.108 99.5359 147.616C99.9985 148.124 100.551 148.377 101.192 148.377C101.833 148.377 102.393 148.117 102.873 147.599C103.352 147.081 103.592 146.395 103.592 145.541C103.592 144.688 103.397 143.98 103.007 143.417C102.617 142.853 102.064 142.572 101.351 142.572Z" fill="#A23436"/>
<path d="M111.572 140.481C112.564 140.481 113.42 140.882 114.14 141.685C114.859 142.489 115.219 143.478 115.219 144.656C115.219 145.832 114.868 146.841 114.165 147.682C113.463 148.525 112.375 148.946 110.903 148.946C110.189 148.946 109.525 148.832 108.912 148.604C108.299 148.374 107.824 148.06 107.491 147.658V145.333H108.343L109.045 147.608C109.581 148.021 110.205 148.226 110.919 148.226C111.633 148.226 112.241 147.912 112.743 147.281C113.245 146.652 113.496 145.854 113.496 144.889C113.496 143.925 113.233 143.128 112.709 142.497C112.185 141.868 111.572 141.552 110.869 141.552C109.921 141.552 109.168 142.126 108.611 143.274H107.573L108.377 136.216H114.265V137.621H108.963L108.411 142.589C108.756 141.82 109.216 141.276 109.791 140.958C110.364 140.64 110.959 140.481 111.572 140.481Z" fill="#A23436"/>
<path d="M78.8403 148.604H83.6109V148.268L81.9043 147.883V136.356H81.0509L77.6029 138.38V138.815L80.4629 137.108V147.882L78.8403 148.267V148.604ZM83.9256 148.919H78.5256V148.019L80.1483 147.634V137.663L77.2869 139.37V138.2L80.9656 136.042H82.2189V147.632L83.9256 148.018V148.919Z" fill="#A23436"/>
<path d="M89.2237 141.05C89.5691 141.529 90.0504 141.762 90.6944 141.762C91.3384 141.762 91.8304 141.521 92.1984 141.022C92.5717 140.518 92.7611 139.885 92.7611 139.142C92.7611 138.408 92.5597 137.822 92.1611 137.404C91.7584 136.98 91.2904 136.774 90.7277 136.774C90.1677 136.774 89.6984 136.988 89.2957 137.425C88.8957 137.862 88.6931 138.457 88.6931 139.193C88.6931 139.936 88.8717 140.561 89.2237 141.05ZM90.6944 142.078C89.9517 142.078 89.3717 141.794 88.9691 141.234C88.5771 140.69 88.3784 140.004 88.3784 139.193C88.3784 138.376 88.6091 137.709 89.0637 137.213C89.5237 136.713 90.0824 136.46 90.7277 136.46C91.3717 136.46 91.9304 136.704 92.3891 137.186C92.8451 137.665 93.0771 138.324 93.0771 139.142C93.0771 139.954 92.8664 140.65 92.4517 141.21C92.0264 141.786 91.4344 142.078 90.6944 142.078ZM90.6771 142.73C89.9877 142.73 89.4637 142.993 89.0731 143.534C88.6771 144.084 88.4757 144.773 88.4757 145.584C88.4757 146.386 88.6957 147.034 89.1291 147.51C89.5637 147.988 90.0677 148.22 90.6691 148.22C91.2691 148.22 91.7811 147.982 92.2344 147.493C92.6837 147.006 92.9117 146.35 92.9117 145.542C92.9117 144.725 92.7237 144.041 92.3544 143.506C91.9931 142.984 91.4931 142.73 90.8277 142.73H90.6771ZM90.6691 148.534C89.9837 148.534 89.3877 148.261 88.8957 147.722C88.4091 147.188 88.1611 146.468 88.1611 145.584C88.1611 144.706 88.3824 143.954 88.8184 143.35C89.2651 142.73 89.8904 142.414 90.6771 142.414H90.8277C91.5931 142.414 92.1944 142.722 92.6131 143.328C93.0211 143.914 93.2264 144.66 93.2264 145.542C93.2264 146.432 92.9704 147.161 92.4664 147.706C91.9571 148.256 91.3531 148.534 90.6691 148.534ZM90.7197 136.189C89.7037 136.189 88.8131 136.47 88.0704 137.028C87.3304 137.581 86.9704 138.322 86.9704 139.294C86.9704 139.922 87.1864 140.496 87.6117 140.998C88.0384 141.505 88.6771 141.865 89.5104 142.069L90.1197 142.217L89.5117 142.374C88.5571 142.62 87.8251 143.042 87.3344 143.626C86.8491 144.209 86.6024 144.861 86.6024 145.566C86.6024 146.593 86.9971 147.374 87.8077 147.956C88.6237 148.542 89.6037 148.838 90.7197 148.838C91.8344 148.838 92.8077 148.545 93.6131 147.966C94.4131 147.389 94.8024 146.605 94.8024 145.566C94.8024 144.861 94.5557 144.209 94.0691 143.626C93.5811 143.041 92.8584 142.62 91.9251 142.374L91.3224 142.214L91.9277 142.069C92.7731 141.865 93.4171 141.508 93.8451 141.006C94.2691 140.509 94.4837 139.944 94.4837 139.328C94.4837 138.333 94.1224 137.581 93.3771 137.028C92.6277 136.47 91.7344 136.189 90.7197 136.189ZM90.7197 149.154C89.5357 149.154 88.4957 148.837 87.6251 148.212C86.7371 147.577 86.2877 146.686 86.2877 145.566C86.2877 144.785 86.5584 144.065 87.0931 143.425C87.5344 142.898 88.1477 142.496 88.9237 142.222C88.2691 141.992 87.7477 141.649 87.3704 141.202C86.8957 140.64 86.6557 139.998 86.6557 139.294C86.6557 138.232 87.0677 137.384 87.8811 136.774C88.6797 136.177 89.6344 135.874 90.7197 135.874C91.8037 135.874 92.7611 136.177 93.5651 136.774C94.3837 137.384 94.7997 138.242 94.7997 139.328C94.7997 140.021 94.5584 140.656 94.0851 141.21C93.7051 141.656 93.1771 141.996 92.5117 142.226C93.2691 142.498 93.8731 142.901 94.3104 143.425C94.8464 144.065 95.1171 144.785 95.1171 145.566C95.1171 146.697 94.6731 147.59 93.7971 148.221C92.9384 148.84 91.9024 149.154 90.7197 149.154Z" fill="#A23436"/>
<path d="M101.25 136.774C100.689 136.774 100.221 136.988 99.8184 137.425C99.4184 137.862 99.2157 138.457 99.2157 139.193C99.2157 139.937 99.3944 140.561 99.7464 141.05C100.092 141.529 100.573 141.762 101.217 141.762C101.861 141.762 102.353 141.521 102.721 141.024C103.094 140.518 103.284 139.885 103.284 139.142C103.284 138.408 103.082 137.822 102.684 137.404C102.281 136.98 101.813 136.774 101.25 136.774ZM101.217 142.078C100.474 142.078 99.8944 141.794 99.4917 141.234C99.0997 140.692 98.9011 140.004 98.9011 139.193C98.9011 138.376 99.1317 137.709 99.5864 137.213C100.045 136.713 100.605 136.46 101.25 136.46C101.894 136.46 102.453 136.704 102.912 137.186C103.368 137.665 103.6 138.324 103.6 139.142C103.6 139.954 103.389 140.649 102.973 141.21C102.549 141.786 101.957 142.078 101.217 142.078ZM101.2 142.73C100.51 142.73 99.9864 142.993 99.5957 143.534C99.1997 144.084 98.9984 144.774 98.9984 145.584C98.9984 146.386 99.2184 147.034 99.6517 147.51C100.086 147.988 100.59 148.22 101.192 148.22C101.792 148.22 102.305 147.982 102.757 147.493C103.206 147.006 103.434 146.35 103.434 145.542C103.434 144.725 103.248 144.041 102.877 143.506C102.514 142.984 102.016 142.73 101.35 142.73H101.2ZM101.192 148.534C100.506 148.534 99.9104 148.261 99.4184 147.722C98.9304 147.186 98.6837 146.468 98.6837 145.584C98.6837 144.706 98.9051 143.954 99.3411 143.35C99.7877 142.73 100.413 142.414 101.2 142.414H101.35C102.116 142.414 102.717 142.722 103.136 143.328C103.542 143.914 103.75 144.66 103.75 145.542C103.75 146.432 103.493 147.161 102.989 147.706C102.48 148.256 101.876 148.534 101.192 148.534ZM101.242 136.189C100.226 136.189 99.3357 136.47 98.5931 137.028C97.8531 137.581 97.4931 138.322 97.4931 139.294C97.4931 139.921 97.7077 140.496 98.1331 140.998C98.5611 141.505 99.1997 141.865 100.032 142.069L100.641 142.218L100.034 142.374C99.0797 142.621 98.3464 143.042 97.8571 143.626C97.3717 144.208 97.1251 144.861 97.1251 145.566C97.1251 146.593 97.5197 147.376 98.3317 147.956C99.1464 148.542 100.126 148.838 101.242 148.838C102.357 148.838 103.33 148.545 104.136 147.966C104.936 147.389 105.325 146.605 105.325 145.566C105.325 144.861 105.078 144.209 104.592 143.626C104.104 143.042 103.382 142.62 102.448 142.374L101.845 142.214L102.45 142.069C103.296 141.865 103.94 141.508 104.366 141.006C104.792 140.509 105.006 139.944 105.006 139.328C105.006 138.333 104.645 137.581 103.9 137.028C103.15 136.47 102.256 136.189 101.242 136.189ZM101.242 149.154C100.058 149.154 99.0184 148.837 98.1477 148.212C97.2597 147.577 96.8104 146.686 96.8104 145.566C96.8104 144.785 97.0824 144.064 97.6157 143.425C98.0557 142.898 98.6704 142.496 99.4464 142.224C98.7917 141.992 98.2704 141.65 97.8917 141.202C97.4184 140.64 97.1771 139.997 97.1771 139.294C97.1771 138.232 97.5904 137.385 98.4037 136.774C99.2024 136.177 100.157 135.874 101.242 135.874C102.325 135.874 103.282 136.177 104.088 136.774C104.906 137.384 105.322 138.242 105.322 139.328C105.322 140.022 105.081 140.656 104.606 141.21C104.228 141.656 103.7 141.996 103.034 142.226C103.792 142.498 104.396 142.901 104.834 143.425C105.368 144.065 105.64 144.785 105.64 145.566C105.64 146.697 105.196 147.59 104.32 148.221C103.46 148.84 102.424 149.154 101.242 149.154Z" fill="#A23436"/>
<path d="M107.75 143.117H108.193L108.821 137.463H114.108V136.373H108.517L107.75 143.117ZM107.648 147.6C107.961 147.959 108.405 148.247 108.966 148.455C109.56 148.676 110.212 148.788 110.902 148.788C112.318 148.788 113.376 148.383 114.044 147.583C114.72 146.773 115.061 145.788 115.061 144.655C115.061 143.524 114.712 142.561 114.022 141.791C113.337 141.027 112.513 140.639 111.572 140.639C110.988 140.639 110.414 140.792 109.866 141.096C109.326 141.395 108.884 141.919 108.553 142.653L108.345 143.117H108.513C109.093 141.975 109.886 141.395 110.869 141.395C111.617 141.395 112.277 141.731 112.83 142.396C113.377 143.053 113.653 143.892 113.653 144.889C113.653 145.887 113.389 146.725 112.865 147.38C112.336 148.047 111.681 148.384 110.918 148.384C110.173 148.384 109.51 148.165 108.949 147.732L108.91 147.701L108.226 145.491H107.648V147.6ZM110.902 149.104C110.173 149.104 109.485 148.984 108.857 148.751C108.221 148.513 107.72 148.18 107.369 147.759L107.333 147.715V145.175H108.458L109.181 147.512C109.677 147.883 110.262 148.069 110.918 148.069C111.589 148.069 112.145 147.78 112.62 147.183C113.097 146.585 113.338 145.813 113.338 144.889C113.338 143.967 113.086 143.196 112.588 142.597C112.09 142 111.528 141.709 110.869 141.709C109.978 141.709 109.286 142.244 108.752 143.344L108.709 143.432H108.202L108.142 143.565L108.158 143.432H107.397L108.236 136.059H114.422V137.779H109.102L108.653 141.823C108.952 141.381 109.306 141.045 109.714 140.82C110.309 140.491 110.934 140.324 111.572 140.324C112.606 140.324 113.509 140.747 114.257 141.581C115 142.411 115.377 143.445 115.377 144.655C115.377 145.864 115.009 146.916 114.285 147.784C113.554 148.66 112.417 149.104 110.902 149.104Z" fill="#A23436"/>
<path d="M47.6164 121.252H145.284V66.7862L117.742 66.7755C117.116 66.7755 116.608 66.2675 116.608 65.6409V57.4542L96.5378 45.7622L76.6764 57.7302V65.6462C76.6764 65.9475 76.5578 66.2355 76.3444 66.4489C76.1324 66.6609 75.8431 66.7809 75.5431 66.7809L47.6164 66.7795V121.252ZM146.419 123.52H46.4818C45.8564 123.52 45.3484 123.012 45.3484 122.386V65.6449C45.3484 65.3435 45.4684 65.0555 45.6804 64.8422C45.8938 64.6302 46.1818 64.5102 46.4818 64.5102L74.4084 64.5129V57.0889C74.4084 56.6915 74.6164 56.3235 74.9578 56.1182L95.9431 43.4729C96.2977 43.2595 96.7417 43.2555 97.0991 43.4649L118.314 55.8235C118.662 56.0262 118.876 56.3995 118.876 56.8035V64.5075L146.419 64.5195C147.044 64.5195 147.552 65.0275 147.552 65.6529V122.386C147.552 123.012 147.044 123.52 146.419 123.52Z" fill="#A23436"/>
<path fill-rule="evenodd" clip-rule="evenodd" d="M108.259 86.4746C108.259 85.0866 107.133 83.9613 105.745 83.9613C104.357 83.9613 103.232 85.0866 103.232 86.4746V94.7026H108.259V86.4746Z" fill="#A23436"/>
<path fill-rule="evenodd" clip-rule="evenodd" d="M99.0543 86.4746C99.0543 85.0866 97.929 83.9613 96.541 83.9613C95.153 83.9613 94.0276 85.0866 94.0276 86.4746V94.7026H99.0543V86.4746Z" fill="#A23436"/>
<path fill-rule="evenodd" clip-rule="evenodd" d="M90.0406 86.4746C90.0406 85.0866 88.9152 83.9613 87.5272 83.9613C86.1392 83.9613 85.0139 85.0866 85.0139 86.4746V94.7026H90.0406V86.4746Z" fill="#A23436"/>
<path fill-rule="evenodd" clip-rule="evenodd" d="M108.259 71.1641C108.259 69.7761 107.133 68.6508 105.745 68.6508C104.357 68.6508 103.232 69.7761 103.232 71.1641V79.3921H108.259V71.1641Z" fill="#A23436"/>
<path fill-rule="evenodd" clip-rule="evenodd" d="M99.0543 71.1641C99.0543 69.7761 97.929 68.6508 96.541 68.6508C95.153 68.6508 94.0276 69.7761 94.0276 71.1641V79.3921H99.0543V71.1641Z" fill="#A23436"/>
<path fill-rule="evenodd" clip-rule="evenodd" d="M90.0406 71.1641C90.0406 69.7761 88.9152 68.6508 87.5272 68.6508C86.1392 68.6508 85.0139 69.7761 85.0139 71.1641V79.3921H90.0406V71.1641Z" fill="#A23436"/>
<path fill-rule="evenodd" clip-rule="evenodd" d="M96.4979 64.7805C98.5845 64.7805 100.286 63.0792 100.286 60.9925C100.286 58.9059 98.5845 57.2045 96.4979 57.2045C94.4112 57.2045 92.7099 58.9059 92.7099 60.9925C92.7099 63.0792 94.4112 64.7805 96.4979 64.7805Z" fill="#A23436"/>
<path fill-rule="evenodd" clip-rule="evenodd" d="M108.259 101.782C108.259 100.394 107.133 99.2688 105.745 99.2688C104.357 99.2688 103.232 100.394 103.232 101.782V110.01H108.259V101.782Z" fill="#A23436"/>
<path fill-rule="evenodd" clip-rule="evenodd" d="M99.0543 101.782C99.0543 100.394 97.929 99.2688 96.541 99.2688C95.153 99.2688 94.0276 100.394 94.0276 101.782V110.01H99.0543V101.782Z" fill="#A23436"/>
<path fill-rule="evenodd" clip-rule="evenodd" d="M90.0406 101.782C90.0406 100.394 88.9152 99.2688 87.5272 99.2688C86.1392 99.2688 85.0139 100.394 85.0139 101.782V110.01H90.0406V101.782Z" fill="#A23436"/>
<path d="M79.5044 61.7653H72.4298C71.8044 61.7653 71.2964 61.2573 71.2964 60.6306C71.2964 60.0053 71.8044 59.4973 72.4298 59.4973H79.1964L95.9537 49.6719C96.3031 49.4653 96.7337 49.4626 97.0857 49.6626L113.879 59.1573H120.864C121.49 59.1573 121.998 59.6653 121.998 60.2919C121.998 60.9186 121.49 61.4266 120.864 61.4266H113.582C113.386 61.4266 113.194 61.3759 113.023 61.2786L96.5377 51.9586L80.0778 61.6093C79.9044 61.7106 79.7058 61.7653 79.5044 61.7653Z" fill="#A23436"/>
<path fill-rule="evenodd" clip-rule="evenodd" d="M136.626 71.1167H141.842V78.8193H136.626V71.1167Z" fill="#A23436"/>
<path fill-rule="evenodd" clip-rule="evenodd" d="M136.626 85.6981H141.842V93.3994H136.626V85.6981Z" fill="#A23436"/>
<path fill-rule="evenodd" clip-rule="evenodd" d="M136.626 100.305H141.842V108.006H136.626V100.305Z" fill="#A23436"/>
<path fill-rule="evenodd" clip-rule="evenodd" d="M113.561 71.1167H118.777V78.8193H113.561V71.1167Z" fill="#A23436"/>
<path fill-rule="evenodd" clip-rule="evenodd" d="M122.38 71.1167H127.596V78.8193H122.38V71.1167Z" fill="#A23436"/>
<path fill-rule="evenodd" clip-rule="evenodd" d="M113.561 85.6981H118.777V93.3994H113.561V85.6981Z" fill="#A23436"/>
<path fill-rule="evenodd" clip-rule="evenodd" d="M122.38 85.6981H127.596V93.3994H122.38V85.6981Z" fill="#A23436"/>
<path fill-rule="evenodd" clip-rule="evenodd" d="M113.561 100.305H118.777V108.006H113.561V100.305Z" fill="#A23436"/>
<path fill-rule="evenodd" clip-rule="evenodd" d="M122.38 100.305H127.596V108.006H122.38V100.305Z" fill="#A23436"/>
<path fill-rule="evenodd" clip-rule="evenodd" d="M65.6783 71.1167H70.8943V78.8193H65.6783V71.1167Z" fill="#A23436"/>
<path fill-rule="evenodd" clip-rule="evenodd" d="M74.4956 71.1167H79.7116V78.8193H74.4956V71.1167Z" fill="#A23436"/>
<path fill-rule="evenodd" clip-rule="evenodd" d="M65.6783 85.6981H70.8943V93.3994H65.6783V85.6981Z" fill="#A23436"/>
<path fill-rule="evenodd" clip-rule="evenodd" d="M74.4956 85.6981H79.7116V93.3994H74.4956V85.6981Z" fill="#A23436"/>
<path fill-rule="evenodd" clip-rule="evenodd" d="M65.6783 100.305H70.8943V108.006H65.6783V100.305Z" fill="#A23436"/>
<path fill-rule="evenodd" clip-rule="evenodd" d="M74.4956 100.305H79.7116V108.006H74.4956V100.305Z" fill="#A23436"/>
<path d="M113.603 115.281L79.6933 115.273V113.005L113.603 113.013V115.281Z" fill="#A23436"/>
<path d="M118.013 119.186L75.3395 119.178V116.91L118.013 116.918V119.186Z" fill="#A23436"/>
<path fill-rule="evenodd" clip-rule="evenodd" d="M51.1516 71.1167H56.3676V78.8193H51.1516V71.1167Z" fill="#A23436"/>
<path fill-rule="evenodd" clip-rule="evenodd" d="M51.1516 85.6981H56.3676V93.3994H51.1516V85.6981Z" fill="#A23436"/>
<path fill-rule="evenodd" clip-rule="evenodd" d="M51.1516 100.305H56.3676V108.006H51.1516V100.305Z" fill="#A23436"/>
<path d="M62.1551 65.8732L62.1471 121.573H59.8791L59.8871 65.8732H62.1551Z" fill="#A23436"/>
<path d="M133.386 65.8256L133.378 121.526H131.11L131.118 65.8256H133.386Z" fill="#A23436"/>
</svg>
